<svg width="25" height="24" viewBox="0 0 25 24" fill="none" xmlns="http://www.w3.org/2000/svg">
<path d="M21.1297 10.937V19.4502C21.1297 19.8514 20.985 20.1968 20.6954 20.4864C20.4059 20.7759 20.0605 20.9206 19.6592 20.9206H4.73283C4.33156 20.9206 3.98616 20.7759 3.69663 20.4864C3.40711 20.1968 3.26235 19.8514 3.26235 19.4502V10.9174C2.79309 10.5423 2.47874 10.0737 2.31928 9.51165C2.15981 8.9496 2.17026 8.38101 2.35063 7.80588L3.39762 4.45318C3.53356 4.00746 3.76165 3.66696 4.08188 3.43168C4.40212 3.1964 4.77988 3.07877 5.21515 3.07877H19.0848C19.541 3.07877 19.9377 3.19738 20.2749 3.43461C20.6121 3.67186 20.8454 4.00484 20.9748 4.43356L22.0669 7.80588C22.2473 8.38101 22.2535 8.95286 22.0855 9.52144C21.9176 10.09 21.599 10.5619 21.1297 10.937ZM14.4831 10.4018C15.0674 10.4018 15.536 10.2273 15.8889 9.8783C16.2418 9.5293 16.3876 9.1352 16.3262 8.69602L15.6497 4.23551H12.7872V8.57836C12.7872 9.06592 12.9496 9.49172 13.2744 9.85574C13.5992 10.2198 14.0021 10.4018 14.4831 10.4018ZM9.76581 10.4018C10.2939 10.4018 10.7367 10.224 11.0942 9.86849C11.4517 9.51296 11.6304 9.08292 11.6304 8.57836V4.23551H8.75803L8.08159 8.73525C8.0267 9.12474 8.16199 9.49987 8.48747 9.86064C8.81294 10.2214 9.23905 10.4018 9.76581 10.4018ZM5.15633 10.4018C5.60336 10.4018 5.99027 10.2485 6.31705 9.94202C6.64382 9.6355 6.83597 9.25872 6.89347 8.81168L7.56598 4.23551H4.99753C4.88642 4.23551 4.79655 4.26002 4.72792 4.30904C4.65928 4.35807 4.61189 4.4316 4.58574 4.52965L3.49172 8.07448C3.30872 8.64046 3.38159 9.16984 3.71034 9.66262C4.03907 10.1554 4.52107 10.4018 5.15633 10.4018ZM19.2358 10.4018C19.8253 10.4018 20.3001 10.1662 20.6602 9.69496C21.0203 9.22375 21.1056 8.68359 20.9161 8.07448L19.8122 4.51002C19.7861 4.41199 19.7387 4.34173 19.67 4.29923C19.6014 4.25675 19.5115 4.23551 19.4004 4.23551H16.8418L17.5143 8.81168C17.5783 9.25872 17.7721 9.6355 18.0956 9.94202C18.4191 10.2485 18.7992 10.4018 19.2358 10.4018ZM4.73283 19.7639H19.6592C19.7442 19.7639 19.8177 19.7345 19.8798 19.6757C19.9419 19.6168 19.973 19.5417 19.973 19.4502V11.4841C19.9311 11.5141 19.8367 11.534 19.6896 11.5438C19.5426 11.5536 19.3913 11.5586 19.2358 11.5586C18.8044 11.5586 18.4025 11.4661 18.0299 11.2811C17.6574 11.0961 17.294 10.807 16.9398 10.4135C16.6745 10.7599 16.3412 11.0373 15.9399 11.2458C15.5386 11.4543 15.0687 11.5586 14.5302 11.5586C14.0596 11.5586 13.645 11.4765 13.2862 11.3125C12.9274 11.1484 12.5682 10.8867 12.2088 10.5272C11.9147 10.8658 11.5657 11.1223 11.1618 11.2968C10.7579 11.4713 10.3324 11.5586 9.88541 11.5586C9.39786 11.5586 8.95018 11.47 8.54237 11.2929C8.13455 11.1158 7.78621 10.8227 7.49734 10.4135C7.0307 10.8423 6.60033 11.1403 6.20625 11.3076C5.81214 11.4749 5.46217 11.5586 5.15633 11.5586C5.01123 11.5586 4.87202 11.5536 4.7387 11.5438C4.60538 11.534 4.49884 11.5141 4.4191 11.4841V19.4502C4.4191 19.5417 4.45014 19.6168 4.51223 19.6757C4.57434 19.7345 4.64787 19.7639 4.73283 19.7639Z" fill="#4F63E3"/>
</svg>
