<svg width="56" height="57" viewBox="0 0 56 57" fill="none" xmlns="http://www.w3.org/2000/svg">
<g clip-path="url(#clip0_4_40739)">
<g clip-path="url(#clip1_4_40739)">
<path d="M56 28.0547C56 43.5187 43.464 56.0547 28 56.0547C12.536 56.0547 0 43.5187 0 28.0547C0 12.5907 12.536 0.0546875 28 0.0546875C43.464 0.0546875 56 12.5907 56 28.0547Z" fill="#FAD1D1"/>
<path fill-rule="evenodd" clip-rule="evenodd" d="M36.4244 38.5028C36.8149 38.8934 37.4481 38.8934 37.8386 38.5028L38.9601 37.3814C39.3506 36.9909 39.3506 36.3577 38.9601 35.9672L30.7592 27.7664L38.5858 19.9398C38.9763 19.5493 38.9763 18.9161 38.5858 18.5256L37.4644 17.4041C37.0738 17.0136 36.4407 17.0136 36.0501 17.4041L28.2236 25.2307L20.089 17.0962C19.6985 16.7056 19.0654 16.7056 18.6748 17.0962L17.5534 18.2176C17.1629 18.6081 17.1629 19.2413 17.5534 19.6318L25.6879 27.7664L17.1791 36.2752C16.7886 36.6657 16.7886 37.2989 17.1791 37.6894L18.3006 38.8108C18.6911 39.2013 19.3243 39.2013 19.7148 38.8108L28.2236 30.302L36.4244 38.5028Z" fill="#E94949"/>
</g>
</g>
<defs>
<clipPath id="clip0_4_40739">
<rect width="56" height="56" fill="white" transform="translate(0 0.0546875)"/>
</clipPath>
<clipPath id="clip1_4_40739">
<rect width="56" height="56" fill="white" transform="translate(0 0.0546875)"/>
</clipPath>
</defs>
</svg>
