<svg width="16" height="16" viewBox="0 0 16 16" fill="none" xmlns="http://www.w3.org/2000/svg">
<path d="M8 14.3331C7.11796 14.3331 6.29168 14.1667 5.52117 13.8338C4.75066 13.5009 4.07929 13.0494 3.50707 12.4793C2.93485 11.9092 2.48506 11.2372 2.15772 10.4633C1.83036 9.68935 1.66669 8.85923 1.66669 7.9729C1.66669 7.09085 1.83036 6.26628 2.15772 5.49919C2.48506 4.7321 2.93485 4.06351 3.50707 3.49342C4.07929 2.92334 4.75066 2.47634 5.52117 2.1524C6.29168 1.82847 7.11796 1.6665 8 1.6665C8.88205 1.6665 9.70833 1.82847 10.4788 2.1524C11.2493 2.47634 11.9207 2.92334 12.4929 3.49342C13.0652 4.06351 13.5149 4.7321 13.8423 5.49919C14.1696 6.26628 14.3333 7.09085 14.3333 7.9729C14.3333 8.85923 14.1696 9.68935 13.8423 10.4633C13.5149 11.2372 13.0652 11.9092 12.4929 12.4793C11.9207 13.0494 11.2493 13.5009 10.4788 13.8338C9.70833 14.1667 8.88205 14.3331 8 14.3331ZM8 13.6101C8.41454 13.1631 8.75557 12.678 9.02309 12.1549C9.29061 11.6319 9.50984 11.019 9.68077 10.3165H6.32949C6.49787 11.0088 6.71582 11.6205 6.98334 12.1517C7.25086 12.6829 7.58975 13.169 8 13.6101ZM6.94234 13.4742C6.63037 13.069 6.35409 12.5975 6.11349 12.0594C5.87289 11.5214 5.68378 10.9404 5.54617 10.3165H2.89232C3.31881 11.178 3.85471 11.8584 4.50002 12.3575C5.14532 12.8567 5.95943 13.2289 6.94234 13.4742ZM9.07434 13.4639C9.94699 13.2682 10.7359 12.8977 11.441 12.3524C12.1462 11.8071 12.7017 11.1284 13.1077 10.3165H10.4641C10.2983 10.9421 10.0978 11.5218 9.8628 12.0556C9.62776 12.5894 9.36494 13.0588 9.07434 13.4639ZM2.64874 9.56009H5.40772C5.36583 9.25581 5.3389 8.97568 5.32694 8.7197C5.31497 8.46372 5.30899 8.21478 5.30899 7.9729C5.30899 7.70367 5.31668 7.44897 5.33207 7.20879C5.34746 6.96862 5.37609 6.70879 5.41797 6.4293H2.64874C2.56668 6.68743 2.50856 6.937 2.47437 7.17802C2.44018 7.41905 2.42309 7.68402 2.42309 7.9729C2.42309 8.26606 2.44018 8.53828 2.47437 8.78957C2.50856 9.04085 2.56668 9.29769 2.64874 9.56009ZM6.18462 9.56009H9.82565C9.87436 9.22419 9.90641 8.93829 9.9218 8.70239C9.93719 8.46649 9.94489 8.22333 9.94489 7.9729C9.94489 7.73358 9.93719 7.50046 9.9218 7.27354C9.90641 7.04662 9.87436 6.7652 9.82565 6.4293H6.18462C6.1359 6.7652 6.10384 7.04662 6.08845 7.27354C6.07308 7.50046 6.06539 7.73358 6.06539 7.9729C6.06539 8.22333 6.07308 8.46649 6.08845 8.70239C6.10384 8.93829 6.1359 9.22419 6.18462 9.56009ZM10.582 9.56009H13.3513C13.4333 9.29769 13.4914 9.04085 13.5256 8.78957C13.5598 8.53828 13.5769 8.26606 13.5769 7.9729C13.5769 7.68402 13.5598 7.41905 13.5256 7.17802C13.4914 6.937 13.4333 6.68743 13.3513 6.4293H10.5987C10.6363 6.79683 10.6628 7.09619 10.6782 7.32739C10.6936 7.55858 10.7013 7.77375 10.7013 7.9729C10.7013 8.22162 10.6919 8.46606 10.6731 8.70624C10.6543 8.9464 10.6239 9.23102 10.582 9.56009ZM10.4538 5.6729H13.1077C12.7154 4.82077 12.172 4.12525 11.4776 3.58635C10.7831 3.04747 9.97648 2.6917 9.05767 2.51905C9.36964 2.93871 9.64208 3.40987 9.87499 3.93252C10.1079 4.45518 10.3008 5.0353 10.4538 5.6729ZM6.32949 5.6729H9.69744C9.54958 5.04556 9.33014 4.45368 9.0391 3.89727C8.74808 3.34086 8.40171 2.84513 8 2.41009C7.62308 2.7571 7.30492 3.18573 7.04552 3.69599C6.78611 4.20624 6.54743 4.86522 6.32949 5.6729ZM2.89232 5.6729H5.55642C5.69574 5.05582 5.87908 4.48872 6.10644 3.97162C6.33379 3.45452 6.60687 2.97375 6.92567 2.5293C6.00686 2.70623 5.20643 3.05965 4.52437 3.58957C3.84231 4.11948 3.2983 4.81393 2.89232 5.6729Z" fill="white"/>
</svg>
