<svg width="25" height="24" viewBox="0 0 25 24" fill="none" xmlns="http://www.w3.org/2000/svg">
<path d="M21.4237 10.937V19.4502C21.4237 19.8514 21.2789 20.1968 20.9894 20.4864C20.6999 20.7759 20.3545 20.9206 19.9532 20.9206H5.02678C4.62551 20.9206 4.2801 20.7759 3.99057 20.4864C3.70106 20.1968 3.5563 19.8514 3.5563 19.4502V10.9174C3.08704 10.5423 2.77268 10.0737 2.61323 9.51165C2.45375 8.9496 2.4642 8.38101 2.64458 7.80588L3.69157 4.45318C3.8275 4.00746 4.05559 3.66696 4.37583 3.43168C4.69607 3.1964 5.07382 3.07877 5.5091 3.07877H19.3787C19.8349 3.07877 20.2316 3.19738 20.5688 3.43461C20.9061 3.67186 21.1394 4.00484 21.2688 4.43356L22.3609 7.80588C22.5413 8.38101 22.5475 8.95286 22.3795 9.52144C22.2115 10.09 21.8929 10.5619 21.4237 10.937ZM14.7771 10.4018C15.3614 10.4018 15.83 10.2273 16.1829 9.8783C16.5358 9.5293 16.6815 9.1352 16.6201 8.69602L15.9437 4.23551H13.0811V8.57836C13.0811 9.06592 13.2435 9.49172 13.5683 9.85574C13.8932 10.2198 14.2961 10.4018 14.7771 10.4018ZM10.0598 10.4018C10.5878 10.4018 11.0306 10.224 11.3881 9.86849C11.7456 9.51296 11.9243 9.08292 11.9243 8.57836V4.23551H9.05197L8.37553 8.73525C8.32065 9.12474 8.45594 9.49987 8.78141 9.86064C9.10688 10.2214 9.533 10.4018 10.0598 10.4018ZM5.45027 10.4018C5.8973 10.4018 6.28421 10.2485 6.61099 9.94202C6.93777 9.6355 7.12991 9.25872 7.18741 8.81168L7.85993 4.23551H5.29148C5.18037 4.23551 5.09049 4.26002 5.02186 4.30904C4.95323 4.35807 4.90584 4.4316 4.87969 4.52965L3.78567 8.07448C3.60266 8.64046 3.67553 9.16984 4.00428 9.66262C4.33302 10.1554 4.81501 10.4018 5.45027 10.4018ZM19.5297 10.4018C20.1192 10.4018 20.594 10.1662 20.9541 9.69496C21.3142 9.22375 21.3995 8.68359 21.21 8.07448L20.1061 4.51002C20.08 4.41199 20.0326 4.34173 19.964 4.29923C19.8954 4.25675 19.8055 4.23551 19.6944 4.23551H17.1357L17.8082 8.81168C17.8723 9.25872 18.0661 9.6355 18.3896 9.94202C18.7131 10.2485 19.0931 10.4018 19.5297 10.4018ZM5.02678 19.7639H19.9532C20.0381 19.7639 20.1117 19.7345 20.1738 19.6757C20.2359 19.6168 20.2669 19.5417 20.2669 19.4502V11.4841C20.2251 11.5141 20.1306 11.534 19.9836 11.5438C19.8365 11.5536 19.6852 11.5586 19.5297 11.5586C19.0983 11.5586 18.6964 11.4661 18.3239 11.2811C17.9514 11.0961 17.588 10.807 17.2338 10.4135C16.9684 10.7599 16.6351 11.0373 16.2339 11.2458C15.8326 11.4543 15.3627 11.5586 14.8241 11.5586C14.3536 11.5586 13.9389 11.4765 13.5801 11.3125C13.2213 11.1484 12.8622 10.8867 12.5027 10.5272C12.2086 10.8658 11.8596 11.1223 11.4557 11.2968C11.0518 11.4713 10.6264 11.5586 10.1794 11.5586C9.69181 11.5586 9.24413 11.47 8.83631 11.2929C8.4285 11.1158 8.08015 10.8227 7.79129 10.4135C7.32464 10.8423 6.89428 11.1403 6.50019 11.3076C6.10609 11.4749 5.75612 11.5586 5.45027 11.5586C5.30517 11.5586 5.16596 11.5536 5.03264 11.5438C4.89932 11.534 4.79279 11.5141 4.71304 11.4841V19.4502C4.71304 19.5417 4.74409 19.6168 4.80618 19.6757C4.86828 19.7345 4.94182 19.7639 5.02678 19.7639Z" fill="#9963F7"/>
</svg>
