<svg width="23" height="12" viewBox="0 0 23 12" fill="none" xmlns="http://www.w3.org/2000/svg">
<path d="M5.87035 1.8V0H22.1666V1.8H5.87035ZM5.87035 6.9V5.1H22.1666V6.9H5.87035ZM5.87035 12V10.2H22.1666V12H5.87035ZM1.7222 1.8C1.48516 1.8 1.27776 1.71 1.09998 1.53C0.922202 1.35 0.833313 1.135 0.833313 0.885C0.833313 0.635 0.922202 0.425 1.09998 0.255C1.27776 0.085 1.4901 0 1.73702 0C1.98393 0 2.19134 0.08625 2.35924 0.25875C2.52714 0.43125 2.61109 0.645 2.61109 0.9C2.61109 1.14 2.52591 1.35 2.35554 1.53C2.18516 1.71 1.97405 1.8 1.7222 1.8ZM1.7222 6.9C1.48516 6.9 1.27776 6.81 1.09998 6.63C0.922202 6.45 0.833313 6.235 0.833313 5.985C0.833313 5.735 0.922202 5.525 1.09998 5.355C1.27776 5.185 1.4901 5.1 1.73702 5.1C1.98393 5.1 2.19134 5.18625 2.35924 5.35875C2.52714 5.53125 2.61109 5.745 2.61109 6C2.61109 6.24 2.52591 6.45 2.35554 6.63C2.18516 6.81 1.97405 6.9 1.7222 6.9ZM1.7222 12C1.48516 12 1.27776 11.91 1.09998 11.73C0.922202 11.55 0.833313 11.335 0.833313 11.085C0.833313 10.835 0.922202 10.625 1.09998 10.455C1.27776 10.285 1.4901 10.2 1.73702 10.2C1.98393 10.2 2.19134 10.2863 2.35924 10.4587C2.52714 10.6312 2.61109 10.845 2.61109 11.1C2.61109 11.34 2.52591 11.55 2.35554 11.73C2.18516 11.91 1.97405 12 1.7222 12Z" fill="#828282"/>
</svg>
