<svg width="25" height="24" viewBox="0 0 25 24" fill="none" xmlns="http://www.w3.org/2000/svg">
<path d="M21.6297 10.937V19.4502C21.6297 19.8514 21.485 20.1968 21.1954 20.4864C20.9059 20.7759 20.5605 20.9206 20.1592 20.9206H5.23283C4.83156 20.9206 4.48616 20.7759 4.19663 20.4864C3.90711 20.1968 3.76235 19.8514 3.76235 19.4502V10.9174C3.29309 10.5423 2.97874 10.0737 2.81928 9.51165C2.65981 8.9496 2.67026 8.38101 2.85063 7.80588L3.89762 4.45318C4.03356 4.00746 4.26165 3.66696 4.58188 3.43168C4.90212 3.1964 5.27988 3.07877 5.71515 3.07877H19.5848C20.041 3.07877 20.4377 3.19738 20.7749 3.43461C21.1121 3.67186 21.3454 4.00484 21.4748 4.43356L22.5669 7.80588C22.7473 8.38101 22.7535 8.95286 22.5855 9.52144C22.4176 10.09 22.099 10.5619 21.6297 10.937ZM14.9831 10.4018C15.5674 10.4018 16.036 10.2273 16.3889 9.8783C16.7418 9.5293 16.8876 9.1352 16.8262 8.69602L16.1497 4.23551H13.2872V8.57836C13.2872 9.06592 13.4496 9.49172 13.7744 9.85574C14.0992 10.2198 14.5021 10.4018 14.9831 10.4018ZM10.2658 10.4018C10.7939 10.4018 11.2367 10.224 11.5942 9.86849C11.9517 9.51296 12.1304 9.08292 12.1304 8.57836V4.23551H9.25803L8.58159 8.73525C8.5267 9.12474 8.66199 9.49987 8.98747 9.86064C9.31294 10.2214 9.73905 10.4018 10.2658 10.4018ZM5.65633 10.4018C6.10336 10.4018 6.49027 10.2485 6.81705 9.94202C7.14382 9.6355 7.33597 9.25872 7.39347 8.81168L8.06598 4.23551H5.49753C5.38642 4.23551 5.29655 4.26002 5.22792 4.30904C5.15928 4.35807 5.11189 4.4316 5.08574 4.52965L3.99172 8.07448C3.80872 8.64046 3.88159 9.16984 4.21034 9.66262C4.53907 10.1554 5.02107 10.4018 5.65633 10.4018ZM19.7358 10.4018C20.3253 10.4018 20.8001 10.1662 21.1602 9.69496C21.5203 9.22375 21.6056 8.68359 21.4161 8.07448L20.3122 4.51002C20.2861 4.41199 20.2387 4.34173 20.17 4.29923C20.1014 4.25675 20.0115 4.23551 19.9004 4.23551H17.3418L18.0143 8.81168C18.0783 9.25872 18.2721 9.6355 18.5956 9.94202C18.9191 10.2485 19.2992 10.4018 19.7358 10.4018ZM5.23283 19.7639H20.1592C20.2442 19.7639 20.3177 19.7345 20.3798 19.6757C20.4419 19.6168 20.473 19.5417 20.473 19.4502V11.4841C20.4311 11.5141 20.3367 11.534 20.1896 11.5438C20.0426 11.5536 19.8913 11.5586 19.7358 11.5586C19.3044 11.5586 18.9025 11.4661 18.5299 11.2811C18.1574 11.0961 17.794 10.807 17.4398 10.4135C17.1745 10.7599 16.8412 11.0373 16.4399 11.2458C16.0386 11.4543 15.5687 11.5586 15.0302 11.5586C14.5596 11.5586 14.145 11.4765 13.7862 11.3125C13.4274 11.1484 13.0682 10.8867 12.7088 10.5272C12.4147 10.8658 12.0657 11.1223 11.6618 11.2968C11.2579 11.4713 10.8324 11.5586 10.3854 11.5586C9.89786 11.5586 9.45018 11.47 9.04237 11.2929C8.63455 11.1158 8.28621 10.8227 7.99734 10.4135C7.5307 10.8423 7.10033 11.1403 6.70625 11.3076C6.31214 11.4749 5.96217 11.5586 5.65633 11.5586C5.51123 11.5586 5.37202 11.5536 5.2387 11.5438C5.10538 11.534 4.99884 11.5141 4.9191 11.4841V19.4502C4.9191 19.5417 4.95014 19.6168 5.01223 19.6757C5.07434 19.7345 5.14787 19.7639 5.23283 19.7639Z" fill="#828282"/>
</svg>
