<svg width="56" height="57" viewBox="0 0 56 57" fill="none" xmlns="http://www.w3.org/2000/svg">
<g clip-path="url(#clip0_4_40386)">
<path d="M4.78098 44.8109L23.7837 6.9661C25.6431 3.26292 30.9416 3.29899 32.7505 7.02715L51.1124 44.8719C52.7235 48.1926 50.3048 52.0545 46.6139 52.0545H9.24932C5.5287 52.0545 3.11142 48.1359 4.78098 44.8109Z" fill="#FAECD7"/>
<path fill-rule="evenodd" clip-rule="evenodd" d="M29.9707 34.4921C29.9707 35.5967 29.0753 36.4921 27.9707 36.4921C26.8661 36.4921 25.9707 35.5967 25.9707 34.4921V21.9766C25.9707 20.872 26.8661 19.9766 27.9707 19.9766C29.0753 19.9766 29.9707 20.872 29.9707 21.9766L29.9707 34.4921ZM27.9707 38.1332C29.0753 38.1332 29.9707 39.0286 29.9707 40.1332C29.9707 41.2377 29.0753 42.1332 27.9707 42.1332C26.8661 42.1332 25.9707 41.2377 25.9707 40.1332C25.9707 39.0286 26.8661 38.1332 27.9707 38.1332Z" fill="#F8A424"/>
</g>
<defs>
<clipPath id="clip0_4_40386">
<rect width="48" height="48" fill="white" transform="translate(4 4.05469)"/>
</clipPath>
</defs>
</svg>
