<svg width="25" height="24" viewBox="0 0 25 24" fill="none" xmlns="http://www.w3.org/2000/svg">
<path d="M12.0439 20.8176V19.5949H20.3128C20.4095 19.5949 20.489 19.5638 20.5511 19.5016C20.6133 19.4394 20.6444 19.36 20.6444 19.2633V11.0937C20.6444 10.052 20.4268 9.05756 19.9916 8.11046C19.5564 7.16337 18.972 6.32853 18.2383 5.60594C17.5047 4.88335 16.6598 4.30721 15.7038 3.87753C14.7477 3.44784 13.7488 3.233 12.707 3.233C11.6653 3.233 10.6664 3.44784 9.71028 3.87753C8.75421 4.30721 7.90936 4.88335 7.17572 5.60594C6.44206 6.32853 5.85764 7.16337 5.42244 8.11046C4.98723 9.05756 4.76962 10.052 4.76962 11.0937V17.626H4.35515C3.83151 17.626 3.38629 17.4426 3.01947 17.0758C2.65265 16.709 2.46924 16.2638 2.46924 15.7401V13.5848C2.46924 13.227 2.56802 12.903 2.7656 12.6129C2.96317 12.3227 3.2236 12.0789 3.5469 11.8813L3.59666 10.4637C3.69613 9.22167 4.00837 8.08114 4.53337 7.04217C5.05839 6.00319 5.734 5.11204 6.56021 4.36873C7.3864 3.62543 8.32728 3.0448 9.38286 2.62684C10.4384 2.20891 11.5465 1.99994 12.707 1.99994C13.8786 1.99994 14.9922 2.20718 16.0478 2.62167C17.1033 3.03616 18.0414 3.61782 18.8621 4.36665C19.6828 5.1155 20.3556 6.00665 20.8807 7.04009C21.4057 8.07354 21.7179 9.20922 21.8174 10.4472L21.8671 11.8378C22.1904 11.9994 22.4509 12.2219 22.6484 12.5051C22.846 12.7883 22.9448 13.0943 22.9448 13.4231V15.9018C22.9448 16.2417 22.846 16.5504 22.6484 16.8282C22.4509 17.1059 22.1904 17.3255 21.8671 17.4872V19.2633C21.8671 19.6871 21.714 20.0521 21.4078 20.3583C21.1016 20.6645 20.7366 20.8176 20.3128 20.8176H12.0439ZM9.68129 13.16C9.47957 13.16 9.30306 13.0843 9.15178 12.933C9.00049 12.7817 8.92485 12.6007 8.92485 12.39C8.92485 12.1863 9.00049 12.0115 9.15178 11.8657C9.30306 11.72 9.48406 11.6471 9.69476 11.6471C9.89855 11.6471 10.0733 11.7211 10.2191 11.8691C10.3648 12.0171 10.4377 12.1952 10.4377 12.4035C10.4377 12.6052 10.3637 12.7817 10.2157 12.933C10.0677 13.0843 9.88956 13.16 9.68129 13.16ZM15.7327 13.16C15.531 13.16 15.3545 13.0843 15.2032 12.933C15.052 12.7817 14.9763 12.6007 14.9763 12.39C14.9763 12.1863 15.052 12.0115 15.2032 11.8657C15.3545 11.72 15.5355 11.6471 15.7462 11.6471C15.95 11.6471 16.1248 11.7211 16.2706 11.8691C16.4163 12.0171 16.4892 12.1952 16.4892 12.4035C16.4892 12.6052 16.4152 12.7817 16.2672 12.933C16.1192 13.0843 15.941 13.16 15.7327 13.16ZM6.64104 11.6139C6.57611 10.6164 6.71566 9.71072 7.05968 8.89696C7.40369 8.08318 7.86825 7.39272 8.45337 6.82558C9.03849 6.25843 9.71099 5.82183 10.4709 5.51579C11.2308 5.20977 11.9941 5.05676 12.7609 5.05676C14.2986 5.05676 15.6001 5.54378 16.6653 6.51783C17.7306 7.49186 18.382 8.70629 18.6196 10.1611C17.028 10.1432 15.6195 9.71557 14.394 8.87832C13.1685 8.04104 12.2262 6.9544 11.5672 5.61838C11.2936 6.99032 10.7203 8.20476 9.84709 9.2617C8.97389 10.3186 7.90521 11.1027 6.64104 11.6139Z" fill="#828282"/>
<rect x="8.69629" y="19.0666" width="4.01367" height="2.28589" rx="1" fill="#828282"/>
</svg>
