<svg width="24" height="25" viewBox="0 0 24 25" fill="none" xmlns="http://www.w3.org/2000/svg">
<path d="M4.28722 21.6645C3.92586 21.6645 3.60967 21.529 3.33866 21.2579C3.06764 20.9869 2.93213 20.6707 2.93213 20.3094V8.11357H8.35249V5.85509C8.35249 5.49373 8.488 5.17755 8.75902 4.90653C9.03004 4.63551 9.34622 4.5 9.70758 4.5H14.2245C14.5859 4.5 14.9021 4.63551 15.1731 4.90653C15.4441 5.17755 15.5796 5.49373 15.5796 5.85509V8.11357H21V20.3094C21 20.6707 20.8645 20.9869 20.5935 21.2579C20.3225 21.529 20.0063 21.6645 19.6449 21.6645H4.28722ZM4.28722 20.3094H19.6449V9.46866H4.28722V20.3094ZM9.70758 8.11357H14.2245V5.85509H9.70758V8.11357Z" fill="#464646"/>
</svg>
