<svg width="25" height="24" viewBox="0 0 25 24" fill="none" xmlns="http://www.w3.org/2000/svg">
<path d="M11.5439 20.8176V19.5949H19.8128C19.9095 19.5949 19.989 19.5638 20.0511 19.5016C20.1133 19.4394 20.1444 19.36 20.1444 19.2633V11.0937C20.1444 10.052 19.9268 9.05756 19.4916 8.11046C19.0564 7.16337 18.472 6.32853 17.7383 5.60594C17.0047 4.88335 16.1598 4.30721 15.2038 3.87753C14.2477 3.44784 13.2488 3.233 12.207 3.233C11.1653 3.233 10.1664 3.44784 9.21028 3.87753C8.25421 4.30721 7.40936 4.88335 6.67572 5.60594C5.94206 6.32853 5.35764 7.16337 4.92244 8.11046C4.48723 9.05756 4.26962 10.052 4.26962 11.0937V17.626H3.85515C3.33151 17.626 2.88629 17.4426 2.51947 17.0758C2.15265 16.709 1.96924 16.2638 1.96924 15.7401V13.5848C1.96924 13.227 2.06802 12.903 2.2656 12.6129C2.46317 12.3227 2.7236 12.0789 3.0469 11.8813L3.09666 10.4637C3.19613 9.22167 3.50837 8.08114 4.03337 7.04217C4.55839 6.00319 5.234 5.11204 6.06021 4.36873C6.8864 3.62543 7.82728 3.0448 8.88286 2.62684C9.93841 2.20891 11.0465 1.99994 12.207 1.99994C13.3786 1.99994 14.4922 2.20718 15.5478 2.62167C16.6033 3.03616 17.5414 3.61782 18.3621 4.36665C19.1828 5.1155 19.8556 6.00665 20.3807 7.04009C20.9057 8.07354 21.2179 9.20922 21.3174 10.4472L21.3671 11.8378C21.6904 11.9994 21.9509 12.2219 22.1484 12.5051C22.346 12.7883 22.4448 13.0943 22.4448 13.4231V15.9018C22.4448 16.2417 22.346 16.5504 22.1484 16.8282C21.9509 17.1059 21.6904 17.3255 21.3671 17.4872V19.2633C21.3671 19.6871 21.214 20.0521 20.9078 20.3583C20.6016 20.6645 20.2366 20.8176 19.8128 20.8176H11.5439ZM9.18129 13.16C8.97957 13.16 8.80306 13.0843 8.65178 12.933C8.50049 12.7817 8.42485 12.6007 8.42485 12.39C8.42485 12.1863 8.50049 12.0115 8.65178 11.8657C8.80306 11.72 8.98406 11.6471 9.19476 11.6471C9.39855 11.6471 9.57332 11.7211 9.71907 11.8691C9.86484 12.0171 9.93773 12.1952 9.93773 12.4035C9.93773 12.6052 9.86372 12.7817 9.7157 12.933C9.5677 13.0843 9.38956 13.16 9.18129 13.16ZM15.2327 13.16C15.031 13.16 14.8545 13.0843 14.7032 12.933C14.552 12.7817 14.4763 12.6007 14.4763 12.39C14.4763 12.1863 14.552 12.0115 14.7032 11.8657C14.8545 11.72 15.0355 11.6471 15.2462 11.6471C15.45 11.6471 15.6248 11.7211 15.7706 11.8691C15.9163 12.0171 15.9892 12.1952 15.9892 12.4035C15.9892 12.6052 15.9152 12.7817 15.7672 12.933C15.6192 13.0843 15.441 13.16 15.2327 13.16ZM6.14104 11.6139C6.07611 10.6164 6.21566 9.71072 6.55968 8.89696C6.90369 8.08318 7.36825 7.39272 7.95337 6.82558C8.53849 6.25843 9.21099 5.82183 9.97087 5.51579C10.7308 5.20977 11.4941 5.05676 12.2609 5.05676C13.7986 5.05676 15.1001 5.54378 16.1653 6.51783C17.2306 7.49186 17.882 8.70629 18.1196 10.1611C16.528 10.1432 15.1195 9.71557 13.894 8.87832C12.6685 8.04104 11.7262 6.9544 11.0672 5.61838C10.7936 6.99032 10.2203 8.20476 9.34709 9.2617C8.47389 10.3186 7.40521 11.1027 6.14104 11.6139Z" fill="#4F63E3"/>
<rect x="8.19629" y="19.0666" width="4.01367" height="2.28589" rx="1" fill="#4F63E3"/>
</svg>
