<svg width="25" height="24" viewBox="0 0 25 24" fill="none" xmlns="http://www.w3.org/2000/svg">
<path d="M5.97467 17.9716C7.02595 17.2469 8.07183 16.6852 9.11231 16.2864C10.1528 15.8876 11.2824 15.6882 12.501 15.6882C13.7196 15.6882 14.8519 15.8876 15.8977 16.2864C16.9436 16.6852 17.9922 17.2469 19.0435 17.9716C19.8087 17.085 20.3772 16.1488 20.7489 15.1631C21.1208 14.1773 21.3067 13.1229 21.3067 11.9999C21.3067 9.51681 20.4598 7.42841 18.7662 5.73474C17.0725 4.04108 14.9841 3.19426 12.501 3.19426C10.0178 3.19426 7.92945 4.04108 6.23578 5.73474C4.54212 7.42841 3.6953 9.51681 3.6953 11.9999C3.6953 13.1229 3.88389 14.1773 4.26109 15.1631C4.63828 16.1488 5.20947 17.085 5.97467 17.9716ZM12.4953 12.5971C11.549 12.5971 10.753 12.2723 10.1073 11.6228C9.4615 10.9732 9.13862 10.1753 9.13862 9.22904C9.13862 8.28279 9.46341 7.48679 10.113 6.84103C10.7625 6.19529 11.5604 5.87242 12.5067 5.87242C13.453 5.87242 14.249 6.1972 14.8947 6.84674C15.5404 7.49629 15.8633 8.29419 15.8633 9.24046C15.8633 10.1867 15.5385 10.9827 14.889 11.6285C14.2394 12.2742 13.4415 12.5971 12.4953 12.5971ZM12.5133 21.9999C11.1272 21.9999 9.82685 21.7388 8.61218 21.2165C7.39752 20.6943 6.33646 19.9787 5.42898 19.0698C4.52153 18.1609 3.80666 17.1018 3.2844 15.8927C2.76212 14.6836 2.50098 13.3854 2.50098 11.998C2.50098 10.6106 2.76212 9.31303 3.2844 8.10522C3.80666 6.89739 4.52224 5.83902 5.43114 4.9301C6.34006 4.02121 7.39907 3.30563 8.60818 2.78336C9.8173 2.26108 11.1156 1.99994 12.5029 1.99994C13.8903 1.99994 15.1879 2.26108 16.3957 2.78336C17.6035 3.30563 18.6619 4.02121 19.5708 4.9301C20.4797 5.83902 21.1953 6.89767 21.7176 8.10606C22.2398 9.31445 22.501 10.6083 22.501 11.9876C22.501 13.3737 22.2398 14.6741 21.7176 15.8887C21.1953 17.1034 20.4797 18.1645 19.5708 19.0719C18.6619 19.9794 17.6032 20.6943 16.3949 21.2165C15.1865 21.7388 13.8926 21.9999 12.5133 21.9999ZM12.501 20.8056C13.4794 20.8056 14.4443 20.6501 15.3957 20.339C16.3471 20.0279 17.2432 19.5249 18.084 18.8299C17.2432 18.2118 16.3529 17.7327 15.4129 17.3926C14.473 17.0526 13.5023 16.8825 12.501 16.8825C11.4996 16.8825 10.5273 17.0509 9.58397 17.3876C8.64063 17.7243 7.75534 18.2051 6.92809 18.8299C7.76209 19.5249 8.65481 20.0279 9.60623 20.339C10.5577 20.6501 11.5226 20.8056 12.501 20.8056ZM12.5024 11.4028C13.1317 11.4028 13.6501 11.1985 14.0577 10.79C14.4652 10.3815 14.669 9.86264 14.669 9.23335C14.669 8.60405 14.4648 8.08562 14.0562 7.67806C13.6477 7.2705 13.1289 7.06672 12.4996 7.06672C11.8703 7.06672 11.3519 7.27097 10.9443 7.67948C10.5367 8.08797 10.3329 8.60687 10.3329 9.23617C10.3329 9.86545 10.5372 10.3839 10.9457 10.7914C11.3542 11.199 11.8731 11.4028 12.5024 11.4028Z" fill="#9963F7"/>
</svg>
