<svg width="25" height="24" viewBox="0 0 25 24" fill="none" xmlns="http://www.w3.org/2000/svg">
<path d="M5.68072 17.9716C6.73201 17.2469 7.77789 16.6852 8.81836 16.2864C9.85886 15.8876 10.9884 15.6882 12.207 15.6882C13.4256 15.6882 14.5579 15.8876 15.6038 16.2864C16.6497 16.6852 17.6983 17.2469 18.7495 17.9716C19.5147 17.085 20.0832 16.1488 20.455 15.1631C20.8268 14.1773 21.0127 13.1229 21.0127 11.9999C21.0127 9.51681 20.1659 7.42841 18.4722 5.73474C16.7786 4.04108 14.6902 3.19426 12.207 3.19426C9.7239 3.19426 7.6355 4.04108 5.94183 5.73474C4.24818 7.42841 3.40135 9.51681 3.40135 11.9999C3.40135 13.1229 3.58995 14.1773 3.96714 15.1631C4.34433 16.1488 4.91553 17.085 5.68072 17.9716ZM12.2013 12.5971C11.2551 12.5971 10.4591 12.2723 9.81331 11.6228C9.16756 10.9732 8.84468 10.1753 8.84468 9.22904C8.84468 8.28279 9.16946 7.48679 9.81902 6.84103C10.4686 6.19529 11.2665 5.87242 12.2127 5.87242C13.159 5.87242 13.955 6.1972 14.6007 6.84674C15.2465 7.49629 15.5694 8.29419 15.5694 9.24046C15.5694 10.1867 15.2446 10.9827 14.595 11.6285C13.9455 12.2742 13.1476 12.5971 12.2013 12.5971ZM12.2193 21.9999C10.8333 21.9999 9.5329 21.7388 8.31823 21.2165C7.10358 20.6943 6.04251 19.9787 5.13504 19.0698C4.22758 18.1609 3.51272 17.1018 2.99045 15.8927C2.46817 14.6836 2.20703 13.3854 2.20703 11.998C2.20703 10.6106 2.46817 9.31303 2.99045 8.10522C3.51272 6.89739 4.2283 5.83902 5.1372 4.9301C6.04611 4.02121 7.10512 3.30563 8.31423 2.78336C9.52336 2.26108 10.8216 1.99994 12.209 1.99994C13.5963 1.99994 14.8939 2.26108 16.1018 2.78336C17.3096 3.30563 18.368 4.02121 19.2769 4.9301C20.1858 5.83902 20.9013 6.89767 21.4236 8.10606C21.9459 9.31445 22.207 10.6083 22.207 11.9876C22.207 13.3737 21.9459 14.6741 21.4236 15.8887C20.9013 17.1034 20.1858 18.1645 19.2769 19.0719C18.368 19.9794 17.3093 20.6943 16.1009 21.2165C14.8925 21.7388 13.5987 21.9999 12.2193 21.9999ZM12.207 20.8056C13.1854 20.8056 14.1504 20.6501 15.1018 20.339C16.0532 20.0279 16.9493 19.5249 17.79 18.8299C16.9493 18.2118 16.0589 17.7327 15.119 17.3926C14.179 17.0526 13.2084 16.8825 12.207 16.8825C11.2057 16.8825 10.2333 17.0509 9.29002 17.3876C8.34669 17.7243 7.4614 18.2051 6.63415 18.8299C7.46815 19.5249 8.36086 20.0279 9.31229 20.339C10.2637 20.6501 11.2286 20.8056 12.207 20.8056ZM12.2085 11.4028C12.8377 11.4028 13.3562 11.1985 13.7637 10.79C14.1713 10.3815 14.3751 9.86264 14.3751 9.23335C14.3751 8.60405 14.1708 8.08562 13.7623 7.67806C13.3538 7.2705 12.8349 7.06672 12.2056 7.06672C11.5763 7.06672 11.0579 7.27097 10.6503 7.67948C10.2428 8.08797 10.039 8.60687 10.039 9.23617C10.039 9.86545 10.2433 10.3839 10.6518 10.7914C11.0603 11.199 11.5792 11.4028 12.2085 11.4028Z" fill="#4F63E3"/>
</svg>
