<svg width="25" height="24" viewBox="0 0 25 24" fill="none" xmlns="http://www.w3.org/2000/svg">
<path d="M4.50098 20.8177V3.18167L5.80415 4.33783L7.14351 3.18167L8.48285 4.33783L9.82221 3.18167L11.1616 4.33783L12.5009 3.18167L13.8403 4.33783L15.1796 3.18167L16.519 4.33783L17.8583 3.18167L19.1977 4.33783L20.5009 3.18167V20.8177L19.1977 19.6615L17.8583 20.8177L16.519 19.6615L15.1796 20.8177L13.8403 19.6615L12.5009 20.8177L11.1616 19.6615L9.82221 20.8177L8.48285 19.6615L7.14351 20.8177L5.80415 19.6615L4.50098 20.8177ZM7.03671 15.9037H18.0321V14.8359H7.03671V15.9037ZM7.03671 12.5336H18.0321V11.4658H7.03671V12.5336ZM7.03671 9.13998H18.0321V8.07213H7.03671V9.13998ZM5.56883 18.9209H19.433V5.07844H5.56883V18.9209Z" fill="#9963F7"/>
</svg>
