<svg width="20" height="20" viewBox="0 0 20 20" fill="none" xmlns="http://www.w3.org/2000/svg">
<path d="M17.0711 17.0711C20.9763 13.1658 20.9763 6.83418 17.0711 2.92893C13.1658 -0.976311 6.83418 -0.97631 2.92893 2.92893C-0.976308 6.83418 -0.976313 13.1658 2.92893 17.0711C6.83417 20.9763 13.1658 20.9763 17.0711 17.0711Z" fill="#828282"/>
<path d="M18.0387 15.9476C16.676 13.6163 14.1486 12.0489 11.2532 12.0489H8.93027C5.97843 12.0489 3.40809 13.6773 2.0658 16.0851C3.89375 18.4645 6.76633 19.9999 9.99884 19.9999C13.2948 19.9999 16.2167 18.4059 18.0387 15.9476Z" fill="white"/>
<path d="M13.1082 10.221C14.8249 8.50443 14.8249 5.72125 13.1082 4.00463C11.3916 2.28802 8.60844 2.28802 6.89183 4.00463C5.17521 5.72125 5.17521 8.50444 6.89183 10.2211C8.60844 11.9377 11.3916 11.9377 13.1082 10.221Z" fill="white"/>
</svg>
