<svg width="200" height="200" viewBox="0 0 200 200" fill="none" xmlns="http://www.w3.org/2000/svg">
<path d="M149.153 55.7168H25.5283V57.8959H149.153V55.7168Z" fill="#0B0E11"/>
<path d="M15.5405 163.14H13.3662V63.3066C13.3662 59.0936 16.787 55.665 20.9906 55.665H27.1293V57.8442H20.9906C17.9829 57.8442 15.5405 60.2921 15.5405 63.3066V163.14Z" fill="#0B0E11"/>
<path d="M25.0424 163.14H22.8682V68.5368C22.8682 67.5707 23.6509 66.7862 24.6148 66.7862L153.742 66.6484L152.299 68.9653H25.0424V163.14Z" fill="#0B0E11"/>
<path d="M185.546 173.753H14.4538C11.2359 173.753 8.6123 171.131 8.6123 167.899V162.044H87.7698L88.0597 162.669C88.8497 164.354 90.3064 164.986 91.4298 165.218H107.063C108.07 164.964 109.723 163.446 110.607 162.422L110.933 162.044H111.433H191.388V167.899C191.388 171.124 188.771 173.753 185.546 173.753ZM100.236 171.574H185.546C187.568 171.574 189.213 169.925 189.213 167.899V164.223H111.919C111.121 165.087 109.143 167.049 107.382 167.383L107.179 167.405L91.1254 167.383C89.0671 166.991 87.4219 165.879 86.429 164.223H10.7866V167.899C10.7866 169.925 12.4318 171.574 14.4538 171.574H100.236Z" fill="#0B0E11"/>
<path d="M183.088 163.176H185.263V63.3427C185.263 59.1297 181.842 55.7012 177.638 55.7012H137.574L138.451 57.8803H177.638C180.646 57.8803 183.088 60.3282 183.088 63.3427V163.176Z" fill="#0B0E11"/>
<path d="M174.08 163.054H176.254V68.4498C176.254 67.4837 175.472 66.6992 174.508 66.6992L140.849 66.6611L141.152 68.9618L174.087 68.8783V163.054H174.08Z" fill="#0B0E11"/>
<path d="M91.9844 138.363L88.2441 146.537H91.8867V143.578H93.3418V146.537H95.3828V147.855H93.3418V150.639H91.8867V147.855H86.1055V147.777L90.4414 138.363H91.9844ZM101.242 150.814C99.8815 150.814 98.7747 150.229 97.9219 149.057C97.082 147.872 96.6621 146.352 96.6621 144.496C96.6621 142.641 97.082 141.12 97.9219 139.936C98.7747 138.764 99.8815 138.178 101.242 138.178C102.609 138.178 103.71 138.764 104.543 139.936C105.396 141.107 105.822 142.628 105.822 144.496C105.822 146.365 105.396 147.885 104.543 149.057C103.71 150.229 102.609 150.814 101.242 150.814ZM101.242 139.604C100.233 139.604 99.4714 140.062 98.957 140.98C98.4557 141.905 98.2051 143.077 98.2051 144.496C98.2051 145.922 98.4557 147.097 98.957 148.021C99.4714 148.939 100.233 149.398 101.242 149.398C102.225 149.398 102.977 148.939 103.498 148.021C104.019 147.097 104.279 145.922 104.279 144.496C104.279 143.077 104.019 141.905 103.498 140.98C102.977 140.062 102.225 139.604 101.242 139.604ZM107.229 139.76V138.363H114.484V138.422L111.408 143.295C112.339 143.432 113.101 143.822 113.693 144.467C114.286 145.111 114.582 145.922 114.582 146.898C114.582 148.109 114.175 149.063 113.361 149.76C112.541 150.463 111.581 150.814 110.48 150.814C109.172 150.814 108.059 150.476 107.141 149.799V148.139C108.039 149.018 109.12 149.457 110.383 149.457C111.203 149.457 111.867 149.232 112.375 148.783C112.889 148.334 113.146 147.712 113.146 146.918C113.146 146.013 112.779 145.333 112.043 144.877C111.333 144.428 110.435 144.223 109.348 144.262V144.203L112.16 139.76H107.229Z" fill="black"/>
<rect x="27.7812" y="70.5742" width="144.232" height="89.5742" rx="4" fill="#A7B1F1"/>
<path d="M140.95 98.125L129.549 109.526" stroke="black" stroke-width="2" stroke-linecap="round"/>
<path d="M129.549 98.125L140.95 109.526" stroke="black" stroke-width="2" stroke-linecap="round"/>
<path d="M70.451 98.125L59.0498 109.526" stroke="black" stroke-width="2" stroke-linecap="round"/>
<path d="M59.05 98.125L70.4512 109.526" stroke="black" stroke-width="2" stroke-linecap="round"/>
<path d="M126.024 133.307C123.607 129.797 120.833 125.858 120.833 125.858L115.867 133.307L110.203 125.858L105.167 133.307L99.8174 125.858L94.7471 133.307L89.5021 125.858L84.257 133.307L78.9071 125.858L73.9766 133.307" stroke="black" stroke-width="2" stroke-linecap="round" stroke-linejoin="round"/>
<path d="M92.5345 58.2132L93.1336 58.0555L91.2835 44.4951L91.0392 44.4403C89.2611 44.0422 87.6108 43.1944 86.2658 41.9859L85.784 42.518C87.1601 43.7531 88.8346 44.6357 90.6386 45.0838L92.5345 58.2132Z" fill="black"/>
<path d="M85.5961 42.7221L86.184 42.0608L85.5711 42.6984L85.5961 42.7221ZM84.7011 41.8433L85.3509 41.2441C85.0917 40.9659 84.8421 40.6718 84.6112 40.3759L83.9111 40.9156C84.1584 41.2333 84.4249 41.5463 84.7011 41.8433ZM83.2055 39.9224L83.9518 39.4473C83.7439 39.1294 83.5515 38.7969 83.3748 38.4618L82.5887 38.8707C82.7789 39.2269 82.9848 39.5805 83.2055 39.9224ZM82.0677 37.7711L82.8865 37.4329C82.7374 37.0829 82.6053 36.7247 82.489 36.364L81.6439 36.63C81.7673 37.0134 81.9087 37.3978 82.0677 37.7711ZM81.3247 35.455L82.1896 35.2628C82.1054 34.8941 82.0381 34.5173 81.9889 34.1414L81.1076 34.2576C81.1604 34.6584 81.234 35.0608 81.3247 35.455ZM80.9999 33.0456L81.8876 33.0092C81.8691 32.6312 81.8699 32.2484 81.8874 31.8724L80.9991 31.8303C80.9816 32.2334 80.9808 32.6433 80.9999 33.0456ZM81.1068 30.6182L81.987 30.737C82.0375 30.3623 82.1038 29.9852 82.1861 29.6177L81.3197 29.4237C81.231 29.8199 81.1596 30.22 81.1061 30.6211L81.1068 30.6182Z" fill="black"/>
<path d="M81.3192 29.424L82.1856 29.618C83.7164 22.7819 90.345 18.4532 97.2756 19.764L97.6774 19.8389L97.7857 19.4501C98.2317 17.8645 98.9264 16.3739 99.8544 15.0199L99.12 14.5207C98.2142 15.8435 97.5169 17.2914 97.043 18.8255C89.7831 17.658 82.9259 22.2491 81.3198 29.4211L81.3192 29.424Z" fill="black"/>
<path d="M99.8544 15.0199C99.994 14.816 100.139 14.6163 100.289 14.4207L99.5801 13.8882C99.4212 14.0968 99.2709 14.3074 99.1222 14.5243L99.8566 15.0235L99.8544 15.0199ZM101.015 13.5341C101.267 13.2498 101.535 12.9722 101.807 12.7074L101.187 12.0742C100.9 12.3537 100.616 12.6488 100.348 12.9506L101.014 13.537L101.015 13.5341ZM102.66 11.9428C102.951 11.7004 103.259 11.4647 103.569 11.2447L103.051 10.5256C102.722 10.7596 102.399 11.0099 102.09 11.2663L102.66 11.9428ZM125.553 15.9355L126.319 15.4921C126.115 15.1449 125.894 14.803 125.665 14.4713L124.935 14.971C125.152 15.2851 125.362 15.6094 125.553 15.9355ZM104.529 10.6154C104.854 10.42 105.19 10.233 105.533 10.0593L105.13 9.2726C104.77 9.45448 104.414 9.65201 104.067 9.86074L104.529 10.6154ZM124.245 14.0538L124.936 13.5001C124.682 13.1868 124.414 12.8825 124.137 12.5883L123.492 13.1917C123.754 13.4705 124.008 13.7595 124.248 14.0545L124.245 14.0538ZM106.575 9.57809C106.925 9.43353 107.289 9.29795 107.649 9.1796L107.37 8.34213C106.987 8.46744 106.603 8.61063 106.232 8.76566L106.574 9.58096L106.575 9.57809ZM122.669 12.3862L123.266 11.7361C122.969 11.4645 122.655 11.2012 122.338 10.9523L121.791 11.6469C122.093 11.8834 122.389 12.1306 122.669 12.3862ZM108.755 8.86037C109.124 8.76822 109.503 8.69014 109.881 8.62706L109.73 7.75517C109.333 7.82298 108.933 7.90514 108.541 8.00138L108.756 8.8575L108.755 8.86037ZM120.859 10.9739L121.351 10.2398C121.016 10.017 120.666 9.80307 120.313 9.60638L119.88 10.3748C120.211 10.5605 120.543 10.7613 120.859 10.9739ZM111.018 8.48062C111.399 8.44532 111.785 8.42632 112.165 8.42103L112.151 7.53739C111.746 7.54325 111.338 7.56347 110.936 7.59998L111.018 8.48062ZM118.856 9.8531L119.23 9.05326C118.864 8.88398 118.488 8.72425 118.11 8.58239L117.798 9.40794C118.156 9.5424 118.513 9.69187 118.856 9.8531ZM113.314 8.44923C113.694 8.47394 114.077 8.51143 114.457 8.56327L114.577 7.68865C114.173 7.6345 113.767 7.59183 113.366 7.56834L113.314 8.44923ZM116.705 9.04568L116.955 8.20016C116.617 8.10023 116.273 8.01114 115.926 7.93353L115.776 7.8999L115.589 8.76252L115.733 8.79486C116.059 8.86794 116.386 8.95315 116.705 9.04568Z" fill="black"/>
<path d="M117.268 49.4894C123.613 50.9103 129.927 46.9331 131.339 40.6253C132.291 36.3732 130.823 32.0161 127.504 29.1745C127.786 28.4296 127.994 27.7436 128.142 27.0832C129.031 23.1154 128.382 18.9991 126.314 15.4907L125.547 15.9342C127.5 19.251 128.116 23.1396 127.276 26.8892C127.119 27.5898 126.886 28.3306 126.561 29.1472L126.443 29.4463L126.694 29.6504C129.926 32.2705 131.375 36.4031 130.473 40.4313C129.166 46.2654 123.33 49.9422 117.461 48.6281C112.708 47.5636 109.209 43.4395 108.953 38.5972L108.067 38.6428C108.344 43.8788 112.131 48.3389 117.268 49.4894Z" fill="black"/>
<path d="M109.823 44.3435L110.487 44.626L105.323 56.7034L104.658 56.4209L109.823 44.3435Z" fill="black"/>
<path d="M102.409 45.4981L103.105 45.6885L100.577 54.9182L99.8808 54.7278L102.409 45.4981Z" fill="black"/>
<path d="M97.4607 39.8389C96.3898 41.6593 94.3284 45.206 91.1416 44.7948" stroke="black" stroke-width="0.7" stroke-linecap="square" stroke-linejoin="round"/>
<path d="M95.2979 28.4248C96.5153 28.4248 97.5374 28.7699 98.3643 29.46C99.2041 30.1436 99.624 31.1038 99.624 32.3408C99.624 33.5908 99.1976 34.5641 98.3447 35.2607C97.5179 35.9508 96.4762 36.2959 95.2197 36.2959C94.0023 36.2959 92.9508 35.9704 92.0654 35.3193V33.6201C92.9639 34.499 93.9958 34.9385 95.1611 34.9385C95.9945 34.9385 96.6943 34.7139 97.2607 34.2646C97.8597 33.8024 98.1592 33.1611 98.1592 32.3408C98.1592 31.5465 97.8597 30.9183 97.2607 30.4561C96.6813 29.9938 95.9749 29.7627 95.1416 29.7627C94.6273 29.7627 94.1846 29.8083 93.8135 29.8994C93.4489 29.9906 93.0257 30.137 92.5439 30.3389V23.8447H98.9795V25.2412H93.8428V28.6201C94.1683 28.4899 94.6533 28.4248 95.2979 28.4248ZM105.688 36.2959C104.328 36.2959 103.221 35.71 102.368 34.5381C101.528 33.3532 101.108 31.833 101.108 29.9775C101.108 28.1221 101.528 26.6019 102.368 25.417C103.221 24.2451 104.328 23.6592 105.688 23.6592C107.056 23.6592 108.156 24.2451 108.989 25.417C109.842 26.5889 110.269 28.109 110.269 29.9775C110.269 31.846 109.842 33.3662 108.989 34.5381C108.156 35.71 107.056 36.2959 105.688 36.2959ZM105.688 25.085C104.679 25.085 103.918 25.5439 103.403 26.4619C102.902 27.3864 102.651 28.5583 102.651 29.9775C102.651 31.4033 102.902 32.5785 103.403 33.5029C103.918 34.4209 104.679 34.8799 105.688 34.8799C106.672 34.8799 107.424 34.4209 107.944 33.5029C108.465 32.5785 108.726 31.4033 108.726 29.9775C108.726 28.5583 108.465 27.3864 107.944 26.4619C107.424 25.5439 106.672 25.085 105.688 25.085ZM116.45 36.2959C115.09 36.2959 113.983 35.71 113.13 34.5381C112.29 33.3532 111.87 31.833 111.87 29.9775C111.87 28.1221 112.29 26.6019 113.13 25.417C113.983 24.2451 115.09 23.6592 116.45 23.6592C117.817 23.6592 118.918 24.2451 119.751 25.417C120.604 26.5889 121.03 28.109 121.03 29.9775C121.03 31.846 120.604 33.3662 119.751 34.5381C118.918 35.71 117.817 36.2959 116.45 36.2959ZM116.45 25.085C115.441 25.085 114.679 25.5439 114.165 26.4619C113.664 27.3864 113.413 28.5583 113.413 29.9775C113.413 31.4033 113.664 32.5785 114.165 33.5029C114.679 34.4209 115.441 34.8799 116.45 34.8799C117.433 34.8799 118.185 34.4209 118.706 33.5029C119.227 32.5785 119.487 31.4033 119.487 29.9775C119.487 28.5583 119.227 27.3864 118.706 26.4619C118.185 25.5439 117.433 25.085 116.45 25.085Z" fill="black"/>
</svg>
