<svg width="20" height="20" viewBox="0 0 20 20" fill="none" xmlns="http://www.w3.org/2000/svg">
<path d="M9.48739 16.2509C9.27799 16.2509 9.10277 16.1804 8.96174 16.0394C8.82072 15.8984 8.7502 15.7232 8.7502 15.5137V10.69L3.97939 4.62437C3.82768 4.44703 3.80658 4.25712 3.9161 4.05466C4.0256 3.85221 4.18878 3.75098 4.40566 3.75098H15.5947C15.8116 3.75098 15.9748 3.85221 16.0843 4.05466C16.1938 4.25712 16.1727 4.44703 16.021 4.62437L11.2502 10.69V15.5137C11.2502 15.7232 11.1796 15.8984 11.0386 16.0394C10.8976 16.1804 10.7224 16.2509 10.513 16.2509H9.48739ZM10.0002 10.7413L14.7678 4.69648H5.23258L10.0002 10.7413Z" fill="#4F63E3"/>
</svg>
