<svg width="22" height="16" viewBox="0 0 22 16" fill="none" xmlns="http://www.w3.org/2000/svg">
<path d="M11.003 12.25C12.1843 12.25 13.1875 11.8365 14.0125 11.0096C14.8375 10.1826 15.25 9.17843 15.25 7.99705C15.25 6.81568 14.8365 5.8125 14.0096 4.9875C13.1826 4.1625 12.1784 3.75 10.9971 3.75C9.81568 3.75 8.8125 4.16348 7.9875 4.99045C7.1625 5.8174 6.75 6.82157 6.75 8.00295C6.75 9.18432 7.16348 10.1875 7.99045 11.0125C8.8174 11.8375 9.82157 12.25 11.003 12.25ZM10.9941 10.8C10.2147 10.8 9.55417 10.5272 9.0125 9.98163C8.47083 9.43603 8.2 8.77353 8.2 7.99413C8.2 7.21471 8.47279 6.55417 9.01837 6.0125C9.56397 5.47083 10.2265 5.2 11.0059 5.2C11.7853 5.2 12.4458 5.47279 12.9875 6.01837C13.5292 6.56397 13.8 7.22647 13.8 8.00587C13.8 8.78529 13.5272 9.44583 12.9816 9.9875C12.436 10.5292 11.7735 10.8 10.9941 10.8ZM11 15.5C8.56667 15.5 6.36667 14.8083 4.4 13.425C2.43333 12.0417 0.966667 10.2333 0 8C0.966667 5.76667 2.43333 3.95833 4.4 2.575C6.36667 1.19167 8.56667 0.5 11 0.5C13.4333 0.5 15.6333 1.19167 17.6 2.575C19.5667 3.95833 21.0333 5.76667 22 8C21.0333 10.2333 19.5667 12.0417 17.6 13.425C15.6333 14.8083 13.4333 15.5 11 15.5Z" fill="#828282"/>
</svg>
