<svg width="24" height="24" viewBox="0 0 24 24" fill="none" xmlns="http://www.w3.org/2000/svg">
<path fill-rule="evenodd" clip-rule="evenodd" d="M14.2803 19.4694L6.81066 11.9998L14.2803 4.53009C14.5732 4.23719 14.5732 3.76232 14.2803 3.46943C13.9874 3.17653 13.5126 3.17653 13.2197 3.46943L5.21967 11.4694C4.92678 11.7623 4.92678 12.2372 5.21967 12.5301L13.2197 20.5301C13.5126 20.823 13.9874 20.823 14.2803 20.5301C14.5732 20.2372 14.5732 19.7623 14.2803 19.4694ZM19.7803 19.4694L12.3107 11.9998L19.7803 4.53009C20.0732 4.23719 20.0732 3.76232 19.7803 3.46943C19.4874 3.17653 19.0126 3.17653 18.7197 3.46943L10.7197 11.4694C10.4268 11.7623 10.4268 12.2372 10.7197 12.5301L18.7197 20.5301C19.0126 20.823 19.4874 20.823 19.7803 20.5301C20.0732 20.2372 20.0732 19.7623 19.7803 19.4694Z" fill="#1A051D"/>
</svg>
