<svg width="19" height="16" viewBox="0 0 19 16" fill="none" xmlns="http://www.w3.org/2000/svg">
<rect x="0.5" y="0.5" width="18" height="15" rx="2.5" fill="#EEFDEB"/>
<path d="M6.40442 13L4.54442 4.192H5.68442L6.60842 8.992C6.77642 9.94 6.95642 10.888 7.12442 11.836H7.17242C7.37642 10.888 7.59242 9.94 7.80842 8.992L9.02042 4.192H10.0404L11.2644 8.992C11.4804 9.928 11.6844 10.876 11.8884 11.836H11.9484C12.1164 10.876 12.2844 9.928 12.4524 8.992L13.3764 4.192H14.4444L12.6204 13H11.2884L9.95642 7.696C9.80042 7 9.66842 6.364 9.52442 5.692H9.47642C9.33242 6.364 9.17642 7 9.03242 7.696L7.72442 13H6.40442Z" fill="#32BF1B"/>
<rect x="0.5" y="0.5" width="18" height="15" rx="2.5" stroke="#D3F2CF"/>
</svg>
