<svg width="58" height="58" viewBox="0 0 58 58" fill="none" xmlns="http://www.w3.org/2000/svg">
<path d="M35.287 29.77C37.1391 29.77 38.6405 28.2685 38.6405 26.4162C38.6405 24.564 37.1391 23.0625 35.287 23.0625C33.435 23.0625 31.9336 24.564 31.9336 26.4162C31.9336 28.2685 33.435 29.77 35.287 29.77Z" fill="white"/>
<path d="M23.0702 29.77C24.9223 29.77 26.4237 28.2685 26.4237 26.4162C26.4237 24.564 24.9223 23.0625 23.0702 23.0625C21.2182 23.0625 19.7168 24.564 19.7168 26.4162C19.7168 28.2685 21.2182 29.77 23.0702 29.77Z" fill="white"/>
<path d="M28.9394 19.7075C30.7914 19.7075 32.2928 18.206 32.2928 16.3537C32.2928 14.5015 30.7914 13 28.9394 13C27.0873 13 25.5859 14.5015 25.5859 16.3537C25.5859 18.206 27.0873 19.7075 28.9394 19.7075Z" fill="white"/>
<path d="M8.33385 42.2506C8.25098 42.7328 8.04757 43.0944 7.71609 43.343C7.39214 43.5916 6.87231 43.7121 6.15661 43.7121H3.47461L4.46153 37.9941H7.05312C7.52775 37.9941 7.88936 38.0468 8.13798 38.1523C8.38659 38.2577 8.5448 38.4159 8.62013 38.6194C8.69547 38.8228 8.703 39.0789 8.65027 39.3878C8.57493 39.8097 8.42426 40.1336 8.19071 40.3672C7.95717 40.6007 7.57295 40.7363 7.03805 40.7891V40.8192C7.41474 40.8493 7.70855 40.9171 7.9195 41.0226C8.12291 41.1281 8.25851 41.2788 8.31878 41.4822C8.37905 41.678 8.37905 41.9417 8.31878 42.2581L8.33385 42.2506ZM6.48809 39.1316H5.64432L5.44844 40.2542H6.29222C6.57096 40.2542 6.78191 40.2165 6.92505 40.1412C7.06066 40.0658 7.15106 39.9152 7.18873 39.6967C7.2264 39.4782 7.18873 39.3351 7.07572 39.2522C6.96272 39.1768 6.76684 39.1316 6.48809 39.1316ZM6.26208 41.437H5.24503L5.04915 42.5821H6.06621C6.34495 42.5821 6.5559 42.5444 6.69904 42.4615C6.84218 42.3787 6.92505 42.228 6.97025 42.002C7.01545 41.776 6.97025 41.6178 6.85724 41.5424C6.74424 41.4671 6.54836 41.4294 6.26962 41.4294L6.26208 41.437Z" fill="#FAFAFA"/>
<path d="M13.834 43.6895V43.7197H12.3725C12.3574 43.5765 12.3423 43.4108 12.3197 43.2225C12.2971 43.0341 12.2745 42.8382 12.2444 42.6273H10.3911C10.2028 43.0492 10.037 43.4108 9.88634 43.7197H8.4248V43.7046L11.1746 37.9941H13.0656L13.8415 43.6895H13.834ZM11.9204 39.0262C11.8074 39.3351 11.6643 39.7042 11.476 40.1487C11.2876 40.5932 11.0993 41.0377 10.8959 41.4972H12.1239C12.0787 41.0377 12.041 40.5932 12.0033 40.1487C11.9732 39.7117 11.9506 39.3351 11.9506 39.0262H11.9129H11.9204Z" fill="#FAFAFA"/>
<path d="M18.701 42.4756L18.5052 43.6132C18.2189 43.6734 17.9401 43.7186 17.6765 43.7488C17.4128 43.7789 17.0964 43.794 16.7347 43.794C16.2677 43.794 15.8834 43.7488 15.5821 43.6659C15.2807 43.583 15.0472 43.4324 14.8965 43.2214C14.7458 43.0105 14.6554 42.7016 14.6404 42.3098C14.6253 41.9181 14.663 41.4133 14.776 40.8031C14.889 40.1929 15.002 39.7258 15.1602 39.3491C15.3109 38.9724 15.4992 38.6786 15.7328 38.4677C15.9588 38.2567 16.2375 38.1136 16.569 38.0307C16.9005 37.9478 17.2998 37.9102 17.7593 37.9102C18.1209 37.9102 18.4298 37.9252 18.686 37.9478C18.9421 37.9704 19.2058 38.0232 19.4695 38.091L19.2661 39.2662L19.2359 39.2813C19.0024 39.221 18.7839 39.1758 18.5654 39.1532C18.347 39.1231 18.0757 39.1155 17.7443 39.1155C17.4806 39.1155 17.2621 39.1382 17.0888 39.1758C16.9156 39.2135 16.7649 39.2888 16.6519 39.4094C16.5313 39.5224 16.4409 39.6956 16.3656 39.9141C16.2903 40.1401 16.2225 40.4339 16.1546 40.8106C16.0868 41.2024 16.0492 41.5188 16.0492 41.7523C16.0492 41.9934 16.0793 42.1667 16.1546 42.2872C16.23 42.4078 16.3505 42.4907 16.5087 42.5283C16.6669 42.5735 16.8854 42.5886 17.1491 42.5886C17.473 42.5886 17.7443 42.5811 17.9778 42.5585C18.2038 42.5359 18.4449 42.4982 18.6784 42.4379L18.7161 42.4756H18.701Z" fill="#FAFAFA"/>
<path d="M20.5909 43.7121H19.2197L20.2066 37.9941H21.5778L21.1634 40.3898H21.186C21.2463 40.3898 21.3216 40.3446 21.412 40.2466C21.5024 40.1487 21.5928 40.0508 21.6757 39.9604L23.1674 37.9941H24.6591V38.0242L23.3859 39.6891C23.2729 39.8398 23.1523 39.998 23.0092 40.1713C22.8736 40.3446 22.738 40.4952 22.6099 40.6233C22.4818 40.7514 22.3764 40.8343 22.2859 40.8644V40.8945C22.3537 40.9322 22.4366 41.0075 22.5195 41.1281C22.6024 41.2486 22.6928 41.3842 22.7756 41.5349C22.8585 41.6856 22.9414 41.8438 23.0167 41.9945L23.8605 43.7046V43.7347H22.2784L21.5024 42.002C21.4798 41.9493 21.4422 41.8739 21.3819 41.7684C21.3292 41.6705 21.2689 41.5801 21.2086 41.4897C21.1484 41.4068 21.0881 41.3616 21.0278 41.3616H20.9826L20.5758 43.7272L20.5909 43.7121Z" fill="#FAFAFA"/>
<path d="M26.2624 40.9335C26.3905 40.2027 26.5638 39.6226 26.7973 39.2008C27.0309 38.7789 27.3548 38.4624 27.7692 38.2816C28.1911 38.0933 28.741 38.0029 29.4341 38.0029C29.9539 38.0029 30.3758 38.0556 30.7073 38.1536C31.0313 38.259 31.2799 38.4248 31.4381 38.6508C31.5963 38.8768 31.6867 39.1857 31.7093 39.5624C31.7244 39.9391 31.6867 40.3986 31.5963 40.941C31.5059 41.4835 31.3778 41.9506 31.2347 42.3272C31.084 42.7039 30.8957 43.0053 30.6546 43.2388C30.4135 43.4648 30.1122 43.6306 29.7505 43.736C29.3889 43.8415 28.9444 43.8867 28.4246 43.8867C27.9048 43.8867 27.4829 43.834 27.1514 43.736C26.8275 43.6306 26.5788 43.4648 26.4206 43.2388C26.2624 43.0128 26.172 42.7039 26.1494 42.3272C26.1268 41.9506 26.1645 41.491 26.2624 40.941V40.9335ZM28.6431 42.6135C29.0122 42.6135 29.291 42.5683 29.4944 42.4704C29.6978 42.3724 29.8485 42.2067 29.9539 41.9581C30.0594 41.7095 30.1498 41.3705 30.2252 40.9335C30.3005 40.4965 30.3306 40.1651 30.308 39.924C30.2854 39.6829 30.195 39.5096 30.0293 39.4117C29.8635 39.3138 29.5999 39.261 29.2307 39.261C28.8616 39.261 28.5903 39.3138 28.3869 39.4117C28.1835 39.5096 28.0253 39.6829 27.9198 39.924C27.8144 40.1651 27.724 40.5041 27.6486 40.9335C27.5733 41.3629 27.5432 41.717 27.5733 41.9581C27.6034 42.1992 27.6938 42.3724 27.8596 42.4704C28.0253 42.5683 28.2965 42.6135 28.6581 42.6135H28.6431Z" fill="#FAFAFA"/>
<path d="M33.3287 43.7947H31.9575L32.9444 38.0691H36.9825L36.7791 39.2444H34.1197L33.8937 40.5553H36.3873L36.1839 41.7305H33.6903L33.3362 43.7947H33.3287Z" fill="#FAFAFA"/>
<path d="M38.0064 43.7947H36.6353L37.6222 38.0691H41.6602L41.4568 39.2444H38.7974L38.5714 40.5553H41.0651L40.8617 41.7305H38.368L38.0139 43.7947H38.0064Z" fill="#FAFAFA"/>
<path d="M42.6929 43.7947H41.3218L42.3087 38.0691H43.6798L42.6929 43.7947Z" fill="#FAFAFA"/>
<path d="M47.9886 42.5595L47.7928 43.6971C47.5065 43.7573 47.2277 43.8025 46.9641 43.8327C46.7004 43.8628 46.384 43.8779 46.0223 43.8779C45.5553 43.8779 45.171 43.8327 44.8697 43.7498C44.5683 43.6669 44.3348 43.5163 44.1841 43.3053C44.0334 43.0944 43.943 42.7855 43.928 42.3937C43.9129 42.002 43.9506 41.4972 44.0636 40.887C44.1766 40.2768 44.2896 39.8097 44.4478 39.433C44.606 39.0563 44.7868 38.7625 45.0204 38.5516C45.2464 38.3406 45.5251 38.1975 45.8566 38.1146C46.1881 38.0317 46.5874 37.9941 47.0469 37.9941C47.4085 37.9941 47.7174 38.0091 47.9736 38.0317C48.2297 38.0543 48.4934 38.1071 48.7571 38.1749L48.5537 39.3501L48.5235 39.3652C48.29 39.3049 48.0715 39.2597 47.853 39.2371C47.6346 39.207 47.3633 39.1995 47.0319 39.1995C46.7682 39.1995 46.5497 39.2221 46.3764 39.2597C46.2032 39.2974 46.0525 39.3727 45.9395 39.4933C45.8189 39.6063 45.7285 39.7795 45.6532 39.998C45.5779 40.224 45.51 40.5178 45.4422 40.8945C45.3744 41.2712 45.3368 41.6027 45.3368 41.8362C45.3368 42.0773 45.3669 42.2506 45.4422 42.3711C45.5176 42.4917 45.6381 42.5746 45.7963 42.6122C45.9545 42.6574 46.173 42.6725 46.4367 42.6725C46.7606 42.6725 47.0319 42.665 47.2654 42.6424C47.4914 42.6198 47.7325 42.5821 47.966 42.5218L48.0037 42.5595H47.9886Z" fill="#FAFAFA"/>
<path d="M48.5017 43.7947L49.4886 38.0691H53.5267L53.3233 39.2444H50.6638L50.4755 40.3292H52.7884L52.5849 41.5045H50.2721L50.0762 42.6195H52.7356L52.5322 43.7947H48.4941H48.5017Z" fill="#FAFAFA"/>
</svg>
