<svg width="58" height="59" viewBox="0 0 58 59" fill="none" xmlns="http://www.w3.org/2000/svg">
<path d="M35.287 30.4775C37.1391 30.4775 38.6405 28.976 38.6405 27.1237C38.6405 25.2715 37.1391 23.77 35.287 23.77C33.435 23.77 31.9336 25.2715 31.9336 27.1237C31.9336 28.976 33.435 30.4775 35.287 30.4775Z" fill="#DBD529"/>
<path d="M23.0702 30.4775C24.9223 30.4775 26.4237 28.976 26.4237 27.1237C26.4237 25.2715 24.9223 23.77 23.0702 23.77C21.2182 23.77 19.7168 25.2715 19.7168 27.1237C19.7168 28.976 21.2182 30.4775 23.0702 30.4775Z" fill="#126690"/>
<path d="M28.9394 20.415C30.7914 20.415 32.2928 18.9135 32.2928 17.0612C32.2928 15.209 30.7914 13.7075 28.9394 13.7075C27.0873 13.7075 25.5859 15.209 25.5859 17.0612C25.5859 18.9135 27.0873 20.415 28.9394 20.415Z" fill="#EB5757"/>
<path d="M8.33385 42.9581C8.25098 43.4403 8.04757 43.8019 7.71609 44.0505C7.39214 44.2991 6.87231 44.4196 6.15661 44.4196H3.47461L4.46153 38.7015H7.05312C7.52775 38.7015 7.88936 38.7543 8.13798 38.8598C8.38659 38.9652 8.5448 39.1234 8.62013 39.3268C8.69547 39.5303 8.703 39.7864 8.65027 40.0953C8.57493 40.5172 8.42426 40.8411 8.19071 41.0747C7.95717 41.3082 7.57295 41.4438 7.03805 41.4966V41.5267C7.41474 41.5568 7.70855 41.6246 7.9195 41.7301C8.12291 41.8356 8.25851 41.9862 8.31878 42.1897C8.37905 42.3855 8.37905 42.6492 8.31878 42.9656L8.33385 42.9581ZM6.48809 39.8391H5.64432L5.44844 40.9617H6.29222C6.57096 40.9617 6.78191 40.924 6.92505 40.8487C7.06066 40.7733 7.15106 40.6226 7.18873 40.4042C7.2264 40.1857 7.18873 40.0425 7.07572 39.9597C6.96272 39.8843 6.76684 39.8391 6.48809 39.8391ZM6.26208 42.1445H5.24503L5.04915 43.2896H6.06621C6.34495 43.2896 6.5559 43.2519 6.69904 43.169C6.84218 43.0862 6.92505 42.9355 6.97025 42.7095C7.01545 42.4835 6.97025 42.3253 6.85724 42.2499C6.74424 42.1746 6.54836 42.1369 6.26962 42.1369L6.26208 42.1445Z" fill="#0D0D0D"/>
<path d="M13.834 44.397V44.4272H12.3725C12.3574 44.284 12.3423 44.1183 12.3197 43.9299C12.2971 43.7416 12.2745 43.5457 12.2444 43.3348H10.3911C10.2028 43.7567 10.037 44.1183 9.88634 44.4272H8.4248V44.4121L11.1746 38.7015H13.0656L13.8415 44.397H13.834ZM11.9204 39.7337C11.8074 40.0425 11.6643 40.4117 11.476 40.8562C11.2876 41.3007 11.0993 41.7452 10.8959 42.2047H12.1239C12.0787 41.7452 12.041 41.3007 12.0033 40.8562C11.9732 40.4192 11.9506 40.0425 11.9506 39.7337H11.9129H11.9204Z" fill="#0D0D0D"/>
<path d="M18.701 43.1831L18.5052 44.3207C18.2189 44.3809 17.9401 44.4261 17.6765 44.4563C17.4128 44.4864 17.0964 44.5015 16.7347 44.5015C16.2677 44.5015 15.8834 44.4563 15.5821 44.3734C15.2807 44.2905 15.0472 44.1399 14.8965 43.9289C14.7458 43.718 14.6554 43.4091 14.6404 43.0173C14.6253 42.6256 14.663 42.1208 14.776 41.5106C14.889 40.9004 15.002 40.4333 15.1602 40.0566C15.3109 39.6799 15.4992 39.3861 15.7328 39.1751C15.9588 38.9642 16.2375 38.8211 16.569 38.7382C16.9005 38.6553 17.2998 38.6176 17.7593 38.6176C18.1209 38.6176 18.4298 38.6327 18.686 38.6553C18.9421 38.6779 19.2058 38.7307 19.4695 38.7985L19.2661 39.9737L19.2359 39.9888C19.0024 39.9285 18.7839 39.8833 18.5654 39.8607C18.347 39.8306 18.0757 39.823 17.7443 39.823C17.4806 39.823 17.2621 39.8456 17.0888 39.8833C16.9156 39.921 16.7649 39.9963 16.6519 40.1169C16.5313 40.2299 16.4409 40.4031 16.3656 40.6216C16.2903 40.8476 16.2225 41.1414 16.1546 41.5181C16.0868 41.9099 16.0492 42.2263 16.0492 42.4598C16.0492 42.7009 16.0793 42.8742 16.1546 42.9947C16.23 43.1153 16.3505 43.1981 16.5087 43.2358C16.6669 43.281 16.8854 43.2961 17.1491 43.2961C17.473 43.2961 17.7443 43.2885 17.9778 43.2659C18.2038 43.2433 18.4449 43.2057 18.6784 43.1454L18.7161 43.1831H18.701Z" fill="#0D0D0D"/>
<path d="M20.5909 44.4196H19.2197L20.2066 38.7015H21.5778L21.1634 41.0973H21.186C21.2463 41.0973 21.3216 41.0521 21.412 40.9541C21.5024 40.8562 21.5928 40.7583 21.6757 40.6678L23.1674 38.7015H24.6591V38.7317L23.3859 40.3966C23.2729 40.5473 23.1523 40.7055 23.0092 40.8788C22.8736 41.0521 22.738 41.2027 22.6099 41.3308C22.4818 41.4589 22.3764 41.5418 22.2859 41.5719V41.602C22.3537 41.6397 22.4366 41.715 22.5195 41.8356C22.6024 41.9561 22.6928 42.0917 22.7756 42.2424C22.8585 42.3931 22.9414 42.5513 23.0167 42.7019L23.8605 44.4121V44.4422H22.2784L21.5024 42.7095C21.4798 42.6567 21.4422 42.5814 21.3819 42.4759C21.3292 42.378 21.2689 42.2876 21.2086 42.1972C21.1484 42.1143 21.0881 42.0691 21.0278 42.0691H20.9826L20.5758 44.4347L20.5909 44.4196Z" fill="#0D0D0D"/>
<path d="M26.2624 41.641C26.3905 40.9102 26.5638 40.3301 26.7973 39.9082C27.0309 39.4864 27.3548 39.1699 27.7692 38.9891C28.1911 38.8008 28.741 38.7104 29.4341 38.7104C29.9539 38.7104 30.3758 38.7631 30.7073 38.8611C31.0313 38.9665 31.2799 39.1323 31.4381 39.3583C31.5963 39.5843 31.6867 39.8932 31.7093 40.2699C31.7244 40.6465 31.6867 41.1061 31.5963 41.6485C31.5059 42.191 31.3778 42.658 31.2347 43.0347C31.084 43.4114 30.8957 43.7128 30.6546 43.9463C30.4135 44.1723 30.1122 44.3381 29.7505 44.4435C29.3889 44.549 28.9444 44.5942 28.4246 44.5942C27.9048 44.5942 27.4829 44.5415 27.1514 44.4435C26.8275 44.3381 26.5788 44.1723 26.4206 43.9463C26.2624 43.7203 26.172 43.4114 26.1494 43.0347C26.1268 42.658 26.1645 42.1985 26.2624 41.6485V41.641ZM28.6431 43.321C29.0122 43.321 29.291 43.2758 29.4944 43.1779C29.6978 43.0799 29.8485 42.9142 29.9539 42.6656C30.0594 42.417 30.1498 42.0779 30.2252 41.641C30.3005 41.204 30.3306 40.8726 30.308 40.6315C30.2854 40.3904 30.195 40.2171 30.0293 40.1192C29.8635 40.0212 29.5999 39.9685 29.2307 39.9685C28.8616 39.9685 28.5903 40.0212 28.3869 40.1192C28.1835 40.2171 28.0253 40.3904 27.9198 40.6315C27.8144 40.8726 27.724 41.2116 27.6486 41.641C27.5733 42.0704 27.5432 42.4245 27.5733 42.6656C27.6034 42.9067 27.6938 43.0799 27.8596 43.1779C28.0253 43.2758 28.2965 43.321 28.6581 43.321H28.6431Z" fill="#0D0D0D"/>
<path d="M33.3287 44.5022H31.9575L32.9444 38.7766H36.9825L36.7791 39.9519H34.1197L33.8937 41.2627H36.3873L36.1839 42.438H33.6903L33.3362 44.5022H33.3287Z" fill="#0D0D0D"/>
<path d="M38.0064 44.5022H36.6353L37.6222 38.7766H41.6602L41.4568 39.9519H38.7974L38.5714 41.2627H41.0651L40.8617 42.438H38.368L38.0139 44.5022H38.0064Z" fill="#0D0D0D"/>
<path d="M42.6929 44.5022H41.3218L42.3087 38.7766H43.6798L42.6929 44.5022Z" fill="#0D0D0D"/>
<path d="M47.9886 43.267L47.7928 44.4046C47.5065 44.4648 47.2277 44.51 46.9641 44.5402C46.7004 44.5703 46.384 44.5854 46.0223 44.5854C45.5553 44.5854 45.171 44.5402 44.8697 44.4573C44.5683 44.3744 44.3348 44.2238 44.1841 44.0128C44.0334 43.8019 43.943 43.493 43.928 43.1012C43.9129 42.7095 43.9506 42.2047 44.0636 41.5945C44.1766 40.9843 44.2896 40.5172 44.4478 40.1405C44.606 39.7638 44.7868 39.47 45.0204 39.259C45.2464 39.0481 45.5251 38.905 45.8566 38.8221C46.1881 38.7392 46.5874 38.7015 47.0469 38.7015C47.4085 38.7015 47.7174 38.7166 47.9736 38.7392C48.2297 38.7618 48.4934 38.8146 48.7571 38.8824L48.5537 40.0576L48.5235 40.0727C48.29 40.0124 48.0715 39.9672 47.853 39.9446C47.6346 39.9145 47.3633 39.9069 47.0319 39.9069C46.7682 39.9069 46.5497 39.9295 46.3764 39.9672C46.2032 40.0049 46.0525 40.0802 45.9395 40.2008C45.8189 40.3138 45.7285 40.487 45.6532 40.7055C45.5779 40.9315 45.51 41.2253 45.4422 41.602C45.3744 41.9787 45.3368 42.3102 45.3368 42.5437C45.3368 42.7848 45.3669 42.9581 45.4422 43.0786C45.5176 43.1992 45.6381 43.282 45.7963 43.3197C45.9545 43.3649 46.173 43.38 46.4367 43.38C46.7606 43.38 47.0319 43.3724 47.2654 43.3498C47.4914 43.3272 47.7325 43.2896 47.966 43.2293L48.0037 43.267H47.9886Z" fill="#0D0D0D"/>
<path d="M48.5017 44.5022L49.4886 38.7766H53.5267L53.3233 39.9519H50.6638L50.4755 41.0367H52.7884L52.5849 42.212H50.2721L50.0762 43.327H52.7356L52.5322 44.5022H48.4941H48.5017Z" fill="#0D0D0D"/>
</svg>
