<svg width="212" height="213" viewBox="0 0 212 213" fill="none" xmlns="http://www.w3.org/2000/svg">
<path d="M82.7122 177.131L81.5397 168.175L75.2427 175.696L72.0966 170.515L68.2031 172.587L67.5094 171.303L72.634 168.574L75.4332 173.186L82.5559 164.677L84.1631 176.946L82.7122 177.131Z" fill="#CDCDCD"/>
<path d="M30.9385 119.033C29.0381 119.033 27.4944 117.495 27.4944 115.603C27.4944 113.71 29.0381 112.173 30.9385 112.173C32.8388 112.173 34.3825 113.71 34.3825 115.603C34.3825 117.495 32.8388 119.033 30.9385 119.033ZM30.9385 113.632C29.8491 113.632 28.9599 114.518 28.9599 115.603C28.9599 116.688 29.8491 117.573 30.9385 117.573C32.0279 117.573 32.917 116.688 32.917 115.603C32.917 114.518 32.0279 113.632 30.9385 113.632Z" fill="#CDCDCD"/>
<path d="M180.558 120.741L174.92 112.533L184.505 110.923L180.563 120.741H180.558ZM177.422 113.594L180.216 117.661L182.17 112.796L177.422 113.594Z" fill="#CDCDCD"/>
<path d="M146.586 70.7348L124.021 61.0808L124.37 60.2556L146.574 69.7572L167.858 60.1904L168.227 61.0096L146.586 70.7348Z" fill="#CDCDCD"/>
<path d="M151.497 74.6111L150.977 75.3438L167.591 87.0279L168.11 86.2953L151.497 74.6111Z" fill="#CDCDCD"/>
<path d="M168.299 87.1088H135.194V86.2119H167.398V60.9077L159.272 52.5965L159.917 51.9717L168.299 60.5429V87.1088Z" fill="#CDCDCD"/>
<path d="M131.732 53.2393L124.251 60.9077V68.8528H123.35V60.5429L131.732 51.9717V53.2393Z" fill="#CDCDCD"/>
<path d="M132.065 64.0501H131.165V41.6309H160.065V60.7675H159.164V42.5277H132.065V64.0501Z" fill="#CDCDCD"/>
<path d="M154.055 52.8691H137.585V53.766H154.055V52.8691Z" fill="#CDCDCD"/>
<path d="M154.055 57.6553H137.585V58.5522H154.055V57.6553Z" fill="#CDCDCD"/>
<path d="M154.055 48.083H137.585V48.9799H154.055V48.083Z" fill="#CDCDCD"/>
<path d="M103.807 47.0264H56.9142V48.0359H103.807V47.0264Z" fill="#CDCDCD"/>
<path d="M103.804 42.4834H57.2151V43.4929H103.804V42.4834Z" fill="#CDCDCD"/>
<path d="M101.175 67.149H92.5827V66.1395H101.175C102.628 66.1395 103.811 64.9617 103.811 63.5148V40.2458C103.811 38.7046 102.554 37.4529 101.006 37.4529H61.4931C59.2494 37.4529 57.4248 39.27 57.4248 41.5043V66.6442H56.4111V41.5043C56.4078 38.7147 58.6885 36.4434 61.4931 36.4434H101.01C103.115 36.4434 104.828 38.1494 104.828 40.2458V63.5182C104.828 65.5203 103.193 67.1524 101.179 67.1524L101.175 67.149Z" fill="#CDCDCD"/>
<path d="M91.0588 54.0928H88.6665V55.6811H91.0588V54.0928Z" fill="#CDCDCD"/>
<path d="M91.0586 53.2982V51.71H90.6599C89.7476 51.71 88.9907 52.383 88.7508 53.2982H91.0586Z" fill="#CDCDCD"/>
<path d="M91.0588 56.4746H88.6665V58.0629H91.0588V56.4746Z" fill="#A7B1F1"/>
<path d="M88.765 58.8574C89.0184 59.7491 89.7652 60.3986 90.6606 60.3986H91.0593V58.8574H88.765Z" fill="#A7B1F1"/>
<path d="M98.236 54.0928H95.8437V55.6811H98.236V54.0928Z" fill="#CDCDCD"/>
<path d="M98.236 56.4756H95.8437V58.0639H98.236V56.4756Z" fill="#A7B1F1"/>
<path d="M95.8406 58.8574V60.3986H96.2393C97.1347 60.3986 97.8815 59.7491 98.1349 58.8574H95.8406Z" fill="#A7B1F1"/>
<path d="M95.0459 58.8572V53.2982H98.1511C97.9146 52.383 97.1543 51.71 96.242 51.71H91.8561V60.3984H95.0459V58.8572Z" fill="#CDCDCD"/>
<path d="M73.8735 54.1531H72.5828V53.1436H73.8735V54.1531ZM71.2312 54.1531H69.8796V53.1436H71.2312V54.1531ZM68.528 54.1531H67.1765V53.1436H68.528V54.1531ZM65.8249 54.1531H64.4733V53.1436H65.8249V54.1531ZM63.1217 54.1531H61.7701V53.1436H63.1217V54.1531Z" fill="#CDCDCD"/>
<path d="M79.1449 57.9561H61.767V58.9656H79.1449V57.9561Z" fill="#CDCDCD"/>
<path d="M128.523 171.643C131.477 171.643 133.872 169.258 133.872 166.316C133.872 163.374 131.477 160.989 128.523 160.989C125.569 160.989 123.174 163.374 123.174 166.316C123.174 169.258 125.569 171.643 128.523 171.643Z" fill="#A7B1F1"/>
<path d="M128.524 172.258C125.232 172.258 122.557 169.595 122.557 166.317C122.557 163.039 125.232 160.375 128.524 160.375C131.815 160.375 134.49 163.039 134.49 166.317C134.49 169.595 131.815 172.258 128.524 172.258ZM128.524 161.604C125.915 161.604 123.792 163.719 123.792 166.317C123.792 168.915 125.915 171.029 128.524 171.029C131.132 171.029 133.255 168.915 133.255 166.317C133.255 163.719 131.132 161.604 128.524 161.604Z" fill="#1C3E58"/>
<path d="M155.269 171.643C158.223 171.643 160.618 169.258 160.618 166.316C160.618 163.374 158.223 160.989 155.269 160.989C152.315 160.989 149.92 163.374 149.92 166.316C149.92 169.258 152.315 171.643 155.269 171.643Z" fill="#A7B1F1"/>
<path d="M155.269 172.258C151.977 172.258 149.303 169.595 149.303 166.317C149.303 163.039 151.977 160.375 155.269 160.375C158.561 160.375 161.235 163.039 161.235 166.317C161.235 169.595 158.561 172.258 155.269 172.258ZM155.269 161.604C152.66 161.604 150.537 163.719 150.537 166.317C150.537 168.915 152.66 171.029 155.269 171.029C157.878 171.029 160.001 168.915 160.001 166.317C160.001 163.719 157.878 161.604 155.269 161.604Z" fill="#1C3E58"/>
<path d="M101.777 171.643C104.732 171.643 107.127 169.258 107.127 166.316C107.127 163.374 104.732 160.989 101.777 160.989C98.8232 160.989 96.4283 163.374 96.4283 166.316C96.4283 169.258 98.8232 171.643 101.777 171.643Z" fill="#A7B1F1"/>
<path d="M101.777 172.258C98.4855 172.258 95.8109 169.595 95.8109 166.317C95.8109 163.039 98.4855 160.375 101.777 160.375C105.069 160.375 107.744 163.039 107.744 166.317C107.744 169.595 105.069 172.258 101.777 172.258ZM101.777 161.604C99.1685 161.604 97.0453 163.719 97.0453 166.317C97.0453 168.915 99.1685 171.029 101.777 171.029C104.386 171.029 106.509 168.915 106.509 166.317C106.509 163.719 104.386 161.604 101.777 161.604Z" fill="#1C3E58"/>
<path d="M129.141 146.853H127.906V160.99H129.141V146.853Z" fill="#1C3E58"/>
<path d="M155.886 146.442H154.652V160.785H155.886V146.442Z" fill="#1C3E58"/>
<path d="M102.394 146.853H101.16V160.785H102.394V146.853Z" fill="#1C3E58"/>
<path d="M169.909 122.958C169.909 130.547 161.659 135.698 155.063 135.698H104.477C89.3098 135.698 93.2887 119.754 93.2887 119.754C80.7923 134.096 93.6796 146.734 103.526 146.734C113.373 146.734 110.929 146.988 110.929 146.988C116.105 147.131 142.213 146.897 147.451 146.836C147.451 146.836 154.594 146.803 157.511 146.27C175.382 143.017 169.909 122.954 169.909 122.954V122.958Z" fill="#A7B1F1"/>
<path d="M153.422 147.352H103.864C96.8155 147.352 90.6311 143.033 88.4667 136.6C85.9526 129.129 88.8576 121.335 95.5235 117.656L96.1243 118.729C90.9356 121.598 86.9155 128.113 89.6353 136.21C91.631 142.14 97.3463 146.123 103.86 146.123H153.418C162.013 146.123 169.375 139.911 170.547 131.674C171.774 123.052 166.371 114.943 157.989 112.804C157.689 112.738 156.973 112.439 156.973 111.107C156.973 100.457 148.274 91.7948 137.58 91.7948C128.495 91.7948 120.726 97.9455 118.689 106.752L117.488 106.477C119.656 97.1095 127.919 90.5654 137.58 90.5654C148.953 90.5654 158.207 99.7813 158.207 111.107C158.207 111.427 158.269 111.566 158.294 111.616C167.293 113.91 173.086 122.61 171.774 131.85C170.519 140.689 162.631 147.356 153.422 147.356V147.352Z" fill="#1C3E58"/>
<path d="M118.529 117.927C117.616 115.571 117.151 113.083 117.151 110.534C117.151 108.908 117.344 107.289 117.718 105.724L118.92 106.01C118.566 107.482 118.385 109.006 118.385 110.534C118.385 112.932 118.821 115.271 119.681 117.484L118.529 117.927Z" fill="#1C3E58"/>
<path d="M162.083 114.456C159.713 113.165 157.075 112.431 154.236 112.276C153.286 112.222 152.323 112.243 151.381 112.333L151.261 111.108C152.265 111.009 153.29 110.989 154.302 111.046C157.322 111.21 160.137 111.997 162.671 113.378L162.079 114.456H162.083Z" fill="#1C3E58"/>
<path fill-rule="evenodd" clip-rule="evenodd" d="M136.218 97.6279H137.453V100.324C137.481 100.327 137.51 100.33 137.539 100.333C141.189 100.697 143.419 103.181 144.205 104.23L143.217 104.967C142.678 104.25 140.666 101.886 137.415 101.558C134.716 101.287 131.375 102.336 130.219 104.861C129.441 106.557 129.659 108.856 130.745 110.45C131.951 112.212 134.054 112.757 136.103 113.167L136.121 113.17C138.606 113.665 141.416 114.225 143.402 116.297C145.591 118.58 146.25 121.661 145.077 124.141C144.871 124.575 144.608 124.993 144.291 125.386C142.847 127.177 140.318 128.347 137.453 128.581V131.283H136.218V128.612C131.712 128.493 128.737 125.457 127.906 124.493L128.844 123.694C129.4 124.337 132.395 127.542 136.819 127.382C139.576 127.284 142.012 126.247 143.332 124.612C143.587 124.296 143.797 123.964 143.962 123.616C144.912 121.596 144.345 119.055 142.509 117.142C140.789 115.347 138.173 114.826 135.864 114.367C133.663 113.929 131.194 113.282 129.725 111.138C128.384 109.18 128.133 106.451 129.095 104.348C130.303 101.712 133.38 100.399 136.218 100.293V97.6279Z" fill="#A7B1F1"/>
<path d="M69.2274 83.8063V130.647C69.2274 131.211 68.7704 131.666 68.2049 131.666H66.28C63.7624 131.666 61.7213 129.633 61.7213 127.126V68.3738C61.7213 66.1598 63.5223 64.3701 65.7416 64.3701H79.3982C80.5215 64.3701 81.6098 64.752 82.4813 65.454L92.2686 72.6321C93.1401 73.3341 94.2284 73.716 95.3516 73.716H130.02C132.731 73.716 134.927 75.903 134.927 78.603V80.2577L73.1819 79.6251C70.4668 79.6174 69.2274 81.2374 69.2274 83.8063Z" fill="#A7B1F1"/>
<path d="M88.3804 133.425H63.5957V134.582H88.3804V133.425Z" fill="#1C3E58"/>
<path d="M63.8016 134.581H63.6157C60.1996 134.581 57.4187 131.831 57.4187 128.448L57.3877 65.8354C57.3877 64.1653 58.05 62.5916 59.2507 61.4113C60.4513 60.231 62.0471 59.583 63.7435 59.583H80.6768C82.1641 59.583 83.6281 60.0883 84.8017 60.9986L93.4658 67.7563C94.4341 68.5123 95.6464 68.9289 96.8742 68.9289H130.222C133.026 68.9289 135.303 71.2007 135.303 73.9894H134.141C134.141 71.8371 132.383 70.086 130.222 70.086H96.8742C95.3869 70.086 93.9229 69.5807 92.7493 68.6704L84.0851 61.9127C83.1169 61.1567 81.9046 60.7402 80.6768 60.7402H63.7435C62.353 60.7402 61.0478 61.2724 60.0679 62.2367C59.088 63.201 58.5496 64.4777 58.5496 65.8354L58.5806 128.448C58.5806 131.191 60.8386 133.424 63.6157 133.424H63.8016C66.474 133.424 68.6507 131.26 68.6507 128.595V79.212H135.493L135.512 91.1121H134.351L134.331 80.3692H69.8088V128.595C69.8088 131.897 67.1131 134.581 63.7977 134.581H63.8016Z" fill="#1C3E58"/>
<path d="M125.542 87.625H82.3687V88.7821H125.542V87.625Z" fill="#1C3E58"/>
<path d="M123.174 95.9258H82.3687V97.0829H123.174V95.9258Z" fill="#1C3E58"/>
</svg>
