<svg width="212" height="213" viewBox="0 0 212 213" fill="none" xmlns="http://www.w3.org/2000/svg">
<path d="M181.062 123.806C178.813 123.806 176.987 121.98 176.987 119.731C176.987 117.481 178.813 115.655 181.062 115.655C183.312 115.655 185.138 117.481 185.138 119.731C185.138 121.98 183.312 123.806 181.062 123.806ZM181.062 117.285C179.715 117.285 178.617 118.383 178.617 119.731C178.617 121.078 179.715 122.176 181.062 122.176C182.41 122.176 183.508 121.078 183.508 119.731C183.508 118.383 182.41 117.285 181.062 117.285Z" fill="#C6C6C6"/>
<path d="M41.5024 126.405V57.4513C41.5024 54.9898 43.4966 52.9902 45.9635 52.9902H71.7575L67.9974 60.5866H47.8328V126.194L41.5024 126.4V126.405Z" fill="#A7B1F1"/>
<path d="M57.4426 60.5866L59.6618 52.9902H154.997C157.328 52.9902 159.214 54.8812 159.214 57.2068V93.4879H152.704V60.5812H134.126L57.4426 60.5866Z" fill="#A7B1F1"/>
<path d="M97.1976 142.131H36.6984V182.634H97.1976V142.131Z" fill="#A7B1F1"/>
<path d="M98.0074 183.45H65.5517V181.819H96.3773V143.397H98.0074V183.45Z" fill="#1C3E58"/>
<path d="M65.5521 183.449H30.5642V142.131H32.1944V181.819H65.5521V183.449Z" fill="#1C3E58"/>
<path d="M92.128 151.439H57.9552V153.07H92.128V151.439Z" fill="#1C3E58"/>
<path d="M90.5576 174.586H88.3841V172.956H90.5576V174.586ZM86.2106 174.586H84.0371V172.956H86.2106V174.586ZM81.8636 174.586H79.6901V172.956H81.8636V174.586ZM77.5166 174.586H75.3431V172.956H77.5166V174.586ZM73.1696 174.586H70.9961V172.956H73.1696V174.586ZM68.8227 174.586H66.6492V172.956H68.8227V174.586ZM64.4757 174.586H62.3022V172.956H64.4757V174.586ZM60.1287 174.586H57.9552V172.956H60.1287V174.586Z" fill="#1C3E58"/>
<path d="M97.193 161.567H31.3796V163.197H97.193V161.567Z" fill="#1C3E58"/>
<path d="M47.4412 152.086C47.4412 153.966 45.9143 155.493 44.0342 155.493C42.1541 155.493 40.6273 153.966 40.6273 152.086C40.6273 150.206 42.1541 148.679 44.0342 148.679C45.9143 148.679 47.4412 150.206 47.4412 152.086Z" fill="#F7F8F9"/>
<path d="M44.0342 176.304C45.9158 176.304 47.4412 174.779 47.4412 172.897C47.4412 171.016 45.9158 169.49 44.0342 169.49C42.1526 169.49 40.6273 171.016 40.6273 172.897C40.6273 174.779 42.1526 176.304 44.0342 176.304Z" fill="#F7F8F9"/>
<path d="M169.336 142.131H107.343V182.634H169.336V142.131Z" fill="#A7B1F1"/>
<path d="M170.151 183.449H136.429V181.819H168.521V142.131H170.151V183.449Z" fill="#1C3E58"/>
<path d="M136.429 181.819H101.278V183.449H136.429V181.819Z" fill="#1C3E58"/>
<path d="M163.072 153.07H160.898V151.439H163.072V153.07ZM158.725 153.07H156.551V151.439H158.725V153.07ZM154.378 153.07H152.204V151.439H154.378V153.07ZM150.031 153.07H147.857V151.439H150.031V153.07ZM145.684 153.07H143.51V151.439H145.684V153.07ZM141.337 153.07H139.163V151.439H141.337V153.07ZM136.99 153.07H134.816V151.439H136.99V153.07ZM132.643 153.07H130.469V151.439H132.643V153.07Z" fill="#1C3E58"/>
<path d="M163.675 172.956H130.469V174.586H163.675V172.956Z" fill="#1C3E58"/>
<path d="M169.342 161.567H101.278V163.197H169.342V161.567Z" fill="#1C3E58"/>
<path d="M118.411 152.086C118.411 153.966 116.884 155.493 115.004 155.493C113.124 155.493 111.597 153.966 111.597 152.086C111.597 150.206 113.124 148.679 115.004 148.679C116.884 148.679 118.411 150.206 118.411 152.086Z" fill="#F7F8F9"/>
<path d="M115.01 176.304C116.891 176.304 118.417 174.779 118.417 172.897C118.417 171.016 116.891 169.49 115.01 169.49C113.128 169.49 111.603 171.016 111.603 172.897C111.603 174.779 113.128 176.304 115.01 176.304Z" fill="#F7F8F9"/>
<path d="M76.3106 104.976H56.059V111.306H76.3106V104.976Z" fill="#A7B1F1"/>
<path d="M76.3106 114.381H56.059V120.711H76.3106V114.381Z" fill="#A7B1F1"/>
<path d="M76.3106 95.3955H56.059V101.726H76.3106V95.3955Z" fill="#A7B1F1"/>
<path d="M71.2463 85.2676H56.059V91.5979H71.2463V85.2676Z" fill="#A7B1F1"/>
<path d="M115.727 120.076H114.097V115.826H84.0866V120.076H82.4565V114.196H115.727V120.076Z" fill="#1C3E58"/>
<path d="M115.727 110.67H114.097V106.426H84.0866V110.67H82.4565V104.796H115.727V110.67Z" fill="#1C3E58"/>
<path d="M115.727 101.09H114.097V96.8411H84.0866V101.09H82.4565V95.2109H115.727V101.09Z" fill="#1C3E58"/>
<path d="M155.638 119.771L147.15 112.512L142.314 118.168L138.804 98.9873L158.295 99.4926L153.66 104.91L162.148 112.17L155.643 119.771H155.638ZM146.971 110.213L155.459 117.473L159.844 112.349L151.356 105.089L154.828 101.03L140.766 100.666L143.298 114.506L146.971 110.213Z" fill="#1C3E58"/>
<path d="M132.225 102.491C130.176 101.676 128.682 99.9104 128.225 97.7586C127.47 94.2159 129.736 90.722 133.273 89.9612C135.86 89.407 138.511 90.4503 140.027 92.6183L138.691 93.5529C137.55 91.9228 135.555 91.1404 133.61 91.5533C130.948 92.1239 129.247 94.7484 129.812 97.4109C130.16 99.0301 131.285 100.356 132.822 100.97L132.219 102.486L132.225 102.491Z" fill="#A7B1F1"/>
<path d="M125.247 106.404C124.709 105.85 124.22 105.252 123.786 104.617L125.128 103.693C125.508 104.253 125.943 104.78 126.415 105.263L125.247 106.399V106.404ZM122.644 102.606C122.324 101.911 122.063 101.177 121.862 100.433L123.438 100.014C123.612 100.672 123.845 101.313 124.122 101.927L122.639 102.606H122.644ZM121.454 98.1615C121.416 97.7431 121.395 97.3138 121.395 96.8954C121.395 96.5476 121.406 96.1999 121.433 95.8521L123.057 95.9771C123.036 96.2814 123.019 96.5911 123.019 96.8954C123.019 97.2649 123.036 97.6398 123.074 98.0093L121.449 98.1615H121.454ZM123.389 93.972L121.808 93.5699C121.998 92.8255 122.248 92.092 122.563 91.3856L124.052 92.0485C123.775 92.6679 123.552 93.3146 123.389 93.972ZM125.03 90.2662L123.671 89.3642C124.095 88.7231 124.579 88.1145 125.106 87.5548L126.296 88.6687C125.834 89.1632 125.405 89.7011 125.035 90.2608L125.03 90.2662ZM127.806 87.3157L126.823 86.0171C127.437 85.5552 128.094 85.1422 128.779 84.789L129.524 86.2398C128.92 86.5496 128.344 86.9136 127.806 87.3211V87.3157ZM141.212 86.6093C140.63 86.2616 140.016 85.9573 139.386 85.7128L139.978 84.1913C140.695 84.4684 141.391 84.8108 142.048 85.2074L141.212 86.6039V86.6093ZM131.404 85.4574L130.915 83.9033C131.328 83.7729 131.757 83.6588 132.186 83.5664C132.512 83.4958 132.838 83.4415 133.164 83.3926L133.387 85.0064C133.099 85.0444 132.811 85.0988 132.523 85.1585C132.143 85.24 131.768 85.3378 131.404 85.4519V85.4574ZM137.435 85.1368C136.772 85.0009 136.093 84.9194 135.419 84.8977L135.468 83.2676C136.234 83.2893 137.006 83.3817 137.761 83.5338L137.435 85.1314V85.1368Z" fill="#1C3E58"/>
<path d="M160.029 93.4939H158.398V57.5008C158.398 55.4632 156.741 53.8059 154.704 53.8059H131.371V52.1758H154.704C157.638 52.1758 160.029 54.5666 160.029 57.5008V93.4939Z" fill="#C6C6C6"/>
<path d="M73.1487 52.1807H50.365V53.8108H73.1487V52.1807Z" fill="#1C3E58"/>
<path d="M140.027 52.1807H72.0316V53.8108H140.027V52.1807Z" fill="#1C3E58"/>
<path d="M42.3179 126.406H40.6878V57.5057C40.6878 54.5715 43.0787 52.1807 46.0129 52.1807H50.3599V53.8108H46.0129C43.9752 53.8108 42.3179 55.4681 42.3179 57.5057V126.406Z" fill="#1C3E58"/>
<path d="M153.519 93.4933H151.889V61.4016H132.632V59.7715H152.248C152.998 59.7715 153.519 60.2931 153.519 61.043V93.4933Z" fill="#1C3E58"/>
<path d="M135.978 59.7715H50.365V61.4016H135.978V59.7715Z" fill="#1C3E58"/>
<path d="M48.6478 126.406H47.0177V61.0488C47.0177 60.3479 47.5882 59.7773 48.2892 59.7773H50.3649V61.4075H48.6478V126.411V126.406Z" fill="#1C3E58"/>
<path d="M156.682 134.812H44.2902C39.6553 134.812 35.8788 131.041 35.8788 126.401V125.586H91.3681L91.5583 125.695C91.5583 125.695 93.0689 126.553 94.1937 126.852H104.931C106.056 126.548 107.55 125.7 107.566 125.695L107.751 125.586H165.093V126.461C165.055 131.063 161.284 134.812 156.676 134.812H156.682ZM37.5633 127.216C37.9654 130.569 40.8289 133.182 44.2957 133.182H156.687C160.138 133.182 163.012 130.569 163.419 127.216H108.186C107.691 127.488 106.338 128.183 105.235 128.46L105.039 128.482L93.9003 128.46C92.7972 128.189 91.4497 127.488 90.9497 127.216H37.5633Z" fill="#1C3E58"/>
<path d="M156.682 134.812H44.2902C39.6552 134.812 35.8788 131.041 35.8788 126.401V125.586H91.3681L91.5583 125.695C91.5583 125.695 93.0689 126.553 94.1937 126.852H104.931C106.056 126.548 107.55 125.7 107.566 125.695L107.751 125.586H165.093V126.461C165.055 131.063 161.284 134.812 156.676 134.812H156.682ZM37.5633 127.216C37.9654 130.569 40.8289 133.182 44.2957 133.182H156.687C160.138 133.182 163.012 130.569 163.419 127.216H108.186C107.691 127.488 106.338 128.183 105.235 128.46L105.039 128.482L93.9002 128.46C92.7972 128.189 91.4496 127.488 90.9497 127.216H37.5633Z" fill="#1C3E58"/>
<path d="M26.0471 114.401L24.5398 115.021L25.2867 116.835L26.794 116.215L26.0471 114.401Z" fill="white"/>
<path d="M152.138 48.8662H150.508V43.1663H143.444V48.8662H141.814V41.5361H152.138V48.8662Z" fill="#C6C6C6"/>
<path d="M169.526 74.1381H163.006V72.508H167.896V37.1887H160.832V48.8658H159.202V35.5586H169.526V74.1381Z" fill="#C6C6C6"/>
<path d="M187.457 76.3118H177.133V30.125H187.457V76.3118ZM178.763 74.6816H185.827V31.7551H178.763V74.6816Z" fill="#C6C6C6"/>
<path fill-rule="evenodd" clip-rule="evenodd" d="M105.736 89.9305L109.236 91.6554H109.242L112.839 88.167L112.805 88.0927L112.82 88.0782L111.268 84.6865C111.552 84.1435 111.798 83.5741 111.997 82.9941L115.599 81.7715L115.675 76.7616L115.64 76.7486L115.642 76.6633L112.081 75.3408C112.039 75.2098 111.995 75.08 111.949 74.9511C111.8 74.5193 111.626 74.0956 111.429 73.6859L113.105 70.29L113.047 70.2297L113.067 70.1885L109.57 66.5926L106.042 68.2151C105.527 67.9519 104.99 67.7223 104.444 67.5351L103.221 63.9325L98.2114 63.8564L96.8801 67.421C96.2878 67.6057 95.7064 67.8394 95.1467 68.1111L91.7343 66.4266L88.1372 69.9205L89.7184 73.3818C89.4397 73.903 89.2003 74.4488 89.0047 75.0051L85.3528 76.2508L85.3489 76.2547L85.2782 81.265L85.2963 81.2717L85.2954 81.3313L88.8668 82.6577C89.0483 83.2261 89.2722 83.7865 89.5353 84.3221L87.8566 87.736L91.3497 91.3281L94.8058 89.7409C95.3594 90.0322 95.9322 90.2736 96.5203 90.4765L97.7465 94.079L102.757 94.1497L104.082 90.5825C104.646 90.406 105.203 90.1875 105.736 89.9305ZM86.9481 80.1405L90.1925 81.3474L90.3044 81.7507C90.509 82.5074 90.8057 83.2409 91.1716 83.9359L91.3642 84.3045L89.8311 87.4262L91.7238 89.3681L94.8881 87.9196L95.2495 88.1266C95.9339 88.5177 96.6604 88.828 97.4061 89.0499L97.8059 89.1724L98.928 92.4715L101.637 92.5105L102.847 89.2431L103.25 89.1312C104.007 88.9266 104.737 88.6337 105.428 88.264L105.796 88.0638L108.922 89.6007L110.841 87.73L109.427 84.6296L109.441 84.6043L109.411 84.5399L109.618 84.1784C110.006 83.4979 110.32 82.7752 110.546 82.0256L110.668 81.6259L113.967 80.5038L114.001 77.8726L110.763 76.6638L110.742 76.5834L110.735 76.581L110.627 76.1738C110.599 76.0698 110.569 75.9662 110.538 75.8631C110.343 75.2445 110.09 74.647 109.785 74.0827L109.59 73.7132L109.597 73.6975L109.559 73.6277L111.08 70.5347L109.247 68.6436L106.079 70.0944L105.715 69.8879C105.036 69.4967 104.313 69.1869 103.564 68.9587L103.161 68.8392L102.042 65.5409L99.3307 65.5029L98.1135 68.7685L97.7114 68.8772C96.9562 69.0837 96.2226 69.3717 95.5325 69.7412L95.163 69.9368L92.0386 68.3936L90.0934 70.2846L91.5442 73.4524L91.3322 73.8165C90.941 74.4957 90.6259 75.2184 90.4031 75.9682L90.2835 76.3703L86.9853 77.4897L86.9481 80.1405Z" fill="#A7B1F1"/>
<path d="M100.298 85.0969C100.266 85.0969 100.239 85.0969 100.206 85.0969L100.233 83.4668C100.233 83.4668 100.277 83.4668 100.298 83.4668C102.619 83.4668 104.526 81.5976 104.558 79.2665C104.575 78.1254 104.145 77.0495 103.352 76.2345C102.559 75.4194 101.494 74.9575 100.358 74.9412C99.2224 74.9086 98.1411 75.3488 97.3261 76.1475C96.511 76.9409 96.0491 78.0059 96.0328 79.147C96.0165 80.288 96.4458 81.3639 97.2391 82.179L96.0709 83.3146C94.9732 82.1844 94.381 80.6956 94.4081 79.1198C94.4299 77.544 95.0656 76.0715 96.1958 74.9793C97.3261 73.8817 98.8095 73.3057 100.391 73.3166C101.966 73.3383 103.434 73.974 104.531 75.1043C105.629 76.2345 106.216 77.7233 106.194 79.2991C106.145 82.5213 103.51 85.1078 100.304 85.1078L100.298 85.0969Z" fill="#1C3E58"/>
</svg>
