<svg width="212" height="213" viewBox="0 0 212 213" fill="none" xmlns="http://www.w3.org/2000/svg">
<path d="M181.734 93.5176H180.474V98.0017H181.734V93.5176Z" fill="#7B8AEA"/>
<path d="M188.053 99.5303H183.652V100.79H188.053V99.5303Z" fill="#7B8AEA"/>
<path d="M181.734 102.905H180.474V107.146H181.734V102.905Z" fill="#7B8AEA"/>
<path d="M178.685 99.5303H174.033V100.79H178.685V99.5303Z" fill="#7B8AEA"/>
<path d="M109.979 77.2978H15.6315V41.8613H16.8911V76.0382H108.719V41.8613H109.979V77.2978Z" fill="#D6D6D6"/>
<path d="M102.224 28.8203H96.5266V30.0799H102.224V28.8203Z" fill="#7B8AEA"/>
<path d="M109.979 36.4703H15.6315V21.6953H109.979V36.4703ZM16.8911 35.2107H108.719V22.9549H16.8911V35.2107Z" fill="#7B8AEA"/>
<path d="M28.4919 67.3727L27.606 66.4742L36.7087 57.5185L27.753 48.4159L28.6515 47.5342L38.4931 57.5353L28.4919 67.3727Z" fill="#7B8AEA"/>
<path d="M56.4674 66.2939H41.8478V67.5535H56.4674V66.2939Z" fill="#7B8AEA"/>
<path d="M53.8644 116.5H31.3428V83.3477H53.8644V84.6072H32.6024V115.24H53.8644V116.5Z" fill="#D6D6D6"/>
<path d="M51.0722 93.6893H49.3927V92.4297H51.0722V93.6893ZM47.7132 93.6893H46.0338V92.4297H47.7132V93.6893ZM44.3543 93.6893H42.6749V92.4297H44.3543V93.6893ZM40.9954 93.6893H39.316V92.4297H40.9954V93.6893Z" fill="#D6D6D6"/>
<path d="M51.2611 100.555H49.5816V99.2949H51.2611V100.555ZM47.9022 100.555H46.2227V99.2949H47.9022V100.555ZM44.5433 100.555H42.8638V99.2949H44.5433V100.555Z" fill="#D6D6D6"/>
<path d="M53.0233 106.159H49.1366V107.419H53.0233V106.159Z" fill="#D6D6D6"/>
<path d="M26.1617 83.9775H24.9021V115.87H26.1617V83.9775Z" fill="#D6D6D6"/>
<path d="M152.648 64.7593L145.466 57.4587L152.767 50.2764L153.388 50.9094L146.72 57.4705L153.281 64.1381L152.648 64.7593Z" fill="#7B8AEA"/>
<path d="M170.027 64.7652L169.406 64.1322L176.074 57.571L169.513 50.9034L170.146 50.2822L177.328 57.5829L170.027 64.7652Z" fill="#7B8AEA"/>
<path d="M164.393 47.0624L157.547 67.6895L158.389 67.969L165.235 47.342L164.393 47.0624Z" fill="#7B8AEA"/>
<path d="M144.363 43.4466L143.484 43.3283L145.141 30.913L132.723 29.2565L132.838 28.3779L146.138 30.1498L144.363 43.4466Z" fill="#D6D6D6"/>
<path d="M135.959 76.5361C131.823 71.0132 129.637 64.4373 129.637 57.5212C129.637 46.6915 135.074 36.7138 144.182 30.8301L144.665 31.5755C135.811 37.2965 130.528 46.9962 130.528 57.5212C130.528 64.2451 132.652 70.6376 136.672 76.0066L135.962 76.539L135.959 76.5361Z" fill="#D6D6D6"/>
<path d="M189.956 86.6644L176.657 84.8925L178.431 71.5957L179.31 71.7111L177.654 84.1293L190.072 85.7858L189.956 86.6644Z" fill="#D6D6D6"/>
<path d="M178.612 84.2123L178.13 83.4668C186.983 77.7458 192.267 68.0461 192.267 57.5211C192.267 40.5001 178.417 26.6501 161.396 26.6501V25.7627C178.908 25.7627 193.154 40.009 193.154 57.5211C193.154 68.3508 187.717 78.3286 178.609 84.2123H178.612Z" fill="#D6D6D6"/>
<path d="M143.549 76.1894C143.259 75.9113 142.973 75.6244 142.7 75.3374L143.342 74.7251C143.606 75.0032 143.884 75.2783 144.165 75.5475L143.552 76.1894H143.549ZM141.89 74.4471C141.627 74.1453 141.369 73.8318 141.121 73.5212L141.819 72.9709C142.056 73.2727 142.307 73.5744 142.558 73.8673L141.89 74.45V74.4471ZM140.399 72.5598C140.165 72.2373 139.937 71.9031 139.722 71.5658L140.467 71.0837C140.677 71.4091 140.899 71.7315 141.124 72.0451L140.402 72.5627L140.399 72.5598ZM139.089 70.5394C138.884 70.1933 138.689 69.8383 138.506 69.4863L139.293 69.0751C139.47 69.4153 139.659 69.7555 139.855 70.0927L139.089 70.5394ZM137.973 68.4066C137.805 68.0457 137.642 67.6729 137.491 67.3032L138.313 66.966C138.458 67.3239 138.615 67.6818 138.778 68.0309L137.973 68.4066ZM137.062 66.1791C136.926 65.7975 136.799 65.4129 136.687 65.0373L137.535 64.7799C137.645 65.1437 137.769 65.5165 137.899 65.8833L137.062 66.1791ZM136.364 63.8777C136.266 63.4931 136.178 63.0967 136.095 62.7033L136.965 62.5258C137.041 62.9044 137.13 63.286 137.225 63.6588L136.364 63.8777ZM135.885 61.52C135.823 61.1296 135.772 60.7273 135.728 60.3279L136.61 60.2333C136.651 60.6208 136.704 61.0083 136.76 61.384L135.885 61.52ZM135.625 59.1269C135.601 58.7246 135.583 58.3223 135.577 57.9259L136.465 57.9111C136.471 58.2957 136.485 58.6862 136.509 59.0737L135.625 59.1269Z" fill="#D6D6D6"/>
<path d="M186.324 56.6925C186.312 56.3079 186.288 55.9174 186.259 55.5329L187.143 55.4619C187.176 55.8612 187.196 56.2635 187.211 56.6629L186.324 56.6925ZM186.14 54.3763C186.093 53.9947 186.034 53.6071 185.969 53.2255L186.844 53.0747C186.913 53.4681 186.972 53.8675 187.022 54.2638L186.14 54.3763ZM185.744 52.0867C185.661 51.708 185.567 51.3294 185.466 50.9596L186.321 50.7259C186.424 51.1105 186.522 51.5039 186.608 51.8944L185.741 52.0867H185.744ZM185.135 49.8444C185.016 49.4746 184.886 49.1049 184.75 48.7469L185.581 48.4363C185.72 48.8091 185.853 49.1907 185.978 49.5723L185.135 49.8444ZM184.318 47.6731C184.17 47.3241 184.008 46.9691 183.836 46.6201L184.635 46.2325C184.812 46.5964 184.981 46.9632 185.135 47.3241L184.318 47.6731ZM183.304 45.5877C183.12 45.2504 182.925 44.9103 182.724 44.5819L183.481 44.1204C183.688 44.4606 183.889 44.8126 184.082 45.1617L183.304 45.5877ZM182.097 43.6057C181.881 43.2862 181.656 42.9668 181.425 42.6562L182.138 42.1267C182.375 42.4461 182.608 42.7775 182.833 43.1088L182.097 43.6057ZM180.712 41.7421C180.467 41.4433 180.212 41.1446 179.955 40.8606L180.615 40.266C180.881 40.5618 181.144 40.8695 181.399 41.1801L180.712 41.7421ZM179.159 40.0146C178.89 39.7424 178.609 39.4703 178.325 39.207L178.929 38.5562C179.221 38.8284 179.514 39.1094 179.792 39.3934L179.159 40.0175V40.0146ZM177.452 38.4349C177.16 38.1894 176.855 37.9439 176.547 37.7072L177.086 37.0032C177.405 37.2487 177.722 37.5002 178.023 37.7575L177.452 38.4349ZM175.607 37.0209C175.29 36.802 174.962 36.5861 174.636 36.379L175.11 35.6277C175.447 35.8406 175.787 36.0625 176.115 36.2903L175.61 37.018L175.607 37.0209ZM173.636 35.7844C173.299 35.5951 172.953 35.4088 172.61 35.2372L173.009 34.4444C173.367 34.6249 173.725 34.8142 174.071 35.0124L173.636 35.7844ZM171.56 34.7373C171.205 34.5805 170.844 34.4267 170.486 34.2876L170.808 33.4623C171.181 33.6073 171.554 33.764 171.921 33.9267L171.56 34.7373ZM169.392 33.8883C169.025 33.764 168.652 33.6487 168.282 33.5422L168.528 32.6902C168.912 32.7997 169.297 32.921 169.676 33.0482L169.392 33.8883ZM167.158 33.2493C166.782 33.1606 166.398 33.0807 166.022 33.0097L166.185 32.1371C166.575 32.211 166.972 32.2939 167.362 32.3856L167.158 33.2493ZM164.874 32.8204C164.493 32.7672 164.105 32.7228 163.721 32.6873L163.804 31.8028C164.203 31.8383 164.605 31.8856 164.999 31.9418L164.877 32.8204H164.874ZM162.561 32.6074C162.177 32.5897 161.786 32.5808 161.399 32.5808V31.6934C161.801 31.6934 162.203 31.7022 162.603 31.72L162.561 32.6074Z" fill="#D6D6D6"/>
<path d="M184.207 148.8H173.639V150.059H184.207V148.8Z" fill="#D6D6D6"/>
<path d="M199.536 187.662H124.943V181.93H126.203V186.403H198.276V130.54H199.536V187.662Z" fill="#D6D6D6"/>
<path d="M193.292 119.435H188.804V120.694H193.292V119.435Z" fill="#D6D6D6"/>
<path d="M199.536 127.055H173.634V125.796H198.276V115.081H174.033V113.821H199.536V127.055Z" fill="#D6D6D6"/>
<path d="M193.645 180.672H189.925V181.931H193.645V180.672Z" fill="#D6D6D6"/>
<path d="M187.016 180.672H125.598V181.931H187.016V180.672Z" fill="#D6D6D6"/>
<path d="M132.035 84.7295H168.821V166.595H158.916V98.0351H143.241C143.241 98.0351 135.685 87.4214 132.035 84.7295Z" fill="#A7B1F1"/>
<path d="M93.3413 83.5254H57.2145V166.595H69.1187V95.6511H84.9959C84.9959 95.6511 88.0104 87.6235 93.3365 83.5254H93.3413Z" fill="#A7B1F1"/>
<path d="M131.076 114.701C131.076 103.909 121.989 95.2413 111.048 95.93C101.778 96.5175 94.2078 103.991 93.5144 113.257C93.1917 117.552 94.3138 121.568 96.4471 124.872C99.7362 129.976 101.691 135.823 101.691 141.895V147.038L123.323 141.924V140.34C123.323 134.388 124.854 129.885 128.086 124.886C129.983 121.954 131.081 118.457 131.081 114.701H131.076Z" fill="#A7B1F1"/>
<path d="M97.0346 144.621V138.563C97.0346 132.891 95.2625 127.136 91.906 121.93C89.5945 118.343 88.5398 114.167 88.8625 109.867C89.5848 100.221 97.4102 92.4874 107.07 91.8759C112.536 91.5339 117.727 93.3976 121.7 97.1249C125.62 100.804 127.864 105.995 127.864 111.365C127.864 115.135 126.79 118.79 124.753 121.94C121.455 127.049 120.106 131.412 120.106 137.003V139.16L97.0298 144.617L97.0346 144.621ZM108.347 93.282C107.952 93.282 107.557 93.2965 107.162 93.3205C98.2192 93.884 90.9717 101.045 90.3024 109.978C90.0038 113.965 90.9814 117.827 93.1195 121.15C96.6253 126.592 98.4793 132.611 98.4793 138.563V142.791L118.666 138.019V137.008C118.666 131.114 120.077 126.524 123.545 121.16C125.428 118.241 126.424 114.856 126.424 111.365C126.424 106.318 124.397 101.632 120.713 98.1747C117.323 94.9916 112.969 93.2772 108.347 93.2772V93.282Z" fill="black"/>
<path d="M99.8757 105.547L98.7537 104.637C99.1774 104.116 99.6445 103.616 100.136 103.158L101.123 104.213C100.68 104.627 100.261 105.075 99.8757 105.547ZM102.539 103.062L101.71 101.877C102.259 101.492 102.842 101.14 103.439 100.832L104.099 102.118C103.56 102.397 103.035 102.715 102.539 103.062ZM105.775 101.4L105.298 100.038C105.934 99.8161 106.593 99.6379 107.253 99.5079L107.533 100.924C106.94 101.039 106.348 101.203 105.775 101.4ZM109.329 100.702L109.285 99.2575C109.69 99.243 110.725 99.2382 111.202 99.2334L111.245 100.678C110.749 100.678 109.728 100.688 109.329 100.702Z" fill="black"/>
<path d="M96.9769 112.809L95.537 112.703C95.7585 109.746 96.8709 106.958 98.7539 104.642L99.8759 105.552C98.176 107.637 97.1743 110.146 96.9769 112.809Z" fill="black"/>
<path d="M130.086 126.377L129.212 127.527L133.987 131.153L134.86 130.002L130.086 126.377Z" fill="black"/>
<path d="M134.727 111.506L134.672 112.949L140.663 113.18L140.718 111.737L134.727 111.506Z" fill="black"/>
<path d="M135.033 93.4202L129.994 96.668L130.776 97.8823L135.816 94.6345L135.033 93.4202Z" fill="black"/>
<path d="M119.879 81.6771L117.615 87.2285L118.952 87.7741L121.217 82.2227L119.879 81.6771Z" fill="black"/>
<path d="M102.137 80.4399L100.728 80.7598L102.055 86.6065L103.464 86.2866L102.137 80.4399Z" fill="black"/>
<path d="M85.4876 89.9153L84.517 90.9854L88.9577 95.0134L89.9284 93.9433L85.4876 89.9153Z" fill="black"/>
<path d="M77.2808 107.227L77.0995 108.66L83.0476 109.413L83.2289 107.979L77.2808 107.227Z" fill="black"/>
<path d="M85.7817 123.315L80.4773 126.109L81.1506 127.388L86.4551 124.593L85.7817 123.315Z" fill="black"/>
<path d="M119.208 145.805L97.5779 150.91L97.9097 152.316L119.54 147.211L119.208 145.805Z" fill="black"/>
<path d="M108.337 159.463C105.592 159.463 103.015 158.279 101.614 156.372L102.78 155.515C103.916 157.06 106.045 158.019 108.337 158.019C110.629 158.019 112.757 157.06 113.894 155.515L115.059 156.372C113.658 158.279 111.082 159.463 108.337 159.463Z" fill="black"/>
<path d="M165.296 162.054H163.852V81.599H129.242V80.1543H165.296V162.054Z" fill="black"/>
<path d="M54.1565 162.054H52.7118V80.1543H93.3412V81.599H54.1565V162.054Z" fill="black"/>
<path d="M162.161 181.933H55.7072C49.5288 181.933 44.5061 176.906 44.5061 170.727V165.868H173.367V170.727C173.367 176.906 168.34 181.933 162.161 181.933ZM45.9459 167.318V170.732C45.9459 176.111 50.3233 180.493 55.7024 180.493H162.157C167.536 180.493 171.918 176.116 171.918 170.732V167.318H45.9459Z" fill="black"/>
<path d="M156.344 161.741H154.899V91.2591H140.414V89.8145H156.344V161.741Z" fill="black"/>
<path d="M62.8007 161.741H61.356V89.8145H79.6939V91.2591H62.8007V161.741Z" fill="black"/>
<path d="M124.522 172.807H93.3411V174.251H124.522V172.807Z" fill="black"/>
</svg>
