<svg width="23" height="12" viewBox="0 0 23 12" fill="none" xmlns="http://www.w3.org/2000/svg">
<path d="M5.87029 1.8V0H22.1666V1.8H5.87029ZM5.87029 6.9V5.1H22.1666V6.9H5.87029ZM5.87029 12V10.2H22.1666V12H5.87029ZM1.72214 1.8C1.4851 1.8 1.2777 1.71 1.09992 1.53C0.922141 1.35 0.833252 1.135 0.833252 0.885C0.833252 0.635 0.922141 0.425 1.09992 0.255C1.2777 0.085 1.49004 0 1.73696 0C1.98387 0 2.19128 0.08625 2.35918 0.25875C2.52708 0.43125 2.61103 0.645 2.61103 0.9C2.61103 1.14 2.52584 1.35 2.35547 1.53C2.1851 1.71 1.97399 1.8 1.72214 1.8ZM1.72214 6.9C1.4851 6.9 1.2777 6.81 1.09992 6.63C0.922141 6.45 0.833252 6.235 0.833252 5.985C0.833252 5.735 0.922141 5.525 1.09992 5.355C1.2777 5.185 1.49004 5.1 1.73696 5.1C1.98387 5.1 2.19128 5.18625 2.35918 5.35875C2.52708 5.53125 2.61103 5.745 2.61103 6C2.61103 6.24 2.52584 6.45 2.35547 6.63C2.1851 6.81 1.97399 6.9 1.72214 6.9ZM1.72214 12C1.4851 12 1.2777 11.91 1.09992 11.73C0.922141 11.55 0.833252 11.335 0.833252 11.085C0.833252 10.835 0.922141 10.625 1.09992 10.455C1.2777 10.285 1.49004 10.2 1.73696 10.2C1.98387 10.2 2.19128 10.2863 2.35918 10.4587C2.52708 10.6312 2.61103 10.845 2.61103 11.1C2.61103 11.34 2.52584 11.55 2.35547 11.73C2.1851 11.91 1.97399 12 1.72214 12Z" fill="#4F63E3"/>
</svg>
