<svg width="24" height="24" viewBox="0 0 24 24" fill="none" xmlns="http://www.w3.org/2000/svg">
<path d="M19.7159 20.79L13.2943 14.3684C12.806 14.7917 12.2366 15.1213 11.5862 15.3573C10.9357 15.5933 10.2436 15.7113 9.50973 15.7113C7.74909 15.7113 6.25901 15.1009 5.03949 13.8801C3.81997 12.6593 3.21021 11.1861 3.21021 9.46066C3.21021 7.7352 3.82062 6.26206 5.04146 5.04122C6.2623 3.82038 7.73952 3.20996 9.47311 3.20996C11.2067 3.20996 12.6798 3.82038 13.8925 5.04122C15.1052 6.26206 15.7116 7.73642 15.7116 9.46432C15.7116 10.1618 15.5976 10.8361 15.3698 11.4872C15.1419 12.1384 14.8 12.7488 14.3443 13.3185L20.7903 19.7157L19.7159 20.79ZM9.48532 14.2463C10.8079 14.2463 11.9321 13.7784 12.8579 12.8424C13.7837 11.9064 14.2466 10.7792 14.2466 9.46066C14.2466 8.14215 13.7837 7.01491 12.8579 6.07893C11.9321 5.14296 10.8079 4.67497 9.48532 4.67497C8.14918 4.67497 7.01346 5.14296 6.07815 6.07893C5.14286 7.01491 4.67521 8.14215 4.67521 9.46066C4.67521 10.7792 5.14286 11.9064 6.07815 12.8424C7.01346 13.7784 8.14918 14.2463 9.48532 14.2463Z" fill="black"/>
</svg>
