<svg width="22" height="21" viewBox="0 0 22 21" fill="none" xmlns="http://www.w3.org/2000/svg">
<path d="M19.4 20.8532L15.2 16.7282C14.6167 16.9615 13.9583 17.1407 13.225 17.2657C12.4917 17.3907 11.75 17.4532 11 17.4532C8.56667 17.4532 6.35833 16.774 4.375 15.4157C2.39167 14.0574 0.933333 12.2365 0 9.95319C0.333333 9.08652 0.795833 8.24069 1.3875 7.41569C1.97917 6.59069 2.7 5.80319 3.55 5.05319L0.4 1.90319L1.45 0.828186L20.375 19.7532L19.4 20.8532ZM11 14.2032C11.2333 14.2032 11.4833 14.1824 11.75 14.1407C12.0167 14.099 12.2417 14.0365 12.425 13.9532L7 8.52819C6.91667 8.72819 6.85417 8.95319 6.8125 9.20319C6.77083 9.45319 6.75 9.70319 6.75 9.95319C6.75 11.1532 7.16667 12.1615 8 12.9782C8.83333 13.7949 9.83333 14.2032 11 14.2032ZM17.95 15.2032L14.725 11.9782C14.8917 11.7115 15.0208 11.399 15.1125 11.0407C15.2042 10.6824 15.25 10.3199 15.25 9.95319C15.25 8.76985 14.8375 7.76569 14.0125 6.94069C13.1875 6.11569 12.1833 5.70319 11 5.70319C10.6333 5.70319 10.275 5.74485 9.925 5.82819C9.575 5.91152 9.25833 6.04485 8.975 6.22819L6.225 3.45319C6.80833 3.18652 7.55417 2.95319 8.4625 2.75319C9.37083 2.55319 10.2583 2.45319 11.125 2.45319C13.5083 2.45319 15.6875 3.13235 17.6625 4.49069C19.6375 5.84902 21.0833 7.66985 22 9.95319C21.5667 11.0199 21.0083 11.9949 20.325 12.8782C19.6417 13.7615 18.85 14.5365 17.95 15.2032ZM13.625 10.8782L10.075 7.32819C10.5583 7.14485 11.0583 7.10735 11.575 7.21569C12.0917 7.32402 12.5417 7.56152 12.925 7.92819C13.3083 8.31152 13.575 8.74069 13.725 9.21569C13.875 9.69069 13.8417 10.2449 13.625 10.8782Z" fill="#828282"/>
</svg>
