<svg width="24" height="24" viewBox="0 0 24 24" fill="none" xmlns="http://www.w3.org/2000/svg">
<path d="M8.49539 20.9253C8.04986 20.9253 7.67006 20.7667 7.35598 20.4494C7.04189 20.1321 6.88485 19.7507 6.88485 19.3052C6.88485 18.8597 7.04348 18.4799 7.36073 18.1658C7.678 17.8517 8.05939 17.6947 8.5049 17.6947C8.95042 17.6947 9.33022 17.8533 9.64431 18.1706C9.95839 18.4878 10.1154 18.8692 10.1154 19.3147C10.1154 19.7603 9.95681 20.1401 9.63955 20.4542C9.32228 20.7682 8.94089 20.9253 8.49539 20.9253ZM17.4692 20.9253C17.0237 20.9253 16.6439 20.7667 16.3298 20.4494C16.0157 20.1321 15.8587 19.7507 15.8587 19.3052C15.8587 18.8597 16.0173 18.4799 16.3346 18.1658C16.6519 17.8517 17.0332 17.6947 17.4788 17.6947C17.9243 17.6947 18.3041 17.8533 18.6182 18.1706C18.9323 18.4878 19.0893 18.8692 19.0893 19.3147C19.0893 19.7603 18.9307 20.1401 18.6134 20.4542C18.2961 20.7682 17.9148 20.9253 17.4692 20.9253ZM7.33354 6.11842L9.80135 11.2335H16.2625L19.0669 6.11842H7.33354ZM6.6605 4.77234H19.8762C20.2196 4.77234 20.481 4.92938 20.6601 5.24346C20.8393 5.55755 20.8392 5.87163 20.6597 6.18572L17.631 11.6373C17.4665 11.9215 17.2529 12.1496 16.9903 12.3216C16.7277 12.4936 16.4402 12.5796 16.1279 12.5796H9.33022L8.07388 14.9128H19.0893V16.2589H8.2758C7.64763 16.2589 7.19519 16.0495 6.9185 15.6307C6.64181 15.2119 6.64555 14.7408 6.92972 14.2173L8.36553 11.57L4.95547 4.34608H3.20557V3H5.83042L6.6605 4.77234Z" fill="white"/>
</svg>
