<svg width="25" height="24" viewBox="0 0 25 24" fill="none" xmlns="http://www.w3.org/2000/svg">
<path d="M11.8378 20.8176V19.5949H20.1067C20.2035 19.5949 20.2829 19.5638 20.3451 19.5016C20.4073 19.4394 20.4384 19.36 20.4384 19.2633V11.0937C20.4384 10.052 20.2208 9.05756 19.7855 8.11046C19.3503 7.16337 18.7659 6.32853 18.0323 5.60594C17.2986 4.88335 16.4538 4.30721 15.4977 3.87753C14.5416 3.44784 13.5427 3.233 12.501 3.233C11.4592 3.233 10.4603 3.44784 9.50422 3.87753C8.54816 4.30721 7.7033 4.88335 6.96966 5.60594C6.23601 6.32853 5.65158 7.16337 5.21639 8.11046C4.78117 9.05756 4.56356 10.052 4.56356 11.0937V17.626H4.1491C3.62546 17.626 3.18023 17.4426 2.81341 17.0758C2.44659 16.709 2.26318 16.2638 2.26318 15.7401V13.5848C2.26318 13.227 2.36197 12.903 2.55954 12.6129C2.75711 12.3227 3.01755 12.0789 3.34085 11.8813L3.39061 10.4637C3.49008 9.22167 3.80231 8.08114 4.32731 7.04217C4.85233 6.00319 5.52795 5.11204 6.35416 4.36873C7.18035 3.62543 8.12123 3.0448 9.1768 2.62684C10.2324 2.20891 11.3404 1.99994 12.501 1.99994C13.6726 1.99994 14.7862 2.20718 15.8417 2.62167C16.8973 3.03616 17.8354 3.61782 18.6561 4.36665C19.4767 5.1155 20.1496 6.00665 20.6746 7.04009C21.1996 8.07354 21.5119 9.20922 21.6113 10.4472L21.6611 11.8378C21.9844 11.9994 22.2448 12.2219 22.4424 12.5051C22.64 12.7883 22.7387 13.0943 22.7387 13.4231V15.9018C22.7387 16.2417 22.64 16.5504 22.4424 16.8282C22.2448 17.1059 21.9844 17.3255 21.6611 17.4872V19.2633C21.6611 19.6871 21.508 20.0521 21.2018 20.3583C20.8956 20.6645 20.5305 20.8176 20.1067 20.8176H11.8378ZM9.47523 13.16C9.27351 13.16 9.09701 13.0843 8.94572 12.933C8.79444 12.7817 8.71879 12.6007 8.71879 12.39C8.71879 12.1863 8.79444 12.0115 8.94572 11.8657C9.09701 11.72 9.278 11.6471 9.4887 11.6471C9.69249 11.6471 9.86726 11.7211 10.013 11.8691C10.1588 12.0171 10.2317 12.1952 10.2317 12.4035C10.2317 12.6052 10.1577 12.7817 10.0096 12.933C9.86165 13.0843 9.68351 13.16 9.47523 13.16ZM15.5267 13.16C15.325 13.16 15.1485 13.0843 14.9972 12.933C14.8459 12.7817 14.7703 12.6007 14.7703 12.39C14.7703 12.1863 14.8459 12.0115 14.9972 11.8657C15.1485 11.72 15.3295 11.6471 15.5402 11.6471C15.7439 11.6471 15.9187 11.7211 16.0645 11.8691C16.2103 12.0171 16.2831 12.1952 16.2831 12.4035C16.2831 12.6052 16.2091 12.7817 16.0611 12.933C15.9131 13.0843 15.735 13.16 15.5267 13.16ZM6.43498 11.6139C6.37005 10.6164 6.5096 9.71072 6.85363 8.89696C7.19764 8.08318 7.6622 7.39272 8.24732 6.82558C8.83243 6.25843 9.50493 5.82183 10.2648 5.51579C11.0247 5.20977 11.7881 5.05676 12.5548 5.05676C14.0926 5.05676 15.3941 5.54378 16.4593 6.51783C17.5245 7.49186 18.176 8.70629 18.4136 10.1611C16.822 10.1432 15.4134 9.71557 14.1879 8.87832C12.9624 8.04104 12.0202 6.9544 11.3611 5.61838C11.0876 6.99032 10.5142 8.20476 9.64103 9.2617C8.76784 10.3186 7.69915 11.1027 6.43498 11.6139Z" fill="#9963F7"/>
<rect x="8.49023" y="19.0666" width="4.01367" height="2.28589" rx="1" fill="#9963F7"/>
</svg>
