<svg width="24" height="24" viewBox="0 0 24 24" fill="none" xmlns="http://www.w3.org/2000/svg">
<path d="M5.80967 22C5.41682 22 5.08051 21.8601 4.80075 21.5804C4.52098 21.3006 4.3811 20.9643 4.3811 20.5714V10.2381C4.3811 9.84524 4.52098 9.50893 4.80075 9.22917C5.08051 8.9494 5.41682 8.80952 5.80967 8.80952H7.47634V6.52381C7.47634 5.27222 7.91766 4.20536 8.80029 3.32321C9.68293 2.44107 10.7504 2 12.0027 2C13.255 2 14.3216 2.44107 15.2025 3.32321C16.0835 4.20536 16.524 5.27222 16.524 6.52381V8.80952H18.1906C18.5835 8.80952 18.9198 8.9494 19.1996 9.22917C19.4793 9.50893 19.6192 9.84524 19.6192 10.2381V20.5714C19.6192 20.9643 19.4793 21.3006 19.1996 21.5804C18.9198 21.8601 18.5835 22 18.1906 22H5.80967ZM5.80967 20.5714H18.1906V10.2381H5.80967L5.80967 20.5714ZM12.0042 17.2381C12.5094 17.2381 12.9406 17.0632 13.2978 16.7135C13.6549 16.3638 13.8335 15.9435 13.8335 15.4524C13.8335 14.9762 13.6536 14.5437 13.2938 14.1548C12.934 13.7659 12.5014 13.5714 11.9962 13.5714C11.4909 13.5714 11.0597 13.7659 10.7025 14.1548C10.3454 14.5437 10.1668 14.9802 10.1668 15.4643C10.1668 15.9484 10.3467 16.3651 10.7065 16.7143C11.0663 17.0635 11.4989 17.2381 12.0042 17.2381ZM8.90491 8.80952H15.0954V6.52381C15.0954 5.66402 14.7947 4.9332 14.1934 4.33136C13.5921 3.7295 12.862 3.42857 12.003 3.42857C11.1439 3.42857 10.4128 3.7295 9.80968 4.33136C9.2065 4.9332 8.90491 5.66402 8.90491 6.52381V8.80952Z" fill="#464646"/>
</svg>
