<svg width="24" height="25" viewBox="0 0 24 25" fill="none" xmlns="http://www.w3.org/2000/svg">
<path d="M4.35 21.5002C3.99 21.5002 3.675 21.3652 3.405 21.0952C3.135 20.8252 3 20.5102 3 20.1502V10.2502C3 9.89024 3.135 9.57524 3.405 9.30524C3.675 9.03524 3.99 8.90024 4.35 8.90024H19.65C20.01 8.90024 20.325 9.03524 20.595 9.30524C20.865 9.57524 21 9.89024 21 10.2502V20.1502C21 20.5102 20.865 20.8252 20.595 21.0952C20.325 21.3652 20.01 21.5002 19.65 21.5002H4.35ZM4.35 20.1502H19.65V10.2502H4.35V20.1502ZM4.5525 7.55024V6.20024H19.4475V7.55024H4.5525ZM7.5 4.85024V3.50024H16.5V4.85024H7.5Z" fill="#464646"/>
</svg>
