<svg width="57" height="57" viewBox="0 0 57 57" fill="none" xmlns="http://www.w3.org/2000/svg">
<g clip-path="url(#clip0_283_61297)">
<g clip-path="url(#clip1_283_61297)">
<path d="M56.5 28.0547C56.5 43.5187 43.964 56.0547 28.5 56.0547C13.036 56.0547 0.5 43.5187 0.5 28.0547C0.5 12.5907 13.036 0.0546875 28.5 0.0546875C43.964 0.0546875 56.5 12.5907 56.5 28.0547Z" fill="#E9EBFC"/>
<path d="M36.6164 20.4556C37.417 19.655 38.7149 19.655 39.5154 20.4556C40.3159 21.2561 40.3159 22.554 39.5154 23.3545L27.2161 35.6538C26.4156 36.4544 25.1177 36.4544 24.3171 35.6538L17.4842 28.8209C16.6837 28.0204 16.6837 26.7224 17.4842 25.9219C18.2847 25.1214 19.5826 25.1214 20.3832 25.9219L25.7666 31.3054L36.6164 20.4556Z" fill="#4F63E3"/>
</g>
</g>
<defs>
<clipPath id="clip0_283_61297">
<rect width="56" height="56" fill="white" transform="translate(0.5 0.0546875)"/>
</clipPath>
<clipPath id="clip1_283_61297">
<rect width="56" height="56" fill="white" transform="translate(0.5 0.0546875)"/>
</clipPath>
</defs>
</svg>
