<svg width="200" height="200" viewBox="0 0 200 200" fill="none" xmlns="http://www.w3.org/2000/svg">
<g clip-path="url(#clip0_34_70487)">
<path d="M137.212 92.2459L123.009 92.2893V83.2575C123.009 79.7729 125.819 76.1092 129.296 76.0929L131.202 76.082C134.521 76.082 137.212 79.6101 137.212 82.9373V92.2459Z" fill="#A7B1F1"/>
<path d="M143.927 115.661C142.14 116.024 139.048 116.421 135.322 115.661C131.64 114.912 128.971 113.365 127.471 112.339C125.971 113.365 123.296 114.912 119.619 115.661C115.899 116.421 112.802 116.024 111.015 115.661C105.573 127.021 106.006 139.407 111.389 147.527C112.315 148.927 117.919 157.264 127.471 159.674C127.503 159.685 127.455 159.69 127.471 159.696C127.487 159.696 127.438 159.685 127.471 159.674C137.023 157.264 142.627 148.927 143.553 147.527C148.935 139.407 149.369 127.021 143.927 115.661Z" fill="#A7B1F1"/>
<path d="M127.471 165.015C127.043 165.015 126.621 164.95 126.209 164.82L123.058 163.838C114.329 160.494 108.903 153.373 106.981 150.469C100.456 140.618 100.164 126.055 106.245 113.365L108.032 109.631L112.076 110.456C114.199 110.89 116.441 110.89 118.563 110.456C120.67 110.027 122.717 109.158 124.487 107.948L127.471 105.907L130.454 107.948C132.225 109.158 134.277 110.027 136.378 110.456C138.501 110.89 140.743 110.89 142.865 110.456L146.916 109.631L148.702 113.365C154.783 126.055 154.491 140.618 147.966 150.469C146.038 153.373 140.624 160.494 131.895 163.838L128.732 164.825C128.321 164.956 127.893 165.021 127.471 165.021V165.015ZM123.61 162.307L126.691 163.268C127.2 163.425 127.742 163.425 128.256 163.268L131.364 162.301C139.606 159.143 144.777 152.347 146.618 149.573C152.834 140.189 153.078 126.256 147.246 114.076L146.006 111.487L143.201 112.057C140.867 112.535 138.398 112.535 136.064 112.057C133.752 111.585 131.499 110.629 129.55 109.3L127.482 107.883L125.413 109.3C123.464 110.629 121.211 111.585 118.894 112.057C116.56 112.535 114.091 112.535 111.757 112.057L108.952 111.487L107.712 114.076C101.875 126.261 102.118 140.194 108.34 149.573C110.176 152.347 115.342 159.137 123.621 162.312L123.61 162.307Z" fill="#0D0D0D"/>
<path d="M125.327 144.151L118.628 137.437L119.776 136.281L125.142 141.66L135.978 126.973L137.283 127.939L125.327 144.151Z" fill="#0D0D0D"/>
<path d="M27.4314 173.276V179.334C27.4314 184.593 32.0069 188.273 37.6059 187.502C37.633 187.502 112.997 187.502 112.997 187.502C107.393 187.502 102.806 183.177 102.806 177.89V173.276H27.4314Z" fill="#A7B1F1"/>
<path d="M138.024 93.0596H125.197V91.4313H136.4V83.2137C136.4 80.109 134.099 77.4277 131.05 76.9772C130.763 76.9284 130.471 76.9066 130.113 76.9066C126.648 76.9066 123.827 79.7399 123.827 83.2191V87.8707H122.202V83.2191C122.202 78.8389 125.754 75.2783 130.113 75.2783C130.568 75.2783 130.947 75.3109 131.31 75.3706C135.127 75.9351 138.024 79.3111 138.024 83.2191V93.065V93.0596Z" fill="#0D0D0D"/>
<path d="M129.761 75.2734H114.583V76.9018H129.761V75.2734Z" fill="#0D0D0D"/>
<path d="M41.8999 173.276H40.2754V83.61C40.2754 79.0127 44.0063 75.2676 48.5981 75.2676H94.9221V76.8959H48.5926C44.8997 76.8959 41.8945 79.9083 41.8945 83.61V173.276H41.8999Z" fill="#0D0D0D"/>
<path d="M123.827 82.9482H122.202V102.103H123.827V82.9482Z" fill="#0D0D0D"/>
<path d="M112.856 188.371V186.742C118.006 186.742 122.197 182.541 122.197 177.379V169.992H123.821V177.379C123.821 183.442 118.899 188.371 112.856 188.371Z" fill="#0D0D0D"/>
<path d="M111.919 188.419C111.584 188.419 111.253 188.403 110.918 188.371L36.9399 188.327C33.8047 188.609 30.9565 187.741 28.9205 185.879C27.0848 184.202 26.0723 181.803 26.0723 179.133V172.462H103.072V178.08C103.072 180.441 104.144 182.764 106.023 184.452C107.458 185.744 109.207 186.536 111.004 186.737H112.862L112.948 188.36C112.607 188.398 112.266 188.414 111.919 188.414V188.419ZM27.6967 174.09V179.133C27.6967 181.369 28.4981 183.29 30.0143 184.674C31.7145 186.232 34.135 186.949 36.8262 186.699H36.902L106.337 186.737C105.849 186.422 105.378 186.064 104.934 185.662C102.72 183.665 101.447 180.902 101.447 178.08V174.09H27.6967Z" fill="#0D0D0D"/>
<path d="M64.8372 101.82H53.3794V90.335H64.8372V101.82ZM55.0038 100.192H63.2128V91.9633H55.0038V100.192Z" fill="#A7B1F1"/>
<path d="M93.2381 101.82H81.7803V90.335H93.2381V101.82ZM83.4047 100.192H91.6137V91.9633H83.4047V100.192Z" fill="#A7B1F1"/>
<path d="M64.8372 128.101H53.3794V116.616H64.8372V128.101ZM55.0038 126.473H63.2128V118.245H55.0038V126.473Z" fill="#A7B1F1"/>
<path d="M93.2381 128.101H81.7803V116.616H93.2381V128.101ZM83.4047 126.473H91.6137V118.245H83.4047V126.473Z" fill="#A7B1F1"/>
<path d="M92.4259 139.613H53.1032V141.242H92.4259V139.613Z" fill="#0D0D0D"/>
<path d="M77.1343 149.471H53.1032V151.099H77.1343V149.471Z" fill="#0D0D0D"/>
<path d="M92.4259 160.418H53.1032V162.046H92.4259V160.418Z" fill="#0D0D0D"/>
<path d="M91.3321 149.471H84.7801V151.099H91.3321V149.471Z" fill="#0D0D0D"/>
<path d="M91.879 107.861H78.7696V109.49H91.879V107.861Z" fill="#0D0D0D"/>
<path d="M73.5768 89.5098H71.9523V102.65H73.5768V89.5098Z" fill="#0D0D0D"/>
<path d="M73.5768 117.979H71.9523V127.835H73.5768V117.979Z" fill="#0D0D0D"/>
<path d="M58.0199 107.861H52.5563V109.49H58.0199V107.861Z" fill="#0D0D0D"/>
<path d="M70.0355 107.861H64.5719V109.49H70.0355V107.861Z" fill="#0D0D0D"/>
<path d="M105.405 56.314C104.636 56.314 103.878 56.2652 103.131 56.1675L103.337 54.55C104.014 54.6369 104.701 54.6803 105.384 54.6803L105.4 56.3086L105.405 56.314ZM107.68 56.1621L107.468 54.55C108.151 54.4632 108.833 54.3275 109.494 54.1484L109.916 55.7224C109.185 55.9178 108.432 56.0698 107.68 56.1675V56.1621ZM100.895 55.7278C100.164 55.5324 99.4327 55.2882 98.7342 54.9951L99.3569 53.4916C99.9904 53.7521 100.651 53.9801 101.317 54.1538L100.9 55.7278H100.895ZM112.076 54.9842L111.454 53.4808C112.087 53.2148 112.71 52.9054 113.306 52.5635L114.118 53.9747C113.463 54.3546 112.775 54.6966 112.076 54.9897V54.9842ZM96.682 53.9855C96.0268 53.6056 95.3878 53.1768 94.7868 52.7154L95.7723 51.4236C96.3192 51.8416 96.8986 52.2324 97.4942 52.5743L96.682 53.9855ZM116.008 52.6992L115.017 51.4074C115.564 50.9894 116.083 50.5281 116.571 50.0396L117.719 51.1903C117.183 51.7276 116.609 52.2378 116.008 52.6992ZM93.0648 51.212C92.5288 50.6746 92.0198 50.0993 91.5595 49.4968L92.8483 48.5035C93.2706 49.0517 93.7255 49.5728 94.2128 50.0613L93.0648 51.212ZM119.224 49.4751L117.935 48.4818C118.352 47.9336 118.742 47.3528 119.083 46.7558L120.491 47.5699C120.112 48.2267 119.684 48.8672 119.224 49.4697V49.4751ZM90.2924 47.6025C89.9134 46.9458 89.5723 46.2564 89.2799 45.5563L90.7798 44.9321C91.0451 45.5671 91.3537 46.1913 91.7003 46.7884L90.2979 47.6079L90.2924 47.6025ZM121.504 45.5237L120.004 44.8995C120.269 44.2645 120.491 43.6023 120.67 42.9347L122.24 43.3526C122.045 44.0853 121.796 44.8181 121.509 45.5183L121.504 45.5237ZM88.5434 43.3906C88.3485 42.6578 88.1969 41.9034 88.094 41.1489L89.7022 40.9372C89.7943 41.6211 89.9296 42.305 90.1083 42.9672L88.538 43.3906H88.5434ZM122.679 41.1164L121.07 40.9047C121.157 40.2262 121.206 39.526 121.206 38.8367V38.7716L122.83 38.7607V38.8421C122.83 39.602 122.782 40.3673 122.684 41.1164H122.679ZM87.9424 38.8693V38.8367C87.9424 38.0877 87.9911 37.3332 88.0832 36.5896L89.6968 36.7959C89.6102 37.4689 89.5669 38.1528 89.5669 38.8313L87.9424 38.8638V38.8693ZM121.06 36.7036C120.968 36.0197 120.832 35.3358 120.648 34.6736L122.218 34.2448C122.419 34.9776 122.57 35.732 122.668 36.4865L121.06 36.7036ZM90.0921 34.7659L88.5218 34.348C88.7167 33.6152 88.9604 32.8825 89.2528 32.1769L90.7527 32.7956C90.4928 33.4307 90.2708 34.0929 90.0921 34.7605V34.7659ZM119.977 32.7142C119.711 32.0792 119.403 31.455 119.056 30.8634L120.459 30.0438C120.843 30.7005 121.184 31.3898 121.477 32.09L119.977 32.7196V32.7142ZM91.6624 30.9448L90.2545 30.1306C90.6336 29.4739 91.0559 28.8334 91.5216 28.2255L92.8103 29.2133C92.3934 29.7615 92.0035 30.3423 91.6624 30.9393V30.9448ZM117.897 29.1482C117.475 28.6054 117.015 28.0789 116.527 27.5959L117.67 26.4397C118.206 26.9771 118.715 27.5524 119.181 28.1495L117.897 29.1482ZM94.1695 27.661L93.0161 26.5103C93.5522 25.973 94.1262 25.4627 94.7272 25.0014L95.7181 26.2878C95.1712 26.7111 94.6514 27.1725 94.1695 27.661ZM114.968 26.2335C114.421 25.8156 113.842 25.4302 113.246 25.0828L114.053 23.6716C114.708 24.0515 115.347 24.4749 115.953 24.9363L114.968 26.2281V26.2335ZM97.4346 25.1317L96.617 23.7259C97.2722 23.3459 97.9599 23.004 98.6584 22.7109L99.2865 24.2144C98.653 24.4803 98.0303 24.7897 97.4346 25.1371V25.1317ZM111.383 24.1709C110.744 23.9104 110.089 23.6879 109.423 23.5088L109.835 21.9347C110.566 22.1301 111.297 22.3744 112.001 22.662L111.383 24.1709ZM101.236 23.5359L100.814 21.9619C101.545 21.7665 102.297 21.6145 103.05 21.5114L103.266 23.1234C102.584 23.2157 101.902 23.3514 101.241 23.5305L101.236 23.5359ZM107.393 23.1125C106.727 23.0257 106.05 22.9877 105.378 22.9877L105.34 21.8479L105.362 21.3594C106.12 21.3594 106.867 21.4082 107.593 21.5005L107.387 23.118L107.393 23.1125Z" fill="#0D0D0D"/>
<path d="M108.037 30.8036C108.037 34.3099 102.736 34.3099 102.736 30.8036C102.736 27.2972 108.037 27.2972 108.037 30.8036ZM103.315 35.732V48.6771H107.62V35.732H103.315Z" fill="#A7B1F1"/>
<path d="M105.373 80.5001L96.3625 65.8289L78.9212 66.008C76.934 66.0297 75.055 65.2699 73.6418 63.8641C72.2285 62.4583 71.4487 60.5911 71.4487 58.5937V20.0568C71.4487 15.8448 74.8655 12.4199 79.0674 12.4199H131.868C136.07 12.4199 139.486 15.8448 139.486 20.0568V58.1866C139.486 62.3986 136.07 65.8235 131.868 65.8235H114.827L105.373 80.5001ZM97.2668 64.1897L105.405 77.4443L113.939 64.1897H131.862C135.165 64.1897 137.857 61.4921 137.857 58.1812V20.0568C137.857 16.7458 135.165 14.0482 131.862 14.0482H79.062C75.759 14.0482 73.0678 16.7458 73.0678 20.0568V58.5992C73.0678 60.1569 73.6742 61.617 74.7789 62.7134C75.8835 63.8098 77.3563 64.4068 78.8996 64.3851L97.2614 64.1952L97.2668 64.1897Z" fill="#A7B1F1"/>
</g>
<defs>
<clipPath id="clip0_34_70487">
<rect width="200" height="200" fill="white"/>
</clipPath>
</defs>
</svg>
