<svg width="201" height="201" viewBox="0 0 201 201" fill="none" xmlns="http://www.w3.org/2000/svg">
<path d="M155.463 148.286C151.3 155.117 142.356 157.298 135.49 153.159C128.618 149.019 126.425 140.128 130.589 133.302L75.0598 99.86C70.8963 106.691 61.9529 108.872 55.0864 104.732C48.2151 100.593 46.0217 91.7021 50.1852 84.8758L36.9812 77.0508L22.0205 101.602L24.7865 109.18L25.068 119.094C25.4756 133.369 33.1428 146.463 45.4296 153.863L59.1966 162.156C66.2378 166.396 74.264 168.741 82.4892 168.958L113.41 165.639L126.245 170.55C133.971 173.507 142.342 174.67 150.523 173.44C151.207 173.339 151.892 173.218 152.576 173.088L159.263 170.594L164.984 170.922L170.87 157.689L155.468 148.286H155.463ZM82.9794 156.478L79.9513 156.753C74.1815 156.208 68.601 154.374 63.627 151.378L52.4271 144.634C42.4307 138.613 37.9711 127.006 37.6412 115.389L44.2796 115.664L98.8669 148.687L107.738 154.215L82.9745 156.478H82.9794Z" fill="#A7B1F1"/>
<path d="M169.818 181.473H12V182.92H169.818V181.473Z" fill="black"/>
<path d="M187.777 181.473H178.926V182.92H187.777V181.473Z" fill="black"/>
<path d="M156.293 114.98L154.93 114.473L165.703 85.9132H166.207C169.881 85.9132 173.501 84.9725 176.679 83.1875L177.393 84.4466C174.141 86.2702 170.458 87.2688 166.712 87.3557L156.293 114.98Z" fill="black"/>
<path d="M177.393 84.4518L176.689 83.183L177.441 84.4229L177.393 84.4518ZM179.14 83.3664L178.315 82.1748C178.829 81.8226 179.334 81.4415 179.809 81.0507L180.736 82.1651C180.227 82.5848 179.688 82.9901 179.14 83.3664ZM182.221 80.8288L181.197 79.8012C181.644 79.367 182.071 78.9039 182.473 78.4311L183.585 79.367C183.153 79.8688 182.697 80.3608 182.221 80.8288ZM184.812 77.7943L183.623 76.9597C183.987 76.4532 184.327 75.9273 184.642 75.3918L185.899 76.1203C185.564 76.6896 185.2 77.254 184.812 77.7943ZM186.831 74.3546L185.516 73.7371C185.783 73.1775 186.025 72.5986 186.239 72.0148L187.607 72.5166C187.379 73.1389 187.117 73.7564 186.831 74.3546ZM188.214 70.6158L186.807 70.2395C186.972 69.6413 187.108 69.0286 187.214 68.4207L188.651 68.6716C188.534 69.3229 188.389 69.979 188.214 70.6158ZM188.913 66.6937L187.462 66.5682C187.515 65.9507 187.544 65.3236 187.544 64.7061H189C189 65.3718 188.971 66.0376 188.913 66.6985V66.6937Z" fill="black"/>
<path d="M189 64.7056H187.544C187.544 53.2189 178.489 43.9177 166.93 43.5318L166.261 43.5077L166.227 42.8467C166.081 40.15 165.504 37.5159 164.504 35.0169L165.858 34.4814C166.833 36.9225 167.43 39.489 167.639 42.1135C179.673 42.8467 189 52.6497 189 64.7007V64.7056Z" fill="black"/>
<path d="M164.504 35.0172C164.353 34.6409 164.193 34.2694 164.023 33.9028L165.348 33.3045C165.528 33.6953 165.693 34.0861 165.853 34.4865L164.499 35.022L164.504 35.0172ZM163.179 32.2239C162.878 31.6788 162.548 31.1384 162.208 30.6174L163.426 29.8262C163.786 30.3762 164.135 30.9503 164.455 31.5292L163.179 32.2287V32.2239ZM161.117 29.0881C160.738 28.5961 160.33 28.1088 159.913 27.6457L161 26.6808C161.442 27.1729 161.869 27.6891 162.272 28.2101L161.117 29.0881ZM123.057 27.2742L121.99 26.29C122.441 25.8076 122.917 25.3397 123.402 24.891L124.392 25.9523C123.931 26.3769 123.48 26.8207 123.057 27.2742ZM158.603 26.2949C158.152 25.8655 157.681 25.4458 157.196 25.0454L158.122 23.931C158.632 24.3507 159.132 24.7945 159.612 25.2528L158.603 26.2949ZM125.823 24.7318L124.916 23.5981C125.435 23.188 125.974 22.7973 126.522 22.4258L127.337 23.6222C126.818 23.9744 126.309 24.3459 125.818 24.7318H125.823ZM155.701 23.902C155.192 23.545 154.658 23.1977 154.124 22.8793L154.871 21.6394C155.439 21.9771 156.002 22.3438 156.541 22.7249L155.701 23.9069V23.902ZM128.944 22.6284L128.221 21.3741C128.793 21.0461 129.39 20.7373 129.987 20.4527L130.613 21.76C130.045 22.0302 129.482 22.3197 128.944 22.6284ZM152.469 21.9723C151.911 21.6925 151.334 21.432 150.751 21.1956L151.305 19.8545C151.916 20.1053 152.527 20.3803 153.119 20.6746L152.469 21.9675V21.9723ZM132.345 21.0171L131.821 19.6663C132.437 19.4299 133.073 19.2128 133.709 19.0247L134.126 20.4093C133.529 20.5877 132.928 20.7904 132.345 21.0171ZM148.985 20.554C148.388 20.361 147.777 20.1922 147.17 20.0474L147.51 18.6387C148.155 18.7931 148.801 18.9716 149.431 19.1742L148.985 20.554ZM135.951 19.9413L135.64 18.5278C136.286 18.3879 136.946 18.2673 137.601 18.1756L137.804 19.6084C137.183 19.6953 136.557 19.8062 135.951 19.9413ZM145.321 19.6808C144.705 19.5843 144.079 19.5071 143.453 19.454L143.574 18.0116C144.239 18.0695 144.904 18.1467 145.554 18.2528L145.321 19.6808ZM139.682 19.4203L139.585 17.9778C140.163 17.9392 140.745 17.9199 141.328 17.9199H141.58L141.57 19.3672H141.328C140.779 19.3672 140.226 19.3865 139.682 19.4203Z" fill="black"/>
<path d="M124.29 83.9305C113.629 83.9305 104.952 75.3047 104.952 64.7058C104.952 57.561 108.863 51.1158 115.191 47.7581C115.007 46.4652 114.919 45.2929 114.919 44.1833C114.919 37.5161 117.433 31.1626 121.999 26.29L123.067 27.2742C118.753 31.8814 116.375 37.8828 116.375 44.1833C116.375 45.3604 116.482 46.6292 116.71 48.0524L116.793 48.5734L116.317 48.8098C110.208 51.8442 106.408 57.9373 106.408 64.7058C106.408 74.5087 114.429 82.4832 124.29 82.4832C132.277 82.4832 139.352 77.1379 141.497 69.4818L142.9 69.8726C140.58 78.151 132.923 83.9305 124.29 83.9305Z" fill="black"/>
<path d="M145.006 43.7398L137.68 48.9484L140.834 50.7697L142.314 48.2072L143.574 48.9347L142.094 51.4972L143.862 52.5178L143.203 53.6595L141.435 52.639L140.043 55.0493L138.783 54.3218L140.175 51.9114L135.168 49.0208L135.207 48.9532L143.669 42.9683L145.006 43.7398ZM146.798 59.1517C145.619 58.4714 144.954 57.4106 144.801 55.9693C144.666 54.5232 145.063 52.9967 145.99 51.3898C146.918 49.783 148.042 48.6764 149.362 48.0702C150.686 47.4817 151.938 47.5277 153.116 48.208C154.3 48.8916 154.96 49.9492 155.096 51.3807C155.248 52.822 154.857 54.3518 153.923 55.9699C152.989 57.5881 151.86 58.6914 150.535 59.2798C149.227 59.878 147.982 59.8353 146.798 59.1517ZM152.403 49.4428C151.529 48.9382 150.64 48.9549 149.736 49.4927C148.839 50.0426 148.036 50.9322 147.327 52.1613C146.614 53.3961 146.243 54.5391 146.215 55.5904C146.201 56.6425 146.632 57.4209 147.506 57.9254C148.357 58.417 149.238 58.3954 150.148 57.8609C151.061 57.3207 151.874 56.4332 152.587 55.1984C153.297 53.9693 153.657 52.8242 153.668 51.7632C153.676 50.7078 153.254 49.9343 152.403 49.4428ZM163.003 54.1304L155.677 59.339L158.831 61.1603L160.311 58.5978L161.571 59.3253L160.091 61.8879L161.859 62.9084L161.2 64.0501L159.432 63.0296L158.041 65.4399L156.78 64.7124L158.172 62.3021L153.165 59.4114L153.204 59.3438L161.666 53.3589L163.003 54.1304Z" fill="black"/>
<path d="M128.201 82.322L126.769 82.585L131.608 108.62L133.04 108.357L128.201 82.322Z" fill="black"/>
<path d="M142.277 87.8601L140.823 87.9277L141.73 107.199L143.184 107.131L142.277 87.8601Z" fill="black"/>
<path d="M178.546 112.259L166.157 119.887L166.924 121.117L179.313 113.489L178.546 112.259Z" fill="black"/>
<path d="M169.026 132.559L168.969 134.005L176.47 134.297L176.527 132.85L169.026 132.559Z" fill="black"/>
<path d="M61.055 103.209C58.2987 103.209 55.5861 102.461 53.1695 101.004C45.9682 96.6669 43.6583 87.3126 48.0209 80.1534C50.1366 76.6848 53.4801 74.2437 57.4447 73.274C61.4093 72.3091 65.5098 72.9315 68.9988 75.0348C76.2001 79.3719 78.51 88.7262 74.1475 95.8902C72.0317 99.3589 68.6882 101.8 64.7285 102.77C63.5105 103.069 62.2828 103.213 61.0599 103.213L61.055 103.209ZM61.1084 74.2774C60.002 74.2774 58.8908 74.4125 57.7892 74.6779C54.2031 75.551 51.1799 77.7606 49.268 80.9012C47.356 84.037 46.7883 87.7275 47.6666 91.2927C48.5449 94.8578 50.7674 97.8633 53.9265 99.7641C57.0807 101.665 60.793 102.229 64.3791 101.356C67.9652 100.483 70.9884 98.2734 72.9003 95.1328C76.8455 88.6538 74.7589 80.192 68.2418 76.2699C66.0533 74.9528 63.6027 74.2774 61.1084 74.2774Z" fill="black"/>
<path d="M56.2897 85.475C57.8426 82.9278 61.1812 82.1124 63.7434 83.6562C66.3056 85.2 67.1257 88.5191 65.5728 91.0663C64.02 93.6135 60.6814 94.4288 58.1192 92.8851C55.557 91.3413 54.7369 88.0222 56.2897 85.475Z" fill="black"/>
<path d="M141.458 151.639C138.702 151.639 135.989 150.892 133.573 149.435C126.372 145.098 124.062 135.743 128.424 128.584C130.54 125.115 133.883 122.674 137.848 121.705C141.813 120.74 145.913 121.362 149.402 123.466C152.891 125.569 155.347 128.893 156.322 132.834C157.293 136.771 156.667 140.852 154.551 144.321C152.435 147.79 149.092 150.231 145.127 151.2C143.909 151.499 142.681 151.644 141.458 151.644V151.639ZM141.512 122.708C140.405 122.708 139.294 122.843 138.193 123.109C134.606 123.982 131.583 126.191 129.671 129.332C127.759 132.468 127.192 136.158 128.07 139.723C128.948 143.288 131.171 146.294 134.33 148.195C137.484 150.096 141.196 150.66 144.782 149.787C148.369 148.914 151.392 146.704 153.304 143.563C155.216 140.428 155.783 136.737 154.905 133.172C154.027 129.607 151.804 126.601 148.645 124.701C146.457 123.383 144.006 122.708 141.512 122.708Z" fill="black"/>
<path d="M136.693 133.901C138.246 131.354 141.585 130.538 144.147 132.082C146.709 133.626 147.529 136.945 145.976 139.492C144.423 142.039 141.085 142.855 138.522 141.311C135.96 139.767 135.14 136.448 136.693 133.901Z" fill="black"/>
<path d="M142.453 170.3C136.485 170.3 130.365 169.147 124.44 166.884L111.765 162.036L80.9704 165.341H80.9219C72.585 165.119 64.4035 162.731 57.2701 158.432L43.5032 150.139C30.9494 142.58 23.2094 129.356 22.7921 114.772L22.5155 104.974L19.667 97.1783L35.1857 71.7109L44.1728 77.1238L43.4207 78.3636L35.6758 73.6985L21.2732 97.3375L23.9616 104.704L24.2479 114.734C24.6507 128.826 32.1286 141.6 44.2553 148.904L58.0222 157.197C64.9276 161.356 72.8422 163.671 80.9073 163.893L111.954 160.565L124.955 165.538C132.865 168.563 141.129 169.547 148.864 168.385C149.519 168.288 150.179 168.172 150.824 168.047L157.598 165.519L162.97 165.828L168.396 153.637L158.535 147.698L159.287 146.458L170.24 153.058L163.892 167.333L157.822 166.981L151.164 169.456C150.48 169.586 149.776 169.707 149.082 169.813C146.903 170.141 144.686 170.305 142.444 170.305L142.453 170.3Z" fill="black"/>
<path d="M78.4129 153.135H78.345C72.4927 152.576 66.7423 150.68 61.7101 147.65L50.5102 140.906C41.2708 135.343 35.7534 124.465 35.3748 111.063L35.3506 110.286L42.9595 110.6L43.1197 110.696L97.707 143.723L96.95 144.958L42.5228 112.033L36.8598 111.801C37.413 124.344 42.6392 134.475 51.2672 139.671L62.4671 146.415C67.2907 149.319 72.8032 151.143 78.4178 151.683L81.3779 151.413L81.5137 152.856L78.4178 153.14L78.4129 153.135Z" fill="black"/>
<path d="M81.5089 152.856L81.373 151.413L82.9404 151.268L83.0763 152.711L81.5089 152.856ZM85.0077 152.537L84.8718 151.095L86.8031 150.916L86.939 152.359L85.0077 152.537ZM88.8752 152.185L88.7393 150.742L90.6707 150.564L90.8066 152.006L88.8752 152.185ZM92.7428 151.833L92.6069 150.39L94.5383 150.212L94.6741 151.654L92.7428 151.833ZM96.6103 151.481L96.4745 150.038L98.4058 149.86L98.5417 151.302L96.6103 151.481ZM100.478 151.128L100.342 149.686L102.273 149.507L102.409 150.95L100.478 151.128ZM104.345 150.776L104.21 149.334L106.141 149.155L106.277 150.598L104.345 150.776Z" fill="black"/>
<path d="M78.435 97.7563L77.6807 98.9941L122.691 126.105L123.445 124.867L78.435 97.7563Z" fill="black"/>
</svg>
