<svg width="48" height="48" viewBox="0 0 48 48" fill="none" xmlns="http://www.w3.org/2000/svg">
<g clip-path="url(#clip0_553_87515)">
<path d="M48 24C48 37.2548 37.2548 48 24 48C10.7452 48 0 37.2548 0 24C0 10.7452 10.7452 0 24 0C37.2548 0 48 10.7452 48 24Z" fill="#E9EBFC"/>
<path fill-rule="evenodd" clip-rule="evenodd" d="M24.0029 16.9219C25.1075 16.9219 26.0029 16.0264 26.0029 14.9219C26.0029 13.8173 25.1075 12.9219 24.0029 12.9219C22.8984 12.9219 22.0029 13.8173 22.0029 14.9219C22.0029 16.0264 22.8984 16.9219 24.0029 16.9219ZM26.0029 20.5629C26.0029 19.4584 25.1075 18.5629 24.0029 18.5629C22.8984 18.5629 22.0029 19.4584 22.0029 20.5629V33.0785C22.0029 34.1831 22.8984 35.0785 24.0029 35.0785C25.1075 35.0785 26.0029 34.1831 26.0029 33.0785L26.0029 20.5629Z" fill="#4F63E3"/>
</g>
<defs>
<clipPath id="clip0_553_87515">
<rect width="48" height="48" fill="white"/>
</clipPath>
</defs>
</svg>
