<svg width="25" height="24" viewBox="0 0 25 24" fill="none" xmlns="http://www.w3.org/2000/svg">
<path d="M4.20703 20.8177V3.18167L5.5102 4.33783L6.84956 3.18167L8.1889 4.33783L9.52826 3.18167L10.8676 4.33783L12.207 3.18167L13.5463 4.33783L14.8857 3.18167L16.2251 4.33783L17.5644 3.18167L18.9038 4.33783L20.2069 3.18167V20.8177L18.9038 19.6615L17.5644 20.8177L16.2251 19.6615L14.8857 20.8177L13.5463 19.6615L12.207 20.8177L10.8676 19.6615L9.52826 20.8177L8.1889 19.6615L6.84956 20.8177L5.5102 19.6615L4.20703 20.8177ZM6.74276 15.9037H17.7382V14.8359H6.74276V15.9037ZM6.74276 12.5336H17.7382V11.4658H6.74276V12.5336ZM6.74276 9.13998H17.7382V8.07213H6.74276V9.13998ZM5.27489 18.9209H19.1391V5.07844H5.27489V18.9209Z" fill="#4F63E3"/>
</svg>
