<svg width="25" height="24" viewBox="0 0 25 24" fill="none" xmlns="http://www.w3.org/2000/svg">
<path d="M6.18072 17.9716C7.23201 17.2469 8.27789 16.6852 9.31836 16.2864C10.3589 15.8876 11.4884 15.6882 12.707 15.6882C13.9256 15.6882 15.0579 15.8876 16.1038 16.2864C17.1497 16.6852 18.1983 17.2469 19.2495 17.9716C20.0147 17.085 20.5832 16.1488 20.955 15.1631C21.3268 14.1773 21.5127 13.123 21.5127 12C21.5127 9.51682 20.6659 7.42842 18.9722 5.73475C17.2786 4.0411 15.1902 3.19427 12.707 3.19427C10.2239 3.19427 8.1355 4.0411 6.44183 5.73475C4.74818 7.42842 3.90135 9.51682 3.90135 12C3.90135 13.123 4.08995 14.1773 4.46714 15.1631C4.84433 16.1488 5.41553 17.085 6.18072 17.9716ZM12.7013 12.5971C11.7551 12.5971 10.9591 12.2723 10.3133 11.6228C9.66756 10.9732 9.34468 10.1753 9.34468 9.22905C9.34468 8.2828 9.66946 7.4868 10.319 6.84105C10.9686 6.19531 11.7665 5.87244 12.7127 5.87244C13.659 5.87244 14.455 6.19721 15.1007 6.84676C15.7465 7.4963 16.0694 8.29421 16.0694 9.24047C16.0694 10.1867 15.7446 10.9827 15.095 11.6285C14.4455 12.2742 13.6476 12.5971 12.7013 12.5971ZM12.7193 22C11.3333 22 10.0329 21.7388 8.81823 21.2165C7.60358 20.6943 6.54251 19.9787 5.63504 19.0698C4.72758 18.1609 4.01272 17.1019 3.49045 15.8928C2.96817 14.6836 2.70703 13.3854 2.70703 11.998C2.70703 10.6106 2.96817 9.31304 3.49045 8.10523C4.01272 6.89741 4.7283 5.83903 5.6372 4.93012C6.54611 4.02122 7.60512 3.30564 8.81423 2.78338C10.0234 2.2611 11.3216 1.99995 12.709 1.99995C14.0963 1.99995 15.3939 2.2611 16.6018 2.78338C17.8096 3.30564 18.868 4.02122 19.7769 4.93012C20.6858 5.83903 21.4013 6.89769 21.9236 8.10608C22.4459 9.31447 22.707 10.6083 22.707 11.9876C22.707 13.3737 22.4459 14.6741 21.9236 15.8888C21.4013 17.1034 20.6858 18.1645 19.7769 19.0719C18.868 19.9794 17.8093 20.6943 16.6009 21.2165C15.3925 21.7388 14.0987 22 12.7193 22ZM12.707 20.8056C13.6854 20.8056 14.6504 20.6501 15.6018 20.339C16.5532 20.028 17.4493 19.5249 18.29 18.8299C17.4493 18.2118 16.5589 17.7327 15.619 17.3927C14.679 17.0526 13.7084 16.8825 12.707 16.8825C11.7057 16.8825 10.7333 17.0509 9.79002 17.3876C8.84669 17.7243 7.9614 18.2051 7.13415 18.8299C7.96815 19.5249 8.86086 20.028 9.81229 20.339C10.7637 20.6501 11.7286 20.8056 12.707 20.8056ZM12.7085 11.4028C13.3377 11.4028 13.8562 11.1985 14.2637 10.7901C14.6713 10.3815 14.8751 9.86265 14.8751 9.23337C14.8751 8.60407 14.6708 8.08564 14.2623 7.67807C13.8538 7.27051 13.3349 7.06673 12.7056 7.06673C12.0763 7.06673 11.5579 7.27099 11.1503 7.6795C10.7428 8.08799 10.539 8.60688 10.539 9.23618C10.539 9.86547 10.7433 10.3839 11.1518 10.7915C11.5603 11.199 12.0792 11.4028 12.7085 11.4028Z" fill="#828282"/>
</svg>
