<svg width="200" height="201" viewBox="0 0 200 201" fill="none" xmlns="http://www.w3.org/2000/svg">
<path d="M99.8932 122.883C99.7796 122.883 99.666 122.864 99.5587 122.82C81.4063 116.001 66.8138 101.268 62.3893 85.2952C57.4662 67.526 63.2414 45.2844 69.2311 38.3765C69.452 38.1172 69.7992 37.997 70.1337 38.0666L75.3976 39.142C78.585 39.7935 90.1732 39.5342 99.3378 32.949C99.666 32.7149 100.114 32.7149 100.442 32.949C109.651 39.5658 121.372 39.8062 124.603 39.1483L129.867 38.0729C130.202 38.0033 130.549 38.1235 130.77 38.3829C136.753 45.297 142.535 67.5323 137.612 85.3016C133.2 101.217 118.525 115.95 100.221 122.826C100.114 122.864 100 122.89 99.8869 122.89L99.8932 122.883ZM70.3104 40.0402C64.6678 47.1758 59.7131 68.5444 64.2134 84.7892C68.4548 100.098 82.4414 114.249 99.8932 120.922C117.49 114.198 131.559 100.047 135.788 84.7892C140.288 68.5444 135.333 47.1821 129.691 40.0402L124.982 41.0018C121.599 41.6913 109.525 41.4825 99.8932 34.8784C90.4951 41.3307 78.9322 41.8051 75.0189 41.0018L70.3104 40.0402Z" fill="#0B0E11"/>
<path d="M70.8092 59.6809L68.9473 59.3457C69.793 54.6456 71.1059 50.2175 72.6333 46.8711C72.8163 46.4726 73.2518 46.2512 73.681 46.3334L73.9272 46.384C75.4925 46.7067 77.3102 46.7699 78.5599 46.7699V48.6677C77.3544 48.6677 75.6376 48.6044 74.0534 48.3387C72.7343 51.4321 71.5603 55.5122 70.8092 59.6809Z" fill="#909DF0"/>
<path d="M89.1755 109.086C88.6453 108.719 88.1278 108.34 87.6165 107.96L88.7463 106.442C89.2386 106.809 89.7435 107.176 90.2548 107.536L89.1755 109.092V109.086ZM86.0891 106.777C85.5842 106.372 85.0919 105.961 84.6059 105.544L85.8366 104.101C86.3037 104.5 86.7834 104.898 87.2694 105.291L86.0891 106.771V106.777ZM83.1668 104.266C82.6871 103.829 82.2264 103.387 81.7719 102.937L83.0974 101.584C83.5392 102.014 83.9873 102.444 84.4481 102.868L83.1668 104.266ZM80.4212 101.558C79.9731 101.09 79.5376 100.616 79.121 100.135L80.5411 98.8762C80.9514 99.338 81.368 99.7935 81.7972 100.249L80.4275 101.558H80.4212ZM77.865 98.6675C77.4547 98.1677 77.0508 97.6617 76.6658 97.1556L78.168 96.0043C78.5403 96.4914 78.9254 96.9785 79.323 97.4656L77.8587 98.6738L77.865 98.6675ZM75.5234 95.5931C75.151 95.0618 74.7849 94.5241 74.4441 93.9927L76.0346 92.9616C76.3691 93.474 76.7163 93.9864 77.076 94.5051L75.5297 95.5995L75.5234 95.5931ZM73.4216 92.3417C73.0871 91.7787 72.7715 91.2157 72.4748 90.6527L74.1474 89.7607C74.4315 90.2984 74.7344 90.8361 75.0563 91.3801L73.4279 92.348L73.4216 92.3417ZM71.6038 88.9194C71.3261 88.3247 71.0547 87.7301 70.8149 87.1418L72.5632 86.4143C72.7967 86.971 73.0492 87.5403 73.3143 88.1033L71.6038 88.9194ZM70.1206 85.32C69.8997 84.6937 69.704 84.0675 69.5273 83.4539L71.3514 82.9351C71.5155 83.5108 71.6985 84.0991 71.9068 84.6874L70.1206 85.3136V85.32ZM69.0476 81.5688C68.9088 80.9488 68.7762 80.3099 68.6563 79.6647L70.5182 79.3231C70.6318 79.9367 70.7518 80.5503 70.8906 81.1386L69.0476 81.5624V81.5688ZM68.3533 77.7543C68.265 77.1154 68.1892 76.4765 68.1324 75.8312L70.0196 75.6478C70.0764 76.2677 70.1522 76.8813 70.2342 77.4949L68.3596 77.7543H68.3533ZM67.9809 73.9018C67.9431 73.2566 67.9178 72.6177 67.9052 71.9725L69.7987 71.9282C69.8113 72.5481 69.8366 73.168 69.8744 73.788L67.9809 73.8955V73.9018ZM69.7861 70.0621L67.8926 70.0431C67.8989 69.3979 67.9178 68.7526 67.9431 68.1137L69.8366 68.1959C69.8113 68.8159 69.7924 69.4358 69.7861 70.0621ZM69.9502 66.3298L68.063 66.1907C68.1135 65.5454 68.1703 64.9065 68.2334 64.2739L70.1143 64.47C70.0512 65.0836 69.9944 65.7099 69.9502 66.3298ZM70.3352 62.6102L68.4606 62.3572C68.549 61.712 68.6437 61.0794 68.7447 60.4531L70.6129 60.7568C70.5119 61.364 70.4236 61.984 70.3415 62.6102H70.3352Z" fill="#909DF0"/>
<path d="M99.8935 114.919C99.7673 114.919 99.641 114.894 99.5211 114.843C95.8856 113.275 92.4079 111.339 89.1826 109.087L90.2619 107.531C93.2726 109.631 96.5105 111.453 99.8935 112.939C115.963 105.892 125.923 92.7663 128.681 82.8158C132.178 70.2021 129.053 55.6021 125.948 48.34C124.66 48.5614 123.139 48.6689 121.416 48.6689C118.696 48.6689 109.197 48.2894 99.8998 43.4691C95.5637 45.7274 90.7353 47.2836 85.5345 48.0933L85.2441 46.2209C90.4134 45.4111 95.1913 43.8487 99.4517 41.565C99.7294 41.4132 100.064 41.4132 100.342 41.565C109.393 46.4043 118.759 46.7775 121.416 46.7775C123.247 46.7775 124.818 46.6447 126.081 46.3916L126.327 46.341C126.756 46.2525 127.191 46.4739 127.374 46.8787C130.688 54.1281 134.254 69.8225 130.511 83.3282C127.823 93.0257 118.286 107.101 100.272 114.85C100.152 114.9 100.026 114.926 99.8998 114.926L99.8935 114.919Z" fill="#909DF0"/>
<path d="M105.579 72.4536C105.579 69.3729 102.909 66.9122 99.7599 67.2664C97.4499 67.5321 95.5438 69.3729 95.2156 71.6819C94.9505 73.529 95.6574 75.218 96.8945 76.3313V83.5744C96.8945 85.4089 98.2325 87.06 100.057 87.2181C102.114 87.3952 103.837 85.7758 103.837 83.7515V76.325C104.898 75.3698 105.573 73.9845 105.573 72.441L105.579 72.4536Z" fill="#909DF0"/>
<path d="M146.706 61.8903H174.87V158.39H184.379V60.2559C184.379 55.7015 182.192 50.9092 177.647 50.9092H139.425L142.493 61.8903H146.706Z" fill="#909DF0"/>
<path d="M176.102 87.2124C175.53 87.2124 174.972 87.1906 174.406 87.1688V156.596H183.915V86.624C181.371 87.009 178.762 87.2124 176.109 87.2124H176.102Z" fill="#909DF0"/>
<path d="M59.4762 62.181H23.956V157.446H14.4473V59.3118C14.4473 54.7574 18.129 51.0674 22.6732 51.0674H63.1579L59.4762 62.181Z" fill="#909DF0"/>
<path d="M100.235 166.976H14.4536C11.83 166.976 9.69922 164.841 9.69922 162.211V157.446H87.871C88.7262 158.485 90.299 159.48 92.1253 160.621H107.976C109.795 159.48 112.23 157.446 112.23 157.446H190.308V162.211C190.308 164.841 188.177 166.976 185.553 166.976H99.7715H100.243H100.235Z" fill="#909DF0"/>
<path d="M64.462 50.0293H25.5283V52.2084H64.462V50.0293Z" fill="#0B0E11"/>
<path d="M15.5405 157.453H13.3662V57.6191C13.3662 53.4061 16.787 49.9775 20.9906 49.9775H27.1293V52.1567H20.9906C17.9829 52.1567 15.5405 54.6046 15.5405 57.6191V157.453Z" fill="#0B0E11"/>
<path d="M25.0424 157.453H22.8682V62.8492C22.8682 61.8831 23.6509 61.0986 24.6148 61.0986H62.3672L60.9612 63.2778H25.0424V157.453Z" fill="#0B0E11"/>
<path d="M185.546 168.066H14.4538C11.2359 168.066 8.6123 165.443 8.6123 162.211V156.356H87.7698L88.0597 156.981C88.8497 158.666 90.3064 159.298 91.4298 159.531H107.063C108.07 159.276 109.723 157.758 110.607 156.734L110.933 156.356H111.433H191.388V162.211C191.388 165.436 188.771 168.066 185.546 168.066ZM100.236 165.887H185.546C187.568 165.887 189.213 164.238 189.213 162.211V158.536H111.919C111.121 159.4 109.143 161.361 107.382 161.695L107.179 161.717L91.1254 161.695C89.0671 161.303 87.4219 160.192 86.429 158.536H10.7866V162.211C10.7866 164.238 12.4318 165.887 14.4538 165.887H100.236Z" fill="#0B0E11"/>
<path d="M183.088 157.489H185.263V57.6552C185.263 53.4422 181.842 50.0137 177.638 50.0137H137.574L138.451 52.1928H177.638C180.646 52.1928 183.088 54.6407 183.088 57.6552V157.489Z" fill="#0B0E11"/>
<path d="M174.08 157.367H176.254V62.7628C176.254 61.7967 175.472 61.0122 174.508 61.0122L140.886 61.0117L141.178 63.1913H174.087V157.367H174.08Z" fill="#0B0E11"/>
<path d="M91.9844 132.676L88.2441 140.85H91.8867V137.891H93.3418V140.85H95.3828V142.168H93.3418V144.951H91.8867V142.168H86.1055V142.09L90.4414 132.676H91.9844ZM101.242 145.127C99.8815 145.127 98.7747 144.541 97.9219 143.369C97.082 142.184 96.6621 140.664 96.6621 138.809C96.6621 136.953 97.082 135.433 97.9219 134.248C98.7747 133.076 99.8815 132.49 101.242 132.49C102.609 132.49 103.71 133.076 104.543 134.248C105.396 135.42 105.822 136.94 105.822 138.809C105.822 140.677 105.396 142.197 104.543 143.369C103.71 144.541 102.609 145.127 101.242 145.127ZM101.242 133.916C100.233 133.916 99.4714 134.375 98.957 135.293C98.4557 136.217 98.2051 137.389 98.2051 138.809C98.2051 140.234 98.4557 141.41 98.957 142.334C99.4714 143.252 100.233 143.711 101.242 143.711C102.225 143.711 102.977 143.252 103.498 142.334C104.019 141.41 104.279 140.234 104.279 138.809C104.279 137.389 104.019 136.217 103.498 135.293C102.977 134.375 102.225 133.916 101.242 133.916ZM107.229 134.072V132.676H114.484V132.734L111.408 137.607C112.339 137.744 113.101 138.135 113.693 138.779C114.286 139.424 114.582 140.234 114.582 141.211C114.582 142.422 114.175 143.376 113.361 144.072C112.541 144.775 111.581 145.127 110.48 145.127C109.172 145.127 108.059 144.788 107.141 144.111V142.451C108.039 143.33 109.12 143.77 110.383 143.77C111.203 143.77 111.867 143.545 112.375 143.096C112.889 142.646 113.146 142.025 113.146 141.23C113.146 140.326 112.779 139.645 112.043 139.189C111.333 138.74 110.435 138.535 109.348 138.574V138.516L112.16 134.072H107.229Z" fill="black"/>
</svg>
