<svg width="25" height="24" viewBox="0 0 25 24" fill="none" xmlns="http://www.w3.org/2000/svg">
<path fill-rule="evenodd" clip-rule="evenodd" d="M4.92621 19.4697L12.3959 12L4.92621 4.53033C4.63332 4.23744 4.63332 3.76256 4.92621 3.46967C5.21911 3.17678 5.69398 3.17678 5.98687 3.46967L13.9869 11.4697C14.2798 11.7626 14.2798 12.2374 13.9869 12.5303L5.98687 20.5303C5.69398 20.8232 5.21911 20.8232 4.92621 20.5303C4.63332 20.2374 4.63332 19.7626 4.92621 19.4697ZM10.4262 19.4697L17.8959 12L10.4262 4.53033C10.1333 4.23744 10.1333 3.76256 10.4262 3.46967C10.7191 3.17678 11.194 3.17678 11.4869 3.46967L19.4869 11.4697C19.7798 11.7626 19.7798 12.2374 19.4869 12.5303L11.4869 20.5303C11.194 20.8232 10.7191 20.8232 10.4262 20.5303C10.1333 20.2374 10.1333 19.7626 10.4262 19.4697Z" fill="#1A051D"/>
</svg>
