<svg width="25" height="24" viewBox="0 0 25 24" fill="none" xmlns="http://www.w3.org/2000/svg">
<path d="M6.18072 17.9716C7.23201 17.2469 8.27789 16.6852 9.31836 16.2864C10.3589 15.8876 11.4884 15.6882 12.707 15.6882C13.9256 15.6882 15.0579 15.8876 16.1038 16.2864C17.1497 16.6852 18.1983 17.2469 19.2495 17.9716C20.0147 17.085 20.5832 16.1488 20.955 15.1631C21.3268 14.1773 21.5127 13.1229 21.5127 11.9999C21.5127 9.51681 20.6659 7.42841 18.9722 5.73474C17.2786 4.04108 15.1902 3.19426 12.707 3.19426C10.2239 3.19426 8.1355 4.04108 6.44183 5.73474C4.74818 7.42841 3.90135 9.51681 3.90135 11.9999C3.90135 13.1229 4.08995 14.1773 4.46714 15.1631C4.84433 16.1488 5.41553 17.085 6.18072 17.9716ZM12.7013 12.5971C11.7551 12.5971 10.9591 12.2723 10.3133 11.6228C9.66756 10.9732 9.34468 10.1753 9.34468 9.22904C9.34468 8.28279 9.66946 7.48679 10.319 6.84103C10.9686 6.19529 11.7665 5.87242 12.7127 5.87242C13.659 5.87242 14.455 6.1972 15.1007 6.84674C15.7465 7.49629 16.0694 8.29419 16.0694 9.24046C16.0694 10.1867 15.7446 10.9827 15.095 11.6285C14.4455 12.2742 13.6476 12.5971 12.7013 12.5971ZM12.7193 21.9999C11.3333 21.9999 10.0329 21.7388 8.81823 21.2165C7.60358 20.6943 6.54251 19.9787 5.63504 19.0698C4.72758 18.1609 4.01272 17.1018 3.49045 15.8927C2.96817 14.6836 2.70703 13.3854 2.70703 11.998C2.70703 10.6106 2.96817 9.31303 3.49045 8.10522C4.01272 6.89739 4.7283 5.83902 5.6372 4.9301C6.54611 4.02121 7.60512 3.30563 8.81423 2.78336C10.0234 2.26108 11.3216 1.99994 12.709 1.99994C14.0963 1.99994 15.3939 2.26108 16.6018 2.78336C17.8096 3.30563 18.868 4.02121 19.7769 4.9301C20.6858 5.83902 21.4013 6.89767 21.9236 8.10606C22.4459 9.31445 22.707 10.6083 22.707 11.9876C22.707 13.3737 22.4459 14.6741 21.9236 15.8887C21.4013 17.1034 20.6858 18.1645 19.7769 19.0719C18.868 19.9794 17.8093 20.6943 16.6009 21.2165C15.3925 21.7388 14.0987 21.9999 12.7193 21.9999ZM12.707 20.8056C13.6854 20.8056 14.6504 20.6501 15.6018 20.339C16.5532 20.0279 17.4493 19.5249 18.29 18.8299C17.4493 18.2118 16.5589 17.7327 15.619 17.3926C14.679 17.0526 13.7084 16.8825 12.707 16.8825C11.7057 16.8825 10.7333 17.0509 9.79002 17.3876C8.84669 17.7243 7.9614 18.2051 7.13415 18.8299C7.96815 19.5249 8.86086 20.0279 9.81229 20.339C10.7637 20.6501 11.7286 20.8056 12.707 20.8056ZM12.7085 11.4028C13.3377 11.4028 13.8562 11.1985 14.2637 10.79C14.6713 10.3815 14.8751 9.86264 14.8751 9.23335C14.8751 8.60405 14.6708 8.08562 14.2623 7.67806C13.8538 7.2705 13.3349 7.06672 12.7056 7.06672C12.0763 7.06672 11.5579 7.27097 11.1503 7.67948C10.7428 8.08797 10.539 8.60687 10.539 9.23617C10.539 9.86545 10.7433 10.3839 11.1518 10.7914C11.5603 11.199 12.0792 11.4028 12.7085 11.4028Z" fill="#00BF85"/>
</svg>
