<svg width="25" height="24" viewBox="0 0 25 24" fill="none" xmlns="http://www.w3.org/2000/svg">
<path d="M4.70703 20.8177V3.18167L6.0102 4.33783L7.34956 3.18167L8.6889 4.33783L10.0283 3.18167L11.3676 4.33783L12.707 3.18167L14.0463 4.33783L15.3857 3.18167L16.7251 4.33783L18.0644 3.18167L19.4038 4.33783L20.7069 3.18167V20.8177L19.4038 19.6615L18.0644 20.8177L16.7251 19.6615L15.3857 20.8177L14.0463 19.6615L12.707 20.8177L11.3676 19.6615L10.0283 20.8177L8.6889 19.6615L7.34956 20.8177L6.0102 19.6615L4.70703 20.8177ZM7.24276 15.9037H18.2382V14.8359H7.24276V15.9037ZM7.24276 12.5336H18.2382V11.4658H7.24276V12.5336ZM7.24276 9.13998H18.2382V8.07213H7.24276V9.13998ZM5.77489 18.9209H19.6391V5.07844H5.77489V18.9209Z" fill="#828282"/>
</svg>
