<svg width="24" height="25" viewBox="0 0 24 25" fill="none" xmlns="http://www.w3.org/2000/svg">
<path d="M4.22727 21.6364C3.9 21.6364 3.61364 21.5137 3.36818 21.2682C3.12273 21.0228 3 20.7364 3 20.4091V11.0205H4.22727V20.4091H16.6841V21.6364H4.22727ZM6.68182 19.1819C6.35455 19.1819 6.06818 19.0591 5.82273 18.8137C5.57727 18.5682 5.45455 18.2819 5.45455 17.9546V7.35914H10.4045V5.68186C10.4045 5.35459 10.5273 5.06823 10.7727 4.82277C11.0182 4.57732 11.3045 4.45459 11.6318 4.45459H14.8227C15.15 4.45459 15.4364 4.57732 15.6818 4.82277C15.9273 5.06823 16.05 5.35459 16.05 5.68186V7.35914H21V17.9546C21 18.2819 20.8773 18.5682 20.6318 18.8137C20.3864 19.0591 20.1 19.1819 19.7727 19.1819H6.68182ZM6.68182 17.9546H19.7727V8.58641H6.68182V17.9546ZM11.6318 7.35914H14.8227V5.68186H11.6318V7.35914Z" fill="#464646"/>
</svg>
