<svg width="24" height="25" viewBox="0 0 24 25" fill="none" xmlns="http://www.w3.org/2000/svg">
<path d="M12 22.5002C10.6167 22.5002 9.31667 22.2377 8.1 21.7127C6.88333 21.1877 5.825 20.4752 4.925 19.5752C4.025 18.6752 3.3125 17.6169 2.7875 16.4002C2.2625 15.1836 2 13.8836 2 12.5002C2 11.1169 2.2625 9.81691 2.7875 8.60024C3.3125 7.38358 4.025 6.32524 4.925 5.42524C5.825 4.52524 6.88333 3.81274 8.1 3.28774C9.31667 2.76274 10.6167 2.50024 12 2.50024C13.3833 2.50024 14.6833 2.76274 15.9 3.28774C17.1167 3.81274 18.175 4.52524 19.075 5.42524C19.975 6.32524 20.6875 7.38358 21.2125 8.60024C21.7375 9.81691 22 11.1169 22 12.5002C22 13.8836 21.7375 15.1836 21.2125 16.4002C20.6875 17.6169 19.975 18.6752 19.075 19.5752C18.175 20.4752 17.1167 21.1877 15.9 21.7127C14.6833 22.2377 13.3833 22.5002 12 22.5002ZM12 21.0002C14.3729 21.0002 16.3828 20.1768 18.0297 18.5299C19.6766 16.8831 20.5 14.8732 20.5 12.5002C20.5 11.4892 20.325 10.5156 19.975 9.57947C19.625 8.64332 19.1333 7.79191 18.5 7.02524L6.525 19.0002C7.275 19.6502 8.12078 20.1461 9.06233 20.4877C10.0039 20.8294 10.9831 21.0002 12 21.0002ZM5.525 17.9752L17.475 6.02524C16.7083 5.37524 15.8569 4.87524 14.9208 4.52524C13.9846 4.17524 13.011 4.00024 12 4.00024C9.62708 4.00024 7.61718 4.82368 5.9703 6.47054C4.32343 8.11743 3.5 10.1273 3.5 12.5002C3.5 13.5171 3.68333 14.4964 4.05 15.4379C4.41667 16.3795 4.90833 17.2252 5.525 17.9752Z" fill="#464646"/>
</svg>
