<svg width="150" height="20" viewBox="0 0 150 20" fill="none" xmlns="http://www.w3.org/2000/svg">
<path d="M146.274 19.3155C148.332 19.3155 150 17.6472 150 15.5891C150 13.5311 148.332 11.8628 146.274 11.8628C144.216 11.8628 142.548 13.5311 142.548 15.5891C142.548 17.6472 144.216 19.3155 146.274 19.3155Z" fill="#DBD529"/>
<path d="M132.7 19.3155C134.757 19.3155 136.426 17.6472 136.426 15.5891C136.426 13.5311 134.757 11.8628 132.7 11.8628C130.642 11.8628 128.974 13.5311 128.974 15.5891C128.974 17.6472 130.642 19.3155 132.7 19.3155Z" fill="#126690"/>
<path d="M139.22 8.13631C141.278 8.13631 142.946 6.46796 142.946 4.40995C142.946 2.35194 141.278 0.683594 139.22 0.683594C137.162 0.683594 135.494 2.35194 135.494 4.40995C135.494 6.46796 137.162 8.13631 139.22 8.13631Z" fill="#D61518"/>
<path d="M14.6912 4.43635C13.7597 4.32988 12.8814 4.27665 12.0564 4.25003C11.2313 4.22341 10.3264 4.22342 9.34169 4.22342C8.38356 4.22342 7.58513 4.30327 6.94638 4.46297C6.30763 4.62267 5.77535 4.86222 5.34951 5.23486C4.9503 5.58087 4.65753 6.05997 4.47123 6.64554C4.31154 7.23111 4.20509 7.94977 4.20509 8.77489V11.197C4.20509 12.102 4.31155 12.8473 4.49785 13.4328C4.68415 14.0184 4.9769 14.4709 5.37612 14.8169C5.77534 15.1629 6.28102 15.3759 6.89315 15.5356C7.50528 15.6687 8.25049 15.7485 9.10215 15.7751C10.0337 15.8017 10.9386 15.8017 11.8701 15.7485C12.775 15.7219 13.7065 15.6687 14.638 15.6154V18.6497C14.638 19.0756 14.4251 19.3152 13.9992 19.3418C13.0411 19.395 12.083 19.4482 11.1249 19.4482C10.1933 19.4482 9.26184 19.4482 8.33033 19.4482C6.627 19.4482 5.24306 19.2353 4.15186 18.7828C3.06067 18.3303 2.209 17.7448 1.59687 16.9729C0.958122 16.201 0.532285 15.3226 0.319369 14.2846C0.0798386 13.2731 0 12.1818 0 11.0373L0.0266161 8.37564C0.0798451 5.71395 0.798431 3.74432 2.209 2.46671C3.61957 1.1891 5.80195 0.550293 8.72955 0.550293C9.7409 0.550293 10.7256 0.576913 11.7104 0.60353C12.6685 0.630147 13.6532 0.68338 14.6114 0.789847V4.43635H14.6912Z" fill="white"/>
<path d="M24.3799 19.3948C23.2089 19.3948 22.1709 19.2084 21.266 18.8092C20.3611 18.4099 19.5893 17.9042 18.9772 17.2122C18.365 16.5468 17.886 15.7483 17.5666 14.8433C17.2472 13.9383 17.0875 12.9535 17.0875 11.942V8.21569C17.0875 7.07117 17.2472 6.03311 17.5666 5.10152C17.886 4.16993 18.3384 3.37142 18.9505 2.67939C19.5627 2.01397 20.3345 1.48163 21.2394 1.13562C22.1443 0.76298 23.1822 0.57666 24.3799 0.57666H26.9881C28.1858 0.57666 29.2237 0.76298 30.102 1.13562C31.0069 1.50825 31.7521 2.01397 32.3642 2.70601C32.9764 3.39804 33.4288 4.19655 33.7216 5.12814C34.0143 6.05973 34.174 7.1244 34.174 8.29554V11.7291C34.174 13.0067 33.9877 14.1246 33.6417 15.0562C33.2957 16.0144 32.7901 16.8129 32.1779 17.4517C31.5392 18.0905 30.794 18.5962 29.9157 18.9156C29.0374 19.2351 28.0793 19.3948 27.0413 19.3948H24.3799ZM26.1897 15.8547C27.3607 15.8547 28.2656 15.4821 28.9044 14.7634C29.5431 14.0182 29.8625 13.0067 29.8625 11.6493V8.32216C29.8625 7.81644 29.8093 7.31071 29.6762 6.805C29.5431 6.29928 29.3302 5.87341 29.0374 5.47415C28.7447 5.0749 28.3721 4.78212 27.893 4.54257C27.4139 4.30301 26.8284 4.19655 26.1364 4.19655H24.859C23.6347 4.19655 22.7564 4.56919 22.1975 5.28784C21.6652 6.0065 21.3991 6.99131 21.3991 8.2423V11.8356C21.3991 13.1398 21.7451 14.1246 22.4104 14.8167C23.0758 15.5087 23.9274 15.8813 24.9654 15.8813H26.1897V15.8547Z" fill="white"/>
<path d="M52.7499 18.8095C52.7499 18.9692 52.6966 19.1289 52.6168 19.2353C52.537 19.3418 52.4039 19.395 52.2176 19.395H48.3319V7.60376C48.3319 6.29954 48.0125 5.42118 47.3471 4.9687C46.6818 4.51621 45.7769 4.27666 44.5792 4.27666L41.5718 4.3299C41.4121 4.3299 41.3056 4.40974 41.3056 4.56945V18.8361C41.3056 19.2087 41.146 19.395 40.8266 19.395H36.8344V1.69483C36.8344 1.40204 36.9143 1.13588 37.1006 0.922941C37.2869 0.710007 37.5264 0.60354 37.8192 0.60354L45.6438 0.49707C46.9479 0.49707 48.0657 0.603538 48.9706 0.84309C49.8755 1.08264 50.6207 1.45528 51.1796 1.98761C51.7385 2.49333 52.1377 3.18537 52.3773 4.03711C52.6168 4.88885 52.7233 5.92691 52.7233 7.15128V18.8095H52.7499Z" fill="white"/>
<path d="M71.1942 18.8095C71.1942 18.9692 71.141 19.1289 71.0611 19.2353C70.9813 19.3418 70.8482 19.395 70.6619 19.395H66.7762V7.60376C66.7762 6.29954 66.4568 5.42118 65.7915 4.9687C65.1261 4.51621 64.2212 4.27666 63.0236 4.27666L60.0161 4.3299C59.8564 4.3299 59.75 4.40974 59.75 4.56945V18.8361C59.75 19.2087 59.5903 19.395 59.2709 19.395H55.2521V1.69483C55.2521 1.40204 55.332 1.13588 55.5183 0.922941C55.7046 0.710007 55.9441 0.60354 56.2369 0.60354L64.0615 0.49707C65.3656 0.49707 66.4834 0.603538 67.3883 0.84309C68.2932 1.08264 69.0384 1.45528 69.5973 1.98761C70.1562 2.49333 70.5555 3.18537 70.795 4.03711C71.0345 4.88885 71.141 5.92691 71.141 7.15128V18.8095H71.1942Z" fill="white"/>
<path d="M90.916 9.83931C90.916 10.4515 90.7297 10.9306 90.3571 11.3299C89.9845 11.7291 89.5321 11.9154 89.0264 11.9154H78.2475V12.2082C78.2475 13.06 78.4338 13.6988 78.8331 14.1779C79.2323 14.657 79.7379 15.003 80.3501 15.2425C80.9622 15.4821 81.6276 15.6152 82.3462 15.695C83.0914 15.7749 83.7834 15.8281 84.4487 15.8281C85.0609 15.8547 85.6464 15.8547 86.1787 15.8281C86.7109 15.8015 87.2166 15.7749 87.6957 15.7483C88.1747 15.7216 88.6538 15.6684 89.0796 15.6152C89.5321 15.5619 89.9845 15.5087 90.4636 15.4288V18.4099C90.4636 18.8092 90.2241 19.0487 89.7716 19.1286C88.6272 19.2883 87.6424 19.3948 86.8174 19.448C85.9923 19.4746 85.1141 19.5012 84.1559 19.5012C80.563 19.5012 77.9282 18.8358 76.3047 17.5316C74.6546 16.2274 73.8561 14.2843 73.8561 11.7025V7.78982C73.8561 6.56545 74.0957 5.50077 74.5481 4.5958C75.0006 3.69083 75.6127 2.94556 76.3313 2.33337C77.0499 1.7478 77.8749 1.29532 78.7798 1.00253C79.6847 0.709746 80.6162 0.57666 81.5211 0.57666H83.0648C84.0229 0.57666 84.981 0.709744 85.9391 0.975913C86.8706 1.24208 87.7223 1.64133 88.4409 2.17367C89.1861 2.70601 89.7716 3.37143 90.224 4.16993C90.6765 4.96844 90.916 5.92664 90.916 6.99132V9.83931ZM81.9469 4.2764C80.7759 4.2764 79.871 4.51595 79.2057 5.02167C78.5403 5.52739 78.2209 6.40575 78.2209 7.68336V8.2423H86.4714C86.7109 8.2423 86.8174 8.13584 86.8174 7.92291V7.41719C86.8174 6.77838 86.7376 6.27266 86.5513 5.87341C86.365 5.47415 86.1254 5.15475 85.8061 4.9152C85.4867 4.67565 85.1141 4.51595 84.7149 4.4361C84.289 4.35625 83.8366 4.30302 83.3309 4.30302H81.9469V4.2764Z" fill="white"/>
<path d="M108.082 4.43635C107.15 4.32988 106.272 4.27665 105.447 4.25003C104.622 4.22341 103.717 4.22342 102.732 4.22342C101.774 4.22342 100.976 4.30327 100.337 4.46297C99.6983 4.62267 99.166 4.86222 98.7402 5.23486C98.341 5.58087 98.0482 6.05997 97.8619 6.64554C97.6756 7.23111 97.5958 7.94977 97.5958 8.77489V11.197C97.5958 12.102 97.7022 12.8473 97.8885 13.4328C98.0748 14.0184 98.3676 14.4709 98.7668 14.8169C99.166 15.1629 99.6717 15.3759 100.284 15.5356C100.896 15.6687 101.641 15.7485 102.493 15.7751C103.424 15.8017 104.356 15.8017 105.261 15.7485C106.166 15.7219 107.097 15.6687 108.029 15.6154V18.6497C108.029 19.0756 107.816 19.3152 107.39 19.3418C106.432 19.395 105.474 19.4482 104.516 19.4482C103.557 19.4482 102.653 19.4482 101.721 19.4482C100.018 19.4482 98.6337 19.2353 97.5425 18.7828C96.4513 18.3303 95.5997 17.7448 94.9876 16.9729C94.3488 16.201 93.923 15.3226 93.7101 14.2846C93.4705 13.2731 93.3907 12.1818 93.3907 11.0373L93.4173 8.37564C93.4705 5.71395 94.1891 3.74432 95.5997 2.46671C97.0103 1.1891 99.1926 0.550293 102.12 0.550293C103.132 0.550293 104.116 0.576913 105.101 0.60353C106.059 0.630147 107.044 0.68338 108.002 0.789847V4.43635H108.082Z" fill="white"/>
<path d="M116.067 19.342V4.40995H110.478V0.683594H125.089V4.40995H119.5V18.8895C119.5 19.0492 119.473 19.1557 119.394 19.2089C119.314 19.2888 119.207 19.3154 119.101 19.3154H116.067V19.342Z" fill="white"/>
</svg>
